<svg width="80" height="80" viewBox="0 0 80 80" fill="none" xmlns="http://www.w3.org/2000/svg">
<rect width="80" height="80" fill="white"/>
<path fill-rule="evenodd" clip-rule="evenodd" d="M34.6135 5.06767C51.5718 4.1257 68.816 13.0588 73.8237 29.2883C78.656 44.949 68.0572 60.1972 54.4371 69.3133C42.5131 77.2943 26.9225 77.0186 15.515 68.3152C4.86371 60.1887 2.97951 45.8337 6.85231 33.0083C11.0482 19.1128 20.1206 5.8727 34.6135 5.06767Z" fill="#FFAFAF"/>
<path d="M19.6238 53.24C19.4938 53.292 19.3811 53.2963 19.2858 53.253C19.1904 53.2097 19.1211 53.1533 19.0778 53.084C19.0171 52.9973 18.9998 52.9063 19.0258 52.811C19.0518 52.7157 19.1254 52.6333 19.2468 52.564C19.4461 52.4513 19.6974 52.3603 20.0008 52.291C20.3041 52.213 20.6291 52.1913 20.9758 52.226C21.3224 52.2607 21.6388 52.356 21.9248 52.512C22.2194 52.6593 22.4664 52.85 22.6658 53.084C22.8738 53.318 23.0298 53.5867 23.1338 53.89C23.2464 54.1847 23.2984 54.4967 23.2898 54.826C23.2724 55.1727 23.2031 55.5193 23.0818 55.866C22.9691 56.2127 22.8088 56.5377 22.6008 56.841C22.4014 57.1443 22.1588 57.4217 21.8728 57.673C21.5954 57.9157 21.2878 58.1063 20.9498 58.245C20.7158 58.3057 20.5381 58.3143 20.4168 58.271C20.2954 58.2277 20.2131 58.1757 20.1698 58.115C20.1524 58.0717 20.1438 58.0153 20.1438 57.946C20.1524 57.868 20.2001 57.79 20.2868 57.712C20.1828 56.8713 20.1178 56.061 20.0918 55.281C20.0744 54.4923 20.0658 53.773 20.0658 53.123C19.9184 53.149 19.7711 53.188 19.6238 53.24ZM21.0408 53.071C20.9888 53.0623 20.9324 53.058 20.8718 53.058C20.8198 53.0493 20.7678 53.045 20.7158 53.045C20.7678 53.1143 20.8111 53.201 20.8458 53.305C20.8804 53.4003 20.8978 53.4957 20.8978 53.591C20.8978 54.1197 20.9021 54.6873 20.9108 55.294C20.9281 55.9007 20.9714 56.555 21.0408 57.257C21.4221 56.9797 21.7471 56.633 22.0158 56.217C22.2931 55.7923 22.4404 55.346 22.4578 54.878C22.4664 54.4447 22.3581 54.0633 22.1328 53.734C21.9074 53.396 21.5434 53.175 21.0408 53.071ZM26.4267 57.27C26.4354 57.3047 26.4397 57.3567 26.4397 57.426C26.4397 57.4867 26.4267 57.5517 26.4007 57.621C26.3747 57.6817 26.3357 57.738 26.2837 57.79C26.2404 57.8333 26.1754 57.855 26.0887 57.855C25.8981 57.7337 25.7377 57.5733 25.6077 57.374C25.5384 57.114 25.4734 56.815 25.4127 56.477C25.3607 56.139 25.3174 55.788 25.2827 55.424C25.2481 55.0513 25.2221 54.6743 25.2047 54.293C25.1961 53.9117 25.1961 53.5433 25.2047 53.188C25.2047 53.1273 25.2091 53.0493 25.2177 52.954C25.2351 52.8587 25.2611 52.7677 25.2957 52.681C25.3304 52.5857 25.3737 52.5077 25.4257 52.447C25.4777 52.3777 25.5514 52.343 25.6467 52.343C25.7594 52.343 25.8504 52.3777 25.9197 52.447C25.9891 52.5163 26.0237 52.629 26.0237 52.785C26.0151 53.1317 26.0151 53.5043 26.0237 53.903C26.0411 54.293 26.0671 54.6873 26.1017 55.086C26.1364 55.4847 26.1797 55.8747 26.2317 56.256C26.2924 56.6287 26.3574 56.9667 26.4267 57.27ZM28.8832 58.388C28.8399 58.5353 28.7836 58.6697 28.7142 58.791C28.6449 58.9037 28.5712 58.9687 28.4932 58.986C28.3286 59.0293 28.2029 59.0033 28.1162 58.908C28.0296 58.8127 27.9949 58.6913 28.0122 58.544C28.0816 58.024 28.1942 57.478 28.3502 56.906C28.5062 56.3253 28.6882 55.749 28.8962 55.177C29.1042 54.5963 29.3296 54.0373 29.5722 53.5C29.8236 52.954 30.0792 52.46 30.3392 52.018C30.3826 51.9487 30.4302 51.9097 30.4822 51.901C30.5429 51.8837 30.5949 51.8837 30.6382 51.901C30.6816 51.8663 30.7336 51.836 30.7942 51.81C30.8549 51.784 30.9156 51.771 30.9762 51.771C31.0022 51.771 31.0282 51.7753 31.0542 51.784C31.0889 51.7927 31.1236 51.8187 31.1582 51.862C31.1929 51.9053 31.2319 51.9703 31.2752 52.057C31.3272 52.135 31.3879 52.252 31.4572 52.408C31.5786 52.85 31.7172 53.305 31.8732 53.773C32.0379 54.241 32.2069 54.709 32.3802 55.177C32.4062 55.1683 32.4279 55.164 32.4452 55.164C32.4712 55.1553 32.4972 55.1467 32.5232 55.138C32.6186 55.1293 32.7269 55.1337 32.8482 55.151C32.9696 55.1683 33.0519 55.229 33.0952 55.333C33.1472 55.463 33.1386 55.5757 33.0692 55.671C32.9999 55.7663 32.8742 55.8617 32.6922 55.957C32.8049 56.2343 32.9176 56.5073 33.0302 56.776C33.1429 57.036 33.2599 57.2917 33.3812 57.543C33.3899 57.5863 33.4029 57.6557 33.4202 57.751C33.4376 57.8377 33.4462 57.9287 33.4462 58.024C33.4549 58.1107 33.4506 58.193 33.4332 58.271C33.4159 58.349 33.3812 58.401 33.3292 58.427C33.2686 58.453 33.2036 58.4487 33.1342 58.414C33.0736 58.3793 33.0129 58.336 32.9522 58.284C32.8916 58.2233 32.8352 58.1627 32.7832 58.102C32.7399 58.0327 32.7052 57.972 32.6792 57.92C32.5319 57.634 32.3889 57.348 32.2502 57.062C32.1202 56.7673 31.9946 56.4727 31.8732 56.178C31.5092 56.2473 31.1106 56.308 30.6772 56.36C30.2526 56.412 29.8322 56.4467 29.4162 56.464C29.3209 56.7933 29.2256 57.1183 29.1302 57.439C29.0436 57.751 28.9612 58.0673 28.8832 58.388ZM30.7292 52.928C30.3306 53.8207 29.9839 54.7133 29.6892 55.606C30.2699 55.5887 30.8896 55.515 31.5482 55.385C31.2362 54.5963 30.9632 53.7773 30.7292 52.928ZM35.8507 58.167C35.8247 57.8463 35.803 57.4823 35.7857 57.075C35.777 56.6677 35.7727 56.2517 35.7727 55.827C35.7727 55.3937 35.7727 54.969 35.7727 54.553C35.7814 54.137 35.7944 53.76 35.8117 53.422C35.8117 53.3353 35.8507 53.2703 35.9287 53.227C36.0154 53.175 36.0847 53.1533 36.1367 53.162C36.2927 53.1793 36.3967 53.2357 36.4487 53.331C36.5094 53.4177 36.5484 53.5433 36.5657 53.708C36.557 53.9853 36.5484 54.2627 36.5397 54.54C36.5397 54.8173 36.544 55.0947 36.5527 55.372C36.9427 55.3027 37.2677 55.1597 37.5277 54.943C37.7964 54.7263 37.987 54.4793 38.0997 54.202C38.143 54.098 38.1734 53.9723 38.1907 53.825C38.2167 53.6777 38.221 53.5303 38.2037 53.383C38.1864 53.227 38.143 53.084 38.0737 52.954C38.013 52.8153 37.9177 52.707 37.7877 52.629C37.597 52.5163 37.389 52.4557 37.1637 52.447C36.9384 52.4383 36.7044 52.473 36.4617 52.551C36.2277 52.6203 35.9937 52.733 35.7597 52.889C35.5344 53.045 35.322 53.2313 35.1227 53.448C35.1487 53.578 35.1314 53.695 35.0707 53.799C35.01 53.8943 34.9234 53.9637 34.8107 54.007C34.7414 54.0243 34.659 53.9897 34.5637 53.903C34.4684 53.8077 34.4207 53.7123 34.4207 53.617C34.4207 53.2703 34.516 52.9713 34.7067 52.72C34.906 52.46 35.153 52.2433 35.4477 52.07C35.7424 51.8967 36.0587 51.7667 36.3967 51.68C36.7347 51.5933 37.0467 51.55 37.3327 51.55C37.7574 51.55 38.1127 51.6757 38.3987 51.927C38.6847 52.1697 38.8797 52.4773 38.9837 52.85C39.1657 53.5 39.118 54.085 38.8407 54.605C38.572 55.125 38.13 55.5757 37.5147 55.957C37.9654 56.2343 38.3857 56.4987 38.7757 56.75C39.1744 57.0013 39.573 57.2743 39.9717 57.569C40.0237 57.621 40.08 57.699 40.1407 57.803C40.21 57.8983 40.2014 58.0457 40.1147 58.245C40.0627 58.3663 39.9717 58.4357 39.8417 58.453C39.7204 58.4617 39.599 58.4227 39.4777 58.336C39.287 58.18 39.0704 58.0197 38.8277 57.855C38.5937 57.6817 38.3467 57.5127 38.0867 57.348C37.8267 57.1747 37.5667 57.01 37.3067 56.854C37.0467 56.6893 36.7997 56.5377 36.5657 56.399C36.5744 56.7457 36.5787 57.0923 36.5787 57.439C36.5874 57.777 36.6004 58.1107 36.6177 58.44C36.6177 58.5613 36.583 58.648 36.5137 58.7C36.4444 58.7433 36.3577 58.765 36.2537 58.765C36.2017 58.7563 36.154 58.7303 36.1107 58.687C36.0674 58.635 36.024 58.5787 35.9807 58.518C35.946 58.4487 35.9157 58.3837 35.8897 58.323C35.8637 58.2537 35.8507 58.2017 35.8507 58.167ZM43.7579 55.476C43.7232 55.6147 43.6885 55.8183 43.6539 56.087C43.6279 56.347 43.6019 56.6243 43.5759 56.919C43.5585 57.205 43.5412 57.4823 43.5239 57.751C43.5152 58.0197 43.5109 58.2277 43.5109 58.375C43.5109 58.6263 43.3722 58.752 43.0949 58.752C42.9995 58.752 42.9085 58.726 42.8219 58.674C42.7439 58.622 42.7049 58.5223 42.7049 58.375C42.7049 58.011 42.7179 57.6167 42.7439 57.192C42.7699 56.7673 42.8045 56.3297 42.8479 55.879C42.5445 55.3243 42.2585 54.7783 41.9899 54.241C41.7299 53.7037 41.5089 53.2097 41.3269 52.759C41.2922 52.681 41.2619 52.5987 41.2359 52.512C41.2185 52.4167 41.2099 52.33 41.2099 52.252C41.2185 52.174 41.2402 52.109 41.2749 52.057C41.3095 51.9963 41.3702 51.9573 41.4569 51.94C41.5522 51.9313 41.6432 51.94 41.7299 51.966C41.8252 51.9833 41.9075 52.0397 41.9769 52.135C42.0462 52.317 42.1329 52.525 42.2369 52.759C42.3409 52.993 42.4492 53.2313 42.5619 53.474C42.6745 53.7167 42.7872 53.9507 42.8999 54.176C43.0125 54.3927 43.1122 54.579 43.1989 54.735C43.5889 54.215 43.9572 53.682 44.3039 53.136C44.6592 52.59 44.9885 52.07 45.2919 51.576C45.4045 51.4027 45.5215 51.3073 45.6429 51.29C45.7642 51.2727 45.8639 51.2987 45.9419 51.368C46.0112 51.42 46.0502 51.5067 46.0589 51.628C46.0762 51.7493 46.0632 51.8577 46.0199 51.953C45.8725 52.213 45.6992 52.499 45.4999 52.811C45.3092 53.1143 45.1099 53.422 44.9019 53.734C44.7025 54.046 44.5032 54.3537 44.3039 54.657C44.1045 54.9603 43.9225 55.2333 43.7579 55.476ZM54.1036 58.856C54.0083 58.856 53.9086 58.7823 53.8046 58.635C53.7093 58.4877 53.6573 58.3447 53.6486 58.206C53.5793 57.7033 53.4926 57.1183 53.3886 56.451C53.2933 55.775 53.1633 54.9777 52.9986 54.059C52.7386 54.553 52.483 55.0427 52.2316 55.528C51.9803 56.0133 51.729 56.4987 51.4776 56.984C51.3216 57.2873 51.1613 57.439 50.9966 57.439C50.754 57.439 50.5633 57.3133 50.4246 57.062C50.1213 56.62 49.805 56.2083 49.4756 55.827C49.155 55.437 48.8213 55.0513 48.4746 54.67C48.4573 55.2507 48.4616 55.8227 48.4876 56.386C48.5223 56.9407 48.5786 57.4823 48.6566 58.011C48.674 58.1063 48.661 58.193 48.6176 58.271C48.583 58.3403 48.544 58.3837 48.5006 58.401C48.3793 58.4443 48.258 58.4183 48.1366 58.323C48.0153 58.2277 47.9416 58.1237 47.9156 58.011C47.8376 57.699 47.7813 57.3523 47.7466 56.971C47.712 56.5897 47.686 56.204 47.6686 55.814C47.66 55.424 47.6556 55.0383 47.6556 54.657C47.6556 54.2757 47.66 53.929 47.6686 53.617C47.6686 53.2703 47.7813 53.097 48.0066 53.097C48.1453 53.097 48.2623 53.149 48.3576 53.253C48.453 53.3483 48.505 53.487 48.5136 53.669C48.947 54.1023 49.3543 54.5487 49.7356 55.008C50.1256 55.4587 50.5026 55.918 50.8666 56.386C51.17 55.84 51.4776 55.281 51.7896 54.709C52.1016 54.1283 52.4526 53.565 52.8426 53.019C52.86 52.9237 52.9076 52.8283 52.9856 52.733C53.0636 52.629 53.1503 52.5597 53.2456 52.525C53.341 52.4903 53.4406 52.5293 53.5446 52.642C53.6486 52.7547 53.718 52.8847 53.7526 53.032C53.9 53.9073 54.0256 54.7827 54.1296 55.658C54.2423 56.5333 54.3506 57.4087 54.4546 58.284C54.472 58.4487 54.4416 58.5873 54.3636 58.7C54.2856 58.804 54.199 58.856 54.1036 58.856ZM59.9582 55.151C59.9929 55.2377 59.9582 55.3243 59.8542 55.411C59.7502 55.489 59.5855 55.541 59.3602 55.567C58.9702 55.619 58.5715 55.6753 58.1642 55.736C57.7569 55.788 57.3409 55.8443 56.9162 55.905C56.8989 56.347 56.8989 56.789 56.9162 57.231C57.1155 57.231 57.3539 57.2137 57.6312 57.179C57.9172 57.1357 58.2075 57.0837 58.5022 57.023C58.7969 56.9623 59.0785 56.9017 59.3472 56.841C59.6245 56.7717 59.8585 56.7153 60.0492 56.672C60.1445 56.646 60.2442 56.6287 60.3482 56.62C60.4522 56.6027 60.5432 56.6027 60.6212 56.62C60.7079 56.6287 60.7772 56.659 60.8292 56.711C60.8812 56.763 60.9072 56.8367 60.9072 56.932C60.9072 56.958 60.8769 56.997 60.8162 57.049C60.7555 57.101 60.6775 57.1573 60.5822 57.218C60.4955 57.27 60.4002 57.322 60.2962 57.374C60.2009 57.4173 60.1142 57.452 60.0362 57.478C59.4989 57.6513 58.9702 57.803 58.4502 57.933C57.9302 58.0543 57.4232 58.1193 56.9292 58.128C56.6432 58.1367 56.4265 58.063 56.2792 57.907C56.1319 57.7423 56.0539 57.5083 56.0452 57.205C56.0279 56.7803 56.0279 56.3513 56.0452 55.918C55.8979 55.8313 55.8242 55.71 55.8242 55.554C55.8415 55.3893 55.9195 55.2767 56.0582 55.216C56.0755 54.9647 56.0885 54.7133 56.0972 54.462C56.1059 54.202 56.1189 53.9463 56.1362 53.695C56.0409 53.6777 55.9542 53.63 55.8762 53.552C55.8069 53.474 55.7722 53.3873 55.7722 53.292C55.7722 53.214 55.7895 53.1447 55.8242 53.084C55.8589 53.0147 55.9239 52.9627 56.0192 52.928C56.1752 52.8933 56.3659 52.8543 56.5912 52.811C56.8165 52.7677 57.0462 52.7287 57.2802 52.694C57.5229 52.6593 57.7525 52.629 57.9692 52.603C58.1945 52.577 58.3852 52.5597 58.5412 52.551C58.7232 52.5337 58.8965 52.551 59.0612 52.603C59.2345 52.655 59.3949 52.7547 59.5422 52.902C59.5769 53.0233 59.5509 53.1143 59.4642 53.175C59.3862 53.2357 59.2822 53.2747 59.1522 53.292C59.0222 53.3093 58.8662 53.331 58.6842 53.357C58.5022 53.3743 58.3115 53.396 58.1122 53.422C57.9215 53.448 57.7265 53.474 57.5272 53.5C57.3365 53.5173 57.1545 53.539 56.9812 53.565C56.9812 53.5823 56.9812 53.604 56.9812 53.63C56.9899 53.6473 56.9942 53.6647 56.9942 53.682C56.9769 53.9073 56.9639 54.1327 56.9552 54.358C56.9465 54.5833 56.9379 54.8087 56.9292 55.034C57.2932 54.9733 57.6659 54.9213 58.0472 54.878C58.4285 54.826 58.7319 54.7913 58.9572 54.774C59.1392 54.7567 59.3169 54.7783 59.4902 54.839C59.6635 54.8997 59.8195 55.0037 59.9582 55.151Z" fill="white"/>
<path d="M34 26C34 28.6738 35 31.3313 35 34" stroke="white" stroke-width="2" stroke-linecap="round"/>
<path d="M42 25C42 28.008 43 30.9977 43 34" stroke="white" stroke-width="2" stroke-linecap="round"/>
<path d="M25 38C26.0101 47.5621 51.3968 49.7169 54.0904 38" stroke="white" stroke-width="2" stroke-linecap="round"/>
</svg>
