<svg width="87" height="87" viewBox="0 0 87 87" fill="none" xmlns="http://www.w3.org/2000/svg">
<rect width="87" height="87" fill="white"/>
<path fill-rule="evenodd" clip-rule="evenodd" d="M37.7263 6.0725C55.8945 5.06332 74.369 14.6338 79.7341 32.0212C84.9111 48.7993 73.5562 65.1353 58.9643 74.9019C46.1895 83.4523 29.4866 83.1569 17.2652 73.8325C5.85399 65.1263 3.83535 49.747 7.98447 36.0066C12.4798 21.1197 22.1994 6.93496 37.7263 6.0725Z" fill="#FFAFAF"/>
<path d="M22.0564 56.72C21.9164 56.776 21.795 56.7807 21.6924 56.734C21.5897 56.6873 21.515 56.6267 21.4684 56.552C21.403 56.4587 21.3844 56.3607 21.4124 56.258C21.4404 56.1553 21.5197 56.0667 21.6504 55.992C21.865 55.8707 22.1357 55.7727 22.4624 55.698C22.789 55.614 23.139 55.5907 23.5124 55.628C23.8857 55.6653 24.2264 55.768 24.5344 55.936C24.8517 56.0947 25.1177 56.3 25.3324 56.552C25.5564 56.804 25.7244 57.0933 25.8364 57.42C25.9577 57.7373 26.0137 58.0733 26.0044 58.428C25.9857 58.8013 25.911 59.1747 25.7804 59.548C25.659 59.9213 25.4864 60.2713 25.2624 60.598C25.0477 60.9247 24.7864 61.2233 24.4784 61.494C24.1797 61.7553 23.8484 61.9607 23.4844 62.11C23.2324 62.1753 23.041 62.1847 22.9104 62.138C22.7797 62.0913 22.691 62.0353 22.6444 61.97C22.6257 61.9233 22.6164 61.8627 22.6164 61.788C22.6257 61.704 22.677 61.62 22.7704 61.536C22.6584 60.6307 22.5884 59.758 22.5604 58.918C22.5417 58.0687 22.5324 57.294 22.5324 56.594C22.3737 56.622 22.215 56.664 22.0564 56.72ZM23.5824 56.538C23.5264 56.5287 23.4657 56.524 23.4004 56.524C23.3444 56.5147 23.2884 56.51 23.2324 56.51C23.2884 56.5847 23.335 56.678 23.3724 56.79C23.4097 56.8927 23.4284 56.9953 23.4284 57.098C23.4284 57.6673 23.433 58.2787 23.4424 58.932C23.461 59.5853 23.5077 60.29 23.5824 61.046C23.993 60.7473 24.343 60.374 24.6324 59.926C24.931 59.4687 25.0897 58.988 25.1084 58.484C25.1177 58.0173 25.001 57.6067 24.7584 57.252C24.5157 56.888 24.1237 56.65 23.5824 56.538ZM29.3826 61.06C29.392 61.0973 29.3966 61.1533 29.3966 61.228C29.3966 61.2933 29.3826 61.3633 29.3546 61.438C29.3266 61.5033 29.2846 61.564 29.2286 61.62C29.182 61.6667 29.112 61.69 29.0186 61.69C28.8133 61.5593 28.6406 61.3867 28.5006 61.172C28.426 60.892 28.356 60.57 28.2906 60.206C28.2346 59.842 28.188 59.464 28.1506 59.072C28.1133 58.6707 28.0853 58.2647 28.0666 57.854C28.0573 57.4433 28.0573 57.0467 28.0666 56.664C28.0666 56.5987 28.0713 56.5147 28.0806 56.412C28.0993 56.3093 28.1273 56.2113 28.1646 56.118C28.202 56.0153 28.2486 55.9313 28.3046 55.866C28.3606 55.7913 28.44 55.754 28.5426 55.754C28.664 55.754 28.762 55.7913 28.8366 55.866C28.9113 55.9407 28.9486 56.062 28.9486 56.23C28.9393 56.6033 28.9393 57.0047 28.9486 57.434C28.9673 57.854 28.9953 58.2787 29.0326 58.708C29.07 59.1373 29.1166 59.5573 29.1726 59.968C29.238 60.3693 29.308 60.7333 29.3826 61.06ZM32.0281 62.264C31.9814 62.4227 31.9208 62.5673 31.8461 62.698C31.7714 62.8193 31.6921 62.8893 31.6081 62.908C31.4308 62.9547 31.2954 62.9267 31.2021 62.824C31.1088 62.7213 31.0714 62.5907 31.0901 62.432C31.1648 61.872 31.2861 61.284 31.4541 60.668C31.6221 60.0427 31.8181 59.422 32.0421 58.806C32.2661 58.1807 32.5088 57.5787 32.7701 57C33.0408 56.412 33.3161 55.88 33.5961 55.404C33.6428 55.3293 33.6941 55.2873 33.7501 55.278C33.8154 55.2593 33.8714 55.2593 33.9181 55.278C33.9648 55.2407 34.0208 55.208 34.0861 55.18C34.1514 55.152 34.2168 55.138 34.2821 55.138C34.3101 55.138 34.3381 55.1427 34.3661 55.152C34.4034 55.1613 34.4408 55.1893 34.4781 55.236C34.5154 55.2827 34.5574 55.3527 34.6041 55.446C34.6601 55.53 34.7254 55.656 34.8001 55.824C34.9308 56.3 35.0801 56.79 35.2481 57.294C35.4254 57.798 35.6074 58.302 35.7941 58.806C35.8221 58.7967 35.8454 58.792 35.8641 58.792C35.8921 58.7827 35.9201 58.7733 35.9481 58.764C36.0508 58.7547 36.1674 58.7593 36.2981 58.778C36.4288 58.7967 36.5174 58.862 36.5641 58.974C36.6201 59.114 36.6108 59.2353 36.5361 59.338C36.4614 59.4407 36.3261 59.5433 36.1301 59.646C36.2514 59.9447 36.3728 60.2387 36.4941 60.528C36.6154 60.808 36.7414 61.0833 36.8721 61.354C36.8814 61.4007 36.8954 61.4753 36.9141 61.578C36.9328 61.6713 36.9421 61.7693 36.9421 61.872C36.9514 61.9653 36.9468 62.054 36.9281 62.138C36.9094 62.222 36.8721 62.278 36.8161 62.306C36.7508 62.334 36.6808 62.3293 36.6061 62.292C36.5408 62.2547 36.4754 62.208 36.4101 62.152C36.3448 62.0867 36.2841 62.0213 36.2281 61.956C36.1814 61.8813 36.1441 61.816 36.1161 61.76C35.9574 61.452 35.8034 61.144 35.6541 60.836C35.5141 60.5187 35.3788 60.2013 35.2481 59.884C34.8561 59.9587 34.4268 60.024 33.9601 60.08C33.5028 60.136 33.0501 60.1733 32.6021 60.192C32.4994 60.5467 32.3968 60.8967 32.2941 61.242C32.2008 61.578 32.1121 61.9187 32.0281 62.264ZM34.0161 56.384C33.5868 57.3453 33.2134 58.3067 32.8961 59.268C33.5214 59.2493 34.1888 59.17 34.8981 59.03C34.5621 58.1807 34.2681 57.2987 34.0161 56.384ZM39.5315 62.026C39.5035 61.6807 39.4802 61.2887 39.4615 60.85C39.4522 60.4113 39.4475 59.9633 39.4475 59.506C39.4475 59.0393 39.4475 58.582 39.4475 58.134C39.4569 57.686 39.4709 57.28 39.4895 56.916C39.4895 56.8227 39.5315 56.7527 39.6155 56.706C39.7089 56.65 39.7835 56.6267 39.8395 56.636C40.0075 56.6547 40.1195 56.7153 40.1755 56.818C40.2409 56.9113 40.2829 57.0467 40.3015 57.224C40.2922 57.5227 40.2829 57.8213 40.2735 58.12C40.2735 58.4187 40.2782 58.7173 40.2875 59.016C40.7075 58.9413 41.0575 58.7873 41.3375 58.554C41.6269 58.3207 41.8322 58.0547 41.9535 57.756C42.0002 57.644 42.0329 57.5087 42.0515 57.35C42.0795 57.1913 42.0842 57.0327 42.0655 56.874C42.0469 56.706 42.0002 56.552 41.9255 56.412C41.8602 56.2627 41.7575 56.146 41.6175 56.062C41.4122 55.9407 41.1882 55.8753 40.9455 55.866C40.7029 55.8567 40.4509 55.894 40.1895 55.978C39.9375 56.0527 39.6855 56.174 39.4335 56.342C39.1909 56.51 38.9622 56.7107 38.7475 56.944C38.7755 57.084 38.7569 57.21 38.6915 57.322C38.6262 57.4247 38.5329 57.4993 38.4115 57.546C38.3369 57.5647 38.2482 57.5273 38.1455 57.434C38.0429 57.3313 37.9915 57.2287 37.9915 57.126C37.9915 56.7527 38.0942 56.4307 38.2995 56.16C38.5142 55.88 38.7802 55.6467 39.0975 55.46C39.4149 55.2733 39.7555 55.1333 40.1195 55.04C40.4835 54.9467 40.8195 54.9 41.1275 54.9C41.5849 54.9 41.9675 55.0353 42.2755 55.306C42.5835 55.5673 42.7935 55.8987 42.9055 56.3C43.1015 57 43.0502 57.63 42.7515 58.19C42.4622 58.75 41.9862 59.2353 41.3235 59.646C41.8089 59.9447 42.2615 60.2293 42.6815 60.5C43.1109 60.7707 43.5402 61.0647 43.9695 61.382C44.0255 61.438 44.0862 61.522 44.1515 61.634C44.2262 61.7367 44.2169 61.8953 44.1235 62.11C44.0675 62.2407 43.9695 62.3153 43.8295 62.334C43.6989 62.3433 43.5682 62.3013 43.4375 62.208C43.2322 62.04 42.9989 61.8673 42.7375 61.69C42.4855 61.5033 42.2195 61.3213 41.9395 61.144C41.6595 60.9573 41.3795 60.78 41.0995 60.612C40.8195 60.4347 40.5535 60.2713 40.3015 60.122C40.3109 60.4953 40.3155 60.8687 40.3155 61.242C40.3249 61.606 40.3389 61.9653 40.3575 62.32C40.3575 62.4507 40.3202 62.544 40.2455 62.6C40.1709 62.6467 40.0775 62.67 39.9655 62.67C39.9095 62.6607 39.8582 62.6327 39.8115 62.586C39.7649 62.53 39.7182 62.4693 39.6715 62.404C39.6342 62.3293 39.6015 62.2593 39.5735 62.194C39.5455 62.1193 39.5315 62.0633 39.5315 62.026ZM48.0469 59.128C48.0096 59.2773 47.9723 59.4967 47.9349 59.786C47.9069 60.066 47.8789 60.3647 47.8509 60.682C47.8323 60.99 47.8136 61.2887 47.7949 61.578C47.7856 61.8673 47.7809 62.0913 47.7809 62.25C47.7809 62.5207 47.6316 62.656 47.3329 62.656C47.2303 62.656 47.1323 62.628 47.0389 62.572C46.9549 62.516 46.9129 62.4087 46.9129 62.25C46.9129 61.858 46.9269 61.4333 46.9549 60.976C46.9829 60.5187 47.0203 60.0473 47.0669 59.562C46.7403 58.9647 46.4323 58.3767 46.1429 57.798C45.8629 57.2193 45.6249 56.6873 45.4289 56.202C45.3916 56.118 45.3589 56.0293 45.3309 55.936C45.3123 55.8333 45.3029 55.74 45.3029 55.656C45.3123 55.572 45.3356 55.502 45.3729 55.446C45.4103 55.3807 45.4756 55.3387 45.5689 55.32C45.6716 55.3107 45.7696 55.32 45.8629 55.348C45.9656 55.3667 46.0543 55.4273 46.1289 55.53C46.2036 55.726 46.2969 55.95 46.4089 56.202C46.5209 56.454 46.6376 56.7107 46.7589 56.972C46.8803 57.2333 47.0016 57.4853 47.1229 57.728C47.2443 57.9613 47.3516 58.162 47.4449 58.33C47.8649 57.77 48.2616 57.196 48.6349 56.608C49.0176 56.02 49.3723 55.46 49.6989 54.928C49.8203 54.7413 49.9463 54.6387 50.0769 54.62C50.2076 54.6013 50.3149 54.6293 50.3989 54.704C50.4736 54.76 50.5156 54.8533 50.5249 54.984C50.5436 55.1147 50.5296 55.2313 50.4829 55.334C50.3243 55.614 50.1376 55.922 49.9229 56.258C49.7176 56.5847 49.5029 56.916 49.2789 57.252C49.0643 57.588 48.8496 57.9193 48.6349 58.246C48.4203 58.5727 48.2243 58.8667 48.0469 59.128ZM59.1885 62.768C59.0859 62.768 58.9785 62.6887 58.8665 62.53C58.7639 62.3713 58.7079 62.2173 58.6985 62.068C58.6239 61.5267 58.5305 60.8967 58.4185 60.178C58.3159 59.45 58.1759 58.5913 57.9985 57.602C57.7185 58.134 57.4432 58.6613 57.1725 59.184C56.9019 59.7067 56.6312 60.2293 56.3605 60.752C56.1925 61.0787 56.0199 61.242 55.8425 61.242C55.5812 61.242 55.3759 61.1067 55.2265 60.836C54.8999 60.36 54.5592 59.9167 54.2045 59.506C53.8592 59.086 53.4999 58.6707 53.1265 58.26C53.1079 58.8853 53.1125 59.5013 53.1405 60.108C53.1779 60.7053 53.2385 61.2887 53.3225 61.858C53.3412 61.9607 53.3272 62.054 53.2805 62.138C53.2432 62.2127 53.2012 62.2593 53.1545 62.278C53.0239 62.3247 52.8932 62.2967 52.7625 62.194C52.6319 62.0913 52.5525 61.9793 52.5245 61.858C52.4405 61.522 52.3799 61.1487 52.3425 60.738C52.3052 60.3273 52.2772 59.912 52.2585 59.492C52.2492 59.072 52.2445 58.6567 52.2445 58.246C52.2445 57.8353 52.2492 57.462 52.2585 57.126C52.2585 56.7527 52.3799 56.566 52.6225 56.566C52.7719 56.566 52.8979 56.622 53.0005 56.734C53.1032 56.8367 53.1592 56.986 53.1685 57.182C53.6352 57.6487 54.0739 58.1293 54.4845 58.624C54.9045 59.1093 55.3105 59.604 55.7025 60.108C56.0292 59.52 56.3605 58.918 56.6965 58.302C57.0325 57.6767 57.4105 57.07 57.8305 56.482C57.8492 56.3793 57.9005 56.2767 57.9845 56.174C58.0685 56.062 58.1619 55.9873 58.2645 55.95C58.3672 55.9127 58.4745 55.9547 58.5865 56.076C58.6985 56.1973 58.7732 56.3373 58.8105 56.496C58.9692 57.4387 59.1045 58.3813 59.2165 59.324C59.3379 60.2667 59.4545 61.2093 59.5665 62.152C59.5852 62.3293 59.5525 62.4787 59.4685 62.6C59.3845 62.712 59.2912 62.768 59.1885 62.768ZM65.4934 58.778C65.5308 58.8713 65.4934 58.9647 65.3814 59.058C65.2694 59.142 65.0921 59.198 64.8494 59.226C64.4294 59.282 64.0001 59.3427 63.5614 59.408C63.1228 59.464 62.6748 59.5247 62.2174 59.59C62.1988 60.066 62.1988 60.542 62.2174 61.018C62.4321 61.018 62.6888 60.9993 62.9874 60.962C63.2954 60.9153 63.6081 60.8593 63.9254 60.794C64.2428 60.7287 64.5461 60.6633 64.8354 60.598C65.1341 60.5233 65.3861 60.4627 65.5914 60.416C65.6941 60.388 65.8014 60.3693 65.9134 60.36C66.0254 60.3413 66.1234 60.3413 66.2074 60.36C66.3008 60.3693 66.3754 60.402 66.4314 60.458C66.4874 60.514 66.5154 60.5933 66.5154 60.696C66.5154 60.724 66.4828 60.766 66.4174 60.822C66.3521 60.878 66.2681 60.9387 66.1654 61.004C66.0721 61.06 65.9694 61.116 65.8574 61.172C65.7548 61.2187 65.6614 61.256 65.5774 61.284C64.9988 61.4707 64.4294 61.634 63.8694 61.774C63.3094 61.9047 62.7634 61.9747 62.2314 61.984C61.9234 61.9933 61.6901 61.914 61.5314 61.746C61.3728 61.5687 61.2888 61.3167 61.2794 60.99C61.2608 60.5327 61.2608 60.0707 61.2794 59.604C61.1208 59.5107 61.0414 59.38 61.0414 59.212C61.0601 59.0347 61.1441 58.9133 61.2934 58.848C61.3121 58.5773 61.3261 58.3067 61.3354 58.036C61.3448 57.756 61.3588 57.4807 61.3774 57.21C61.2748 57.1913 61.1814 57.14 61.0974 57.056C61.0228 56.972 60.9854 56.8787 60.9854 56.776C60.9854 56.692 61.0041 56.6173 61.0414 56.552C61.0788 56.4773 61.1488 56.4213 61.2514 56.384C61.4194 56.3467 61.6248 56.3047 61.8674 56.258C62.1101 56.2113 62.3574 56.1693 62.6094 56.132C62.8708 56.0947 63.1181 56.062 63.3514 56.034C63.5941 56.006 63.7994 55.9873 63.9674 55.978C64.1634 55.9593 64.3501 55.978 64.5274 56.034C64.7141 56.09 64.8868 56.1973 65.0454 56.356C65.0828 56.4867 65.0548 56.5847 64.9614 56.65C64.8774 56.7153 64.7654 56.7573 64.6254 56.776C64.4854 56.7947 64.3174 56.818 64.1214 56.846C63.9254 56.8647 63.7201 56.888 63.5054 56.916C63.3001 56.944 63.0901 56.972 62.8754 57C62.6701 57.0187 62.4741 57.042 62.2874 57.07C62.2874 57.0887 62.2874 57.112 62.2874 57.14C62.2968 57.1587 62.3014 57.1773 62.3014 57.196C62.2828 57.4387 62.2688 57.6813 62.2594 57.924C62.2501 58.1667 62.2408 58.4093 62.2314 58.652C62.6234 58.5867 63.0248 58.5307 63.4354 58.484C63.8461 58.428 64.1728 58.3907 64.4154 58.372C64.6114 58.3533 64.8028 58.3767 64.9894 58.442C65.1761 58.5073 65.3441 58.6193 65.4934 58.778Z" fill="white"/>
<path d="M38 27C38 29.7874 39 32.5579 39 35.34" stroke="white" stroke-width="2" stroke-linecap="round"/>
<path d="M46 26C46 29.1216 47 32.2243 47 35.34" stroke="white" stroke-width="2" stroke-linecap="round"/>
<path d="M28 39C29.0606 49.0402 55.7167 51.3028 58.5449 39" stroke="white" stroke-width="2" stroke-linecap="round"/>
</svg>
