<svg width="48" height="48" viewBox="0 0 48 48" fill="none" xmlns="http://www.w3.org/2000/svg">
<path fill-rule="evenodd" clip-rule="evenodd" d="M25.0287 2.01084C33.4937 2.25143 40.2069 8.22427 43.1242 16.1744C46.4925 25.3534 47.5707 36.4585 39.8893 42.5079C31.4668 49.1411 19.372 48.0764 10.8113 41.6225C2.69757 35.5057 0.0311989 24.6109 3.46381 15.0471C6.60093 6.30664 15.746 1.747 25.0287 2.01084Z" fill="#FFA070"/>
<path d="M18.625 14.25C18.625 16.3514 18.8359 18.4593 19.0625 20.5486C19.1875 21.7015 19.5 25.1597 19.5 24" stroke="white" stroke-width="2" stroke-linecap="round"/>
<path d="M25.375 13.125C25.375 14.3565 25.375 15.588 25.375 16.8194C25.375 18.1781 25.625 19.5046 25.625 20.8681C25.625 21.6858 25.75 22.463 25.75 23.25" stroke="white" stroke-width="2" stroke-linecap="round"/>
<path d="M15.625 30.375C18.9277 30.375 22.3131 31.1003 25.2917 32.5625C26.2899 33.0526 27.2655 33.7655 28.0556 34.5556C28.3826 34.8826 29.0553 35.3606 29.25 35.75" stroke="white" stroke-width="2" stroke-linecap="round"/>
</svg>
