<svg width="48" height="48" viewBox="0 0 48 48" fill="none" xmlns="http://www.w3.org/2000/svg">
<circle cx="24" cy="24" r="22.5" fill="white" stroke="#FF7563" stroke-width="3"/>
<path d="M32.4915 37C33.3246 37 34.0116 36.3208 33.8864 35.4972C33.7654 34.701 33.5484 33.9206 33.2388 33.1732C32.7362 31.9599 31.9997 30.8575 31.0711 29.9289C30.1425 29.0003 29.0401 28.2638 27.8268 27.7612C26.6136 27.2587 25.3132 27 24 27C22.6868 27 21.3864 27.2587 20.1732 27.7612C18.9599 28.2638 17.8575 29.0003 16.9289 29.9289C16.0003 30.8575 15.2638 31.9599 14.7612 33.1732C14.4516 33.9206 14.2346 34.701 14.1136 35.4972C13.9884 36.3208 14.6754 37 15.5085 37V37C16.3417 37 17.0008 36.3169 17.1794 35.5031C17.2674 35.1022 17.3908 34.7088 17.5486 34.3278C17.8996 33.4806 18.4139 32.7108 19.0623 32.0623C19.7108 31.4139 20.4806 30.8996 21.3278 30.5486C22.175 30.1977 23.083 30.0171 24 30.0171C24.917 30.0171 25.825 30.1977 26.6722 30.5486C27.5194 30.8996 28.2892 31.4139 28.9377 32.0623C29.5861 32.7108 30.1004 33.4806 30.4514 34.3278C30.6092 34.7088 30.7326 35.1022 30.8206 35.5031C30.9992 36.3169 31.6583 37 32.4915 37V37Z" fill="#FF7563"/>
<circle cx="15.5" cy="19.5" r="4.5" fill="#FF7563"/>
<circle cx="32.5" cy="19.5" r="4.5" fill="#FF7563"/>
</svg>
