<svg width="207" height="230" viewBox="0 0 207 230" fill="none" xmlns="http://www.w3.org/2000/svg">
<g clip-path="url(#clip0_57_94)">
<path d="M196.364 216.789C195.08 217.24 193.701 217.353 192.36 217.117C191.019 216.881 189.762 216.304 188.709 215.44C186.027 213.19 185.186 209.482 184.503 206.049L182.479 195.894L186.715 198.81C189.762 200.908 192.876 203.073 194.985 206.111C197.095 209.149 198.015 213.297 196.321 216.584" fill="#5DCF36"/>
<path d="M196.002 229.083C196.431 225.96 196.872 222.797 196.571 219.641C196.304 216.838 195.449 214.1 193.708 211.855C192.784 210.666 191.659 209.646 190.385 208.844C190.052 208.634 189.747 209.161 190.077 209.369C192.282 210.763 193.988 212.821 194.948 215.246C196.008 217.943 196.179 220.883 195.994 223.748C195.884 225.481 195.65 227.201 195.414 228.921C195.395 228.999 195.406 229.081 195.446 229.151C195.485 229.22 195.55 229.272 195.626 229.296C195.704 229.317 195.787 229.306 195.857 229.266C195.928 229.226 195.979 229.16 196.001 229.083L196.002 229.083Z" fill="#119205"/>
<path d="M180.65 177.213H3.43628V0H180.65V177.213Z" fill="white"/>
<path d="M180.65 177.213H3.43628V0H180.65V177.213ZM6.05458 174.595H178.032V2.61832H6.05458V174.595Z" fill="#1158BF"/>
<path d="M149.256 27.7251H72.5151V30.1156H149.256V27.7251Z" fill="#1158BF"/>
<path d="M149.256 33.9404H72.5151V36.3309H149.256V33.9404Z" fill="#1158BF"/>
<path d="M149.256 40.1559H72.5151V42.5464H149.256V40.1559Z" fill="#1158BF"/>
<path d="M149.256 81.095H72.5151V83.4855H149.256V81.095Z" fill="#1158BF"/>
<path d="M149.256 87.3104H72.5151V89.7009H149.256V87.3104Z" fill="#1158BF"/>
<path d="M149.256 93.5258H72.5151V95.9163H149.256V93.5258Z" fill="#1158BF"/>
<path d="M149.256 134.465H72.5151V136.855H149.256V134.465Z" fill="#1158BF"/>
<path d="M149.256 140.68H72.5151V143.071H149.256V140.68Z" fill="#1158BF"/>
<path d="M149.256 146.896H72.5151V149.286H149.256V146.896Z" fill="#1158BF"/>
<path d="M41.7938 46.7715C40.4828 46.0806 39.1144 45.5048 37.7039 45.0503L37.5241 43.0608L30.2299 42.2749L29.3029 44.8179L26.6852 45.8002C26.5915 45.8357 26.5024 45.8822 26.4196 45.9386H26.4167C26.2706 46.0373 26.1462 46.1648 26.0511 46.3132C25.9559 46.4617 25.892 46.628 25.8633 46.8019C25.8353 46.9749 25.842 47.1517 25.8828 47.3221L26.0211 47.8894C26.2203 48.0084 26.4251 48.1219 26.6298 48.2298L26.7599 48.2962C27.0588 48.4511 27.3632 48.5978 27.6759 48.7334C27.7395 48.7611 27.8087 48.7887 27.8723 48.8164C27.8779 48.8192 27.8806 48.8192 27.8861 48.8219C28.0328 48.8828 28.1794 48.9409 28.3289 48.9963C28.8197 49.1837 29.3204 49.3445 29.8286 49.4778C31.1258 49.8235 32.4626 49.9984 33.8051 49.998C34.2948 49.998 34.7791 49.9758 35.2578 49.9288C36.3516 49.8278 37.4315 49.6098 38.4788 49.2785C38.4815 49.2785 38.4843 49.2758 38.487 49.2758C39.1486 49.065 39.7949 48.8089 40.4213 48.5093C40.424 48.5065 40.4296 48.5065 40.4324 48.5037C40.5735 48.4373 40.7091 48.3654 40.8475 48.2962L40.9138 48.263C41.0245 48.2049 41.1353 48.1468 41.2459 48.0859C41.5227 47.9337 41.7938 47.7732 42.0622 47.6016C42.1369 47.5573 42.2089 47.5103 42.2836 47.4605C42.3887 47.3913 42.4939 47.3194 42.5963 47.2447C42.3389 47.0786 42.0706 46.9209 41.7938 46.7715Z" fill="#3F3D56"/>
<path d="M28.1048 47.9973L27.6482 45.9358H26.4556C26.4435 45.936 26.4315 45.9369 26.4196 45.9386H26.4168C25.9882 45.9748 25.5754 46.1175 25.2159 46.3536C24.9721 46.5093 24.7552 46.7037 24.574 46.9292C24.9281 47.1976 25.2962 47.4466 25.6753 47.6846L25.6919 47.6929C25.7997 47.7593 25.9105 47.8257 26.0212 47.8894C26.2204 48.0084 26.4252 48.1218 26.6299 48.2297L26.76 48.2962C27.0589 48.4511 27.3633 48.5978 27.6759 48.7334C27.7396 48.761 27.8088 48.7887 27.8724 48.8164C27.8779 48.8191 27.8806 48.8192 27.8862 48.8219C28.0329 48.8828 28.1795 48.9409 28.3289 48.9963L28.1048 47.9973Z" fill="#3F3D56"/>
<path d="M33.5907 41.0171C36.492 41.0171 38.844 38.6651 38.844 35.7638C38.844 32.8625 36.492 30.5105 33.5907 30.5105C30.6894 30.5105 28.3374 32.8625 28.3374 35.7638C28.3374 38.6651 30.6894 41.0171 33.5907 41.0171Z" fill="#FFB8B8"/>
<path d="M30.0637 33.2049C30.6075 33.8485 31.5278 34.0301 32.3768 34.1046C34.3616 34.2142 36.3522 34.0517 38.2929 33.6215C38.4132 34.787 38.0853 36.0438 38.7718 37.0026C39.0936 35.8418 39.2808 34.6479 39.3295 33.4443C39.3808 32.9279 39.3133 32.4067 39.1324 31.9203C39.0356 31.6766 38.8725 31.4649 38.6614 31.3093C38.4503 31.1536 38.1998 31.0604 37.9384 31.04C38.3297 30.7431 38.7882 30.5471 39.2732 30.4693L37.6052 29.6311L38.0336 29.1913L35.0137 29.0065L35.8883 28.4508C34.5719 28.27 33.2401 28.2279 31.9148 28.3254C31.2955 28.3257 30.688 28.4946 30.1574 28.8139C29.6588 29.1705 29.3707 29.8792 29.6802 30.4026C29.2927 30.4663 28.9278 30.6278 28.6201 30.8719C28.3125 31.116 28.0723 31.4346 27.9222 31.7975C27.7324 32.3744 27.6866 32.9889 27.7888 33.5875C27.9025 34.548 28.1257 35.4923 28.454 36.402L30.0637 33.2049Z" fill="#2F2E41"/>
<path d="M48.363 30.0691C47.6259 27.9516 46.4358 26.0204 44.8757 24.4102C43.3156 22.7999 41.423 21.5493 39.3299 20.7457C37.2368 19.942 34.9936 19.6046 32.7567 19.7569C30.5198 19.9093 28.343 20.5478 26.3783 21.6278C24.4135 22.7079 22.7079 24.2035 21.3805 26.0104C20.0532 27.8174 19.1359 29.8921 18.6928 32.0899C18.2496 34.2878 18.2912 36.5558 18.8147 38.7359C19.3382 40.9161 20.3309 42.9557 21.7236 44.7128C21.862 44.8871 22.0059 45.0614 22.1526 45.2302C22.1637 45.2413 22.172 45.2524 22.183 45.2634C22.5437 45.679 22.9271 46.0744 23.3314 46.4477C23.4366 46.5446 23.5473 46.6442 23.6579 46.7383C23.8682 46.9265 24.0841 47.1063 24.3082 47.2779C24.3967 47.3471 24.4825 47.4163 24.5739 47.4827C24.928 47.7511 25.2961 48.0001 25.6752 48.2381L25.6918 48.2464C25.7996 48.3128 25.9104 48.3792 26.0211 48.4429C26.2203 48.5619 26.4251 48.6753 26.6298 48.7832L26.7599 48.8496C27.0588 49.0046 27.3632 49.1513 27.6759 49.2868C27.7395 49.3145 27.8087 49.3422 27.8723 49.3699C27.8778 49.3726 27.8805 49.3726 27.8861 49.3754C28.0328 49.4363 28.1794 49.4944 28.3289 49.5497C28.8197 49.7372 29.3204 49.8979 29.8286 50.0312C31.1258 50.3769 32.4626 50.5518 33.805 50.5514C34.2948 50.5514 34.7791 50.5293 35.2578 50.4823C36.3516 50.3813 37.4315 50.1633 38.4788 49.832C38.4815 49.832 38.4843 49.8292 38.487 49.8292C39.1486 49.6184 39.7949 49.3623 40.4213 49.0627C40.424 49.0599 40.4296 49.0599 40.4324 49.0572C40.5735 48.9908 40.7091 48.9188 40.8475 48.8496L40.9138 48.8164C41.0245 48.7583 41.1353 48.7002 41.2459 48.6393C41.5227 48.4871 41.7938 48.3267 42.0622 48.1551C42.1369 48.1108 42.2089 48.0638 42.2836 48.014C42.3887 47.9448 42.4939 47.8728 42.5963 47.7981C42.7318 47.704 42.8674 47.6072 43.0003 47.5076C43.0417 47.4771 43.0861 47.4467 43.1275 47.4135C45.72 45.4458 47.6229 42.7077 48.5634 39.5919C49.5039 36.4761 49.4337 33.1425 48.363 30.0691V30.0691ZM42.6184 46.7411C42.5271 46.813 42.4331 46.8822 42.3389 46.9458C42.2475 47.015 42.1563 47.0814 42.0622 47.1423C41.9819 47.2004 41.9016 47.2558 41.8187 47.3083L41.7938 47.3249C41.7329 47.3665 41.6721 47.4052 41.6112 47.4439C41.3815 47.5878 41.149 47.7262 40.9138 47.859L40.8391 47.9005C40.734 47.9586 40.6289 48.014 40.5238 48.0693C40.5098 48.0776 40.4932 48.0832 40.4794 48.0914L40.4628 48.0998C40.33 48.1689 40.1944 48.2353 40.0588 48.299C39.5356 48.551 38.9967 48.7691 38.4456 48.952C38.3736 48.9769 38.3017 49.0019 38.2298 49.024C37.2385 49.3393 36.2161 49.5471 35.1804 49.6438C34.7265 49.6853 34.2672 49.7075 33.8051 49.7075C32.5353 49.7101 31.2708 49.5445 30.0446 49.2149C29.4152 49.0506 28.7984 48.8417 28.1989 48.5895C28.1683 48.5757 28.1351 48.5646 28.1047 48.5508C28.0716 48.537 28.0411 48.5259 28.0107 48.5121C27.9774 48.4982 27.947 48.4844 27.9138 48.4678C27.6537 48.3543 27.3963 48.2298 27.1446 48.0998L27.0228 48.0361C26.7156 47.8756 26.414 47.7041 26.1207 47.5214C26.0349 47.4688 25.9464 47.4135 25.8633 47.3554C25.8413 47.3416 25.8218 47.3277 25.7997 47.3139C25.6032 47.1838 25.4067 47.0482 25.2158 46.9071C25.0858 46.8102 24.9557 46.7134 24.8284 46.6138C24.6154 46.4533 24.4105 46.2817 24.2114 46.1046C24.1063 46.0161 24.0038 45.9192 23.9043 45.8279C23.5119 45.4657 23.1405 45.0813 22.7919 44.6768C22.6757 44.544 22.5622 44.4112 22.4542 44.2728C22.4297 44.2454 22.4066 44.2168 22.385 44.187C20.5871 41.9183 19.5057 39.1655 19.2787 36.2796C19.0517 33.3938 19.6893 30.5057 21.1104 27.9838C22.5314 25.4618 24.6714 23.4202 27.2574 22.1194C29.8434 20.8186 32.7583 20.3175 35.6302 20.6801C38.5022 21.0426 41.2011 22.2523 43.3828 24.155C45.5644 26.0576 47.1299 28.5669 47.8797 31.3629C48.6294 34.1589 48.5294 37.1148 47.5923 39.8537C46.6553 42.5926 44.9237 44.9903 42.6184 46.7411L42.6184 46.7411Z" fill="#3F3D56"/>
<path d="M48.363 83.4389C47.626 81.3215 46.4359 79.3903 44.8758 77.78C43.3156 76.1698 41.4231 74.9192 39.33 74.1155C37.2369 73.3119 34.9937 72.9745 32.7568 73.1268C30.5199 73.2792 28.3432 73.9176 26.3784 74.9977C24.4136 76.0777 22.708 77.5734 21.3807 79.3803C20.0533 81.1872 19.1361 83.262 18.6929 85.4598C18.2498 87.6576 18.2914 89.9257 18.8148 92.1058C19.3383 94.2859 20.331 96.3256 21.7238 98.0826C21.8621 98.2569 22.006 98.4313 22.1526 98.6001C22.1637 98.6111 22.1719 98.6222 22.183 98.6333C22.5438 99.0488 22.9272 99.4442 23.3315 99.8176C23.4366 99.9145 23.5473 100.014 23.6579 100.108C23.8683 100.296 24.0841 100.476 24.3082 100.648C24.7459 100.993 25.2022 101.313 25.6752 101.608L25.6918 101.616C25.9989 101.807 26.3116 101.984 26.6299 102.153L26.7599 102.22C27.0587 102.374 27.3632 102.521 27.6758 102.657C27.7395 102.684 27.8086 102.712 27.8723 102.74C27.8778 102.742 27.8806 102.742 27.8862 102.745C28.518 103.008 29.167 103.227 29.8287 103.401C31.1259 103.747 32.4626 103.922 33.805 103.921C34.2948 103.921 34.779 103.899 35.2578 103.852C36.3516 103.751 37.4314 103.533 38.4788 103.202C38.4816 103.202 38.4843 103.199 38.487 103.199C39.1486 102.988 39.7949 102.732 40.4213 102.433C40.424 102.43 40.4297 102.43 40.4324 102.427C40.5734 102.361 40.7091 102.289 40.8474 102.219L40.9139 102.186C41.0246 102.128 41.1352 102.07 41.2459 102.009C41.5226 101.857 41.7938 101.696 42.0623 101.525C42.137 101.481 42.2088 101.434 42.2836 101.384C42.527 101.223 42.7678 101.052 43.0002 100.877C43.0418 100.847 43.086 100.817 43.1276 100.783C45.72 98.8155 47.6228 96.0775 48.5633 92.9617C49.5038 89.8459 49.4337 86.5124 48.363 83.4389V83.4389Z" fill="white"/>
<path d="M38.8922 94.8601C40.1682 94.8601 41.2025 93.8257 41.2025 92.5498C41.2025 91.2739 40.1682 90.2395 38.8922 90.2395C37.6163 90.2395 36.5819 91.2739 36.5819 92.5498C36.5819 93.8257 37.6163 94.8601 38.8922 94.8601Z" fill="#2F2E41"/>
<path d="M39.5358 90.3032C39.9357 90.3032 40.3287 90.407 40.6764 90.6044C41.0242 90.8018 41.3147 91.0861 41.5197 91.4294C41.7247 91.7727 41.837 92.1634 41.8458 92.5632C41.8545 92.9629 41.7594 93.3581 41.5697 93.7101C41.7699 93.4595 41.9157 93.1699 41.9979 92.8598C42.08 92.5498 42.0967 92.226 42.0468 91.9091C41.9969 91.5922 41.8816 91.2892 41.7081 91.0194C41.5347 90.7495 41.3069 90.5188 41.0393 90.3418C40.7718 90.1649 40.4703 90.0456 40.1541 89.9916C39.8379 89.9376 39.5139 89.95 39.2028 90.0281C38.8917 90.1062 38.6002 90.2483 38.347 90.4452C38.0938 90.6422 37.8844 90.8897 37.7322 91.1721C37.9482 90.9009 38.2225 90.682 38.5349 90.5315C38.8472 90.3811 39.1894 90.3031 39.5361 90.3032L39.5358 90.3032Z" fill="#2F2E41"/>
<path d="M34.5749 92.5449C38.3231 92.5449 41.3616 89.5064 41.3616 85.7582C41.3616 82.0101 38.3231 78.9716 34.5749 78.9716C30.8267 78.9716 27.7882 82.0101 27.7882 85.7582C27.7882 89.5064 30.8267 92.5449 34.5749 92.5449Z" fill="#2F2E41"/>
<path d="M29.2484 81.5474C30.4178 80.2323 32.0524 79.4229 33.8073 79.2901C35.5621 79.1573 37.2999 79.7115 38.6539 80.8357C38.5986 80.7829 38.5432 80.7297 38.4859 80.6786C37.1453 79.4775 35.3824 78.8583 33.5852 78.957C31.788 79.0557 30.1036 79.8644 28.9026 81.205C27.7015 82.5457 27.0823 84.3085 27.181 86.1058C27.2797 87.903 28.0884 89.5874 29.429 90.7884C29.4419 90.8 29.4548 90.8115 29.4678 90.8229C29.5254 90.8741 29.5846 90.9225 29.6435 90.9715C28.3685 89.7585 27.6146 88.0976 27.5409 86.3393C27.4672 84.581 28.0796 82.8628 29.2487 81.5474L29.2484 81.5474Z" fill="#2F2E41"/>
<path d="M34.5173 92.4873C36.9314 92.4873 38.8883 90.5304 38.8883 88.1163C38.8883 85.7023 36.9314 83.7454 34.5173 83.7454C32.1033 83.7454 30.1464 85.7023 30.1464 88.1163C30.1464 90.5304 32.1033 92.4873 34.5173 92.4873Z" fill="#A0616A"/>
<path d="M42.339 99.5049V100.971C42.0705 101.143 41.7993 101.304 41.5226 101.456C41.412 101.517 41.3013 101.575 41.1907 101.633L41.1242 101.666C40.9858 101.735 40.8502 101.807 40.7091 101.874C40.7064 101.876 40.7007 101.876 40.698 101.879C40.0716 102.179 39.4253 102.435 38.7637 102.646C38.761 102.646 38.7583 102.648 38.7555 102.648C37.7082 102.98 36.6283 103.198 35.5345 103.299C35.0558 103.346 34.5715 103.368 34.0817 103.368C32.7393 103.368 31.4026 103.193 30.1055 102.848C29.4437 102.674 28.7947 102.455 28.1629 102.192C28.1574 102.189 28.1545 102.189 28.149 102.186C28.0854 102.159 28.0162 102.131 27.9525 102.103C27.6399 101.968 27.3355 101.821 27.0366 101.666L26.9066 101.6C26.5883 101.431 26.2756 101.254 25.9685 101.063L25.9519 101.054C25.4789 100.76 25.0226 100.439 24.5849 100.094C24.3608 99.9227 24.145 99.7429 23.9346 99.5547C23.824 99.4606 23.7133 99.361 23.6082 99.2642C23.2039 98.8908 22.8205 98.4954 22.4597 98.0798C22.5076 97.7916 22.5779 97.5076 22.6701 97.2303L22.6728 97.2276C22.6894 97.1803 22.7088 97.1341 22.7309 97.0892C22.7462 97.0495 22.7637 97.0107 22.7835 96.973C23.2788 96.046 24.1754 95.8163 25.2878 95.7665C25.916 95.7388 26.6104 95.7693 27.3438 95.761C27.7312 95.7582 28.1324 95.7444 28.5337 95.7084C31.0656 95.4787 30.6063 93.9845 30.7197 93.1792C30.8332 92.3989 31.5361 93.0741 31.5831 93.1184L31.5858 93.1212C33.0186 93.7917 34.6038 94.0696 36.1793 93.9264C36.4505 93.8932 36.7216 93.8738 36.9928 93.8655C37.7067 93.8572 37.5518 94.062 37.3056 94.2308C37.1861 94.3094 37.0612 94.3797 36.932 94.4411C36.932 94.4411 36.8185 95.1329 36.7023 96.1678C36.5917 97.1584 38.4899 97.6233 38.6476 97.6592C38.6508 97.6614 38.6547 97.6624 38.6586 97.662C39.3519 97.4822 40.0817 97.5014 40.7645 97.7173H40.7672C41.1574 97.8608 41.5055 98.0995 41.78 98.4116C42.0545 98.7238 42.2466 99.0996 42.339 99.5049V99.5049Z" fill="#FF7563"/>
<path d="M28.1905 101.284C28.1905 101.489 28.1851 101.685 28.1767 101.871C28.174 101.982 28.1685 102.089 28.163 102.192C28.1574 102.189 28.1546 102.189 28.149 102.186C28.0854 102.159 28.0162 102.131 27.9526 102.103C27.6399 101.968 27.3355 101.821 27.0366 101.666L26.9067 101.6C26.5883 101.431 26.2757 101.254 25.9686 101.063C25.9768 100.966 25.9907 100.869 26.0045 100.772C26.0349 100.559 26.0599 100.343 26.0765 100.13C26.1853 98.6334 25.914 97.1333 25.2878 95.7693V95.7665C25.2324 95.6558 25.1993 95.5949 25.1993 95.5949C25.1993 95.5949 26.0045 94.9031 27.1528 95.5949C27.2262 95.638 27.291 95.6943 27.3439 95.761C28.0357 96.5773 28.2238 99.3223 28.1905 101.284Z" fill="#2F2E41"/>
<path d="M40.7561 100.908C40.745 101.218 40.7284 101.541 40.7091 101.871V101.874C40.7064 101.876 40.7007 101.876 40.698 101.879C40.0716 102.179 39.4253 102.435 38.7637 102.646C38.761 102.646 38.7583 102.648 38.7555 102.648L38.7251 101.871L38.7222 101.768L38.5756 97.983C38.5717 97.8973 38.5852 97.8117 38.6152 97.7313C38.6453 97.651 38.6914 97.5776 38.7506 97.5155C38.8098 97.4535 38.881 97.404 38.9598 97.3702C39.0387 97.3364 39.1235 97.319 39.2093 97.3188H40.6122C40.6814 97.3188 40.7312 97.46 40.7645 97.7145V97.7173C40.8325 98.7798 40.8297 99.8457 40.7561 100.908V100.908Z" fill="#2F2E41"/>
<path d="M30.7789 82.6526V87.0246H31.7912L33.0793 85.6444L32.9069 87.0246H37.3814L37.1046 85.6444L37.6581 87.0246H38.3714V82.6526H30.7789Z" fill="#2F2E41"/>
<path d="M30.0887 87.8289C30.2793 87.8289 30.4338 87.5456 30.4338 87.1963C30.4338 86.8469 30.2793 86.5637 30.0887 86.5637C29.8981 86.5637 29.7437 86.8469 29.7437 87.1963C29.7437 87.5456 29.8981 87.8289 30.0887 87.8289Z" fill="#A0616A"/>
<path d="M38.9461 87.8289C39.1367 87.8289 39.2912 87.5456 39.2912 87.1963C39.2912 86.8469 39.1367 86.5637 38.9461 86.5637C38.7556 86.5637 38.6011 86.8469 38.6011 87.1963C38.6011 87.5456 38.7556 87.8289 38.9461 87.8289Z" fill="#A0616A"/>
<path d="M43.2769 100.324C43.0446 100.498 42.8038 100.67 42.5603 100.83C42.4856 100.88 42.4137 100.927 42.339 100.972C42.0705 101.143 41.7994 101.304 41.5226 101.456C41.412 101.517 41.3013 101.575 41.1907 101.633V98.5835C41.1907 98.5835 41.6333 98.9377 42.339 99.5271C42.4275 99.6018 42.5188 99.6793 42.6157 99.7623C42.8204 99.9339 43.0419 100.122 43.2769 100.324Z" fill="#FF7563"/>
<path d="M48.363 83.4389C47.626 81.3215 46.4359 79.3903 44.8758 77.78C43.3156 76.1698 41.4231 74.9192 39.33 74.1155C37.2369 73.3119 34.9937 72.9745 32.7568 73.1268C30.5199 73.2792 28.3432 73.9176 26.3784 74.9977C24.4136 76.0777 22.708 77.5734 21.3807 79.3803C20.0533 81.1872 19.1361 83.262 18.6929 85.4598C18.2498 87.6576 18.2914 89.9257 18.8148 92.1058C19.3383 94.2859 20.331 96.3256 21.7238 98.0826C21.8621 98.2569 22.006 98.4313 22.1526 98.6001C22.1637 98.6111 22.1719 98.6222 22.183 98.6333C22.5438 99.0488 22.9272 99.4442 23.3315 99.8176C23.4366 99.9145 23.5473 100.014 23.6579 100.108C23.8683 100.296 24.0841 100.476 24.3082 100.648C24.7459 100.993 25.2022 101.313 25.6752 101.608L25.6918 101.616C25.9989 101.807 26.3116 101.984 26.6299 102.153L26.7599 102.22C27.0587 102.374 27.3632 102.521 27.6758 102.657C27.7395 102.684 27.8086 102.712 27.8723 102.74C27.8778 102.742 27.8806 102.742 27.8862 102.745C28.518 103.008 29.167 103.227 29.8287 103.401C31.1259 103.747 32.4626 103.922 33.805 103.921C34.2948 103.921 34.779 103.899 35.2578 103.852C36.3516 103.751 37.4314 103.533 38.4788 103.202C38.4816 103.202 38.4843 103.199 38.487 103.199C39.1486 102.988 39.7949 102.732 40.4213 102.433C40.424 102.43 40.4297 102.43 40.4324 102.427C40.5734 102.361 40.7091 102.289 40.8474 102.219L40.9139 102.186C41.0246 102.128 41.1352 102.07 41.2459 102.009C41.5226 101.857 41.7938 101.696 42.0623 101.525C42.137 101.481 42.2088 101.434 42.2836 101.384C42.527 101.223 42.7678 101.052 43.0002 100.877C43.0418 100.847 43.086 100.817 43.1276 100.783C45.72 98.8155 47.6228 96.0775 48.5633 92.9617C49.5038 89.8459 49.4337 86.5124 48.363 83.4389V83.4389ZM42.6184 100.111C42.527 100.183 42.433 100.252 42.339 100.316C42.2476 100.385 42.1563 100.451 42.0623 100.512C41.982 100.57 41.9018 100.626 41.8187 100.678C41.7495 100.725 41.6803 100.77 41.6111 100.814C41.3815 100.958 41.1491 101.096 40.9139 101.229L40.8391 101.27C40.7339 101.328 40.6288 101.384 40.5237 101.439C40.5098 101.447 40.4932 101.453 40.4794 101.461L40.4628 101.47C40.33 101.539 40.1944 101.605 40.0588 101.669C39.5356 101.921 38.9967 102.139 38.4455 102.322C38.3736 102.347 38.3016 102.372 38.2298 102.394C37.2384 102.709 36.2161 102.917 35.1803 103.014C34.7265 103.055 34.2671 103.077 33.805 103.077C32.5353 103.08 31.2708 102.914 30.0445 102.585C29.4152 102.42 28.7984 102.211 28.1988 101.959C28.1352 101.934 28.0716 101.907 28.0106 101.882C27.9775 101.868 27.947 101.854 27.9138 101.838C27.6537 101.724 27.3964 101.6 27.1446 101.47L27.0228 101.406C26.7157 101.245 26.414 101.074 26.1207 100.891C26.0128 100.825 25.9049 100.756 25.7998 100.684C25.4676 100.465 25.1439 100.23 24.8284 99.9836C24.6153 99.8231 24.4106 99.6515 24.2113 99.4745C24.1062 99.3859 24.0038 99.2891 23.9042 99.1978C23.5119 98.8355 23.1405 98.4511 22.7918 98.0466C22.6756 97.9138 22.5622 97.781 22.4542 97.6426C22.4296 97.6153 22.4065 97.5866 22.385 97.5569C20.5871 95.2881 19.5057 92.5353 19.2787 89.6495C19.0517 86.7636 19.6893 83.8756 21.1103 81.3536C22.5314 78.8317 24.6713 76.7901 27.2574 75.4893C29.8434 74.1885 32.7582 73.6874 35.6302 74.0499C38.5022 74.4125 41.2011 75.6222 43.3827 77.5248C45.5644 79.4274 47.1299 81.9367 47.8796 84.7327C48.6293 87.5287 48.5293 90.4846 47.5923 93.2235C46.6552 95.9624 44.9237 98.3601 42.6184 100.111V100.111Z" fill="#3F3D56"/>
<path d="M33.8921 148.804C37.2278 148.804 39.9318 146.1 39.9318 142.765C39.9318 139.429 37.2278 136.725 33.8921 136.725C30.5565 136.725 27.8524 139.429 27.8524 142.765C27.8524 146.1 30.5565 148.804 33.8921 148.804Z" fill="#2F2E41"/>
<path d="M29.1779 139.508C30.1539 138.532 30.3517 137.148 29.6197 136.416C28.8877 135.684 27.5031 135.881 26.5271 136.857C25.5511 137.833 25.3533 139.218 26.0853 139.95C26.8173 140.682 28.2019 140.484 29.1779 139.508Z" fill="#2F2E41"/>
<path d="M40.1871 137.59C40.5938 136.638 39.8945 135.427 38.6251 134.885C37.3558 134.342 35.9972 134.675 35.5906 135.627C35.1839 136.579 35.8832 137.79 37.1525 138.332C38.4218 138.874 39.7805 138.542 40.1871 137.59Z" fill="#2F2E41"/>
<path d="M41.1166 154.48L40.405 153.36C40.103 152.686 39.5461 152.158 38.8561 151.894C38.1661 151.629 37.3994 151.649 36.7238 151.948C36.0482 152.248 35.5188 152.803 35.2516 153.492C34.9844 154.181 35.0011 154.947 35.2982 155.624L35.5005 156.35L35.7308 157.173C36.6631 157.055 37.583 156.854 38.4795 156.573C38.4821 156.573 38.4846 156.571 38.4865 156.569C39.1491 156.36 39.7961 156.103 40.4225 155.802C40.4259 155.799 40.4293 155.799 40.4329 155.795C40.5724 155.729 40.7085 155.659 40.848 155.589C40.8708 155.579 40.8929 155.567 40.9143 155.554C41.0258 155.499 41.1375 155.439 41.2457 155.38C41.3573 155.321 41.4654 155.258 41.57 155.192L41.1166 154.48Z" fill="#CACACA"/>
<path d="M34.0837 149.332C36.9146 149.332 39.2096 147.037 39.2096 144.206C39.2096 141.375 36.9146 139.081 34.0837 139.081C31.2528 139.081 28.9579 141.375 28.9579 144.206C28.9579 147.037 31.2528 149.332 34.0837 149.332Z" fill="#FFB6B6"/>
<path d="M41.4863 154.26C40.9209 153.32 40.219 152.469 39.4037 151.735C38.8453 151.236 38.1225 150.96 37.3736 150.96H30.1529C29.7369 150.96 29.3252 151.045 28.9433 151.211C28.5615 151.376 28.2175 151.618 27.9328 151.921C27.6481 152.224 27.4286 152.583 27.2878 152.974C27.1471 153.366 27.0882 153.782 27.1147 154.197C27.1305 154.432 27.1726 154.663 27.2404 154.888C27.2919 155.051 27.356 155.21 27.4322 155.363L27.788 156.074C27.8159 156.085 27.8438 156.099 27.8716 156.109C27.8786 156.113 27.8822 156.113 27.8856 156.116C28.032 156.175 28.1787 156.235 28.3286 156.29C28.8194 156.478 29.3202 156.639 29.8286 156.772C30.647 156.992 31.4824 157.142 32.3261 157.222C32.818 157.267 33.3098 157.292 33.8052 157.292C34.297 157.292 34.7784 157.267 35.2597 157.222C35.4168 157.208 35.5736 157.19 35.7307 157.173C36.6629 157.055 37.5828 156.854 38.4793 156.573C38.482 156.573 38.4845 156.571 38.4863 156.569C39.149 156.36 39.796 156.103 40.4224 155.802C40.4258 155.799 40.4292 155.799 40.4328 155.795C40.5723 155.729 40.7084 155.659 40.8479 155.589C40.8707 155.579 40.8928 155.567 40.9141 155.554C41.0257 155.499 41.1374 155.439 41.2456 155.38C41.3571 155.321 41.4652 155.258 41.5699 155.192C41.6816 155.132 41.7862 155.066 41.8943 155C41.7619 154.738 41.6258 154.494 41.4863 154.26Z" fill="#CACACA"/>
<path d="M31.4611 151.895C30.7929 151.583 30.0281 151.547 29.3339 151.797C28.6398 152.047 28.0727 152.561 27.7567 153.228L27.1147 154.197L26.8078 154.661L26.3405 155.366C26.4381 155.418 26.5322 155.471 26.63 155.523L26.7589 155.589C27.059 155.743 27.3624 155.889 27.6765 156.025C27.7112 156.043 27.7497 156.057 27.788 156.074C27.816 156.085 27.8439 156.099 27.8717 156.109C27.8786 156.112 27.8822 156.112 27.8856 156.116C28.0321 156.175 28.1787 156.235 28.3286 156.29C28.8195 156.478 29.3203 156.639 29.8287 156.772C30.6471 156.992 31.4825 157.142 32.3261 157.222L32.5704 156.395L32.8076 155.607C33.1203 154.936 33.1542 154.168 32.9017 153.473C32.6493 152.777 32.1312 152.21 31.4611 151.895V151.895Z" fill="#CACACA"/>
<path d="M28.6976 140.982C29.869 141.79 31.2592 142.219 32.6818 142.214C32.1744 142.565 31.5967 142.803 30.9885 142.91C32.88 143.316 34.8348 143.327 36.7306 142.942C37.1521 142.875 37.5587 142.735 37.9327 142.53C38.1191 142.426 38.2814 142.283 38.4093 142.112C38.5371 141.941 38.6275 141.746 38.6746 141.537C38.8006 140.818 38.2398 140.164 37.657 139.723C36.7647 139.059 35.7359 138.601 34.645 138.383C33.5541 138.165 32.4283 138.192 31.3492 138.463C30.6302 138.607 29.9759 138.977 29.4811 139.518C29.2416 139.794 29.0971 140.139 29.0688 140.503C29.0405 140.867 29.1299 141.23 29.3239 141.539L28.6976 140.982Z" fill="#2F2E41"/>
<path d="M48.3649 136.809C47.628 134.691 46.438 132.76 44.8779 131.149C43.3178 129.539 41.4252 128.288 39.332 127.484C37.2388 126.68 34.9954 126.343 32.7584 126.495C30.5213 126.647 28.3444 127.286 26.3795 128.366C24.4145 129.446 22.7089 130.942 21.3814 132.749C20.054 134.556 19.1367 136.631 18.6937 138.829C18.2506 141.027 18.2923 143.295 18.8159 145.475C19.3395 147.655 20.3325 149.695 21.7255 151.452C21.8614 151.627 22.0081 151.801 22.1545 151.969C22.1629 151.981 22.1723 151.993 22.1825 152.003C22.5437 152.419 22.928 152.814 23.3335 153.186C23.4381 153.284 23.5463 153.385 23.658 153.479C23.8672 153.667 24.0835 153.845 24.3102 154.016C24.3974 154.086 24.4846 154.156 24.5754 154.222C24.9276 154.491 25.2974 154.738 25.6741 154.979C25.6806 154.979 25.6867 154.981 25.6915 154.986C25.7996 155.052 25.9114 155.118 26.0229 155.181C26.1275 155.244 26.2357 155.307 26.3404 155.366C26.438 155.418 26.5322 155.471 26.63 155.523L26.7589 155.589C27.059 155.743 27.3624 155.889 27.6764 156.025C27.7112 156.043 27.7497 156.057 27.788 156.074C27.8159 156.085 27.8439 156.099 27.8716 156.109C27.8786 156.113 27.8822 156.113 27.8856 156.116C28.032 156.175 28.1787 156.235 28.3286 156.29C28.8195 156.478 29.3202 156.639 29.8286 156.772C30.647 156.992 31.4824 157.142 32.3261 157.222C32.818 157.267 33.3099 157.292 33.8052 157.292C34.2971 157.292 34.7784 157.267 35.2597 157.222C35.4168 157.208 35.5736 157.19 35.7307 157.173C36.6629 157.055 37.5828 156.854 38.4793 156.573C38.482 156.573 38.4845 156.571 38.4863 156.569C39.149 156.36 39.796 156.103 40.4224 155.802C40.4258 155.799 40.4292 155.799 40.4328 155.795C40.5723 155.729 40.7083 155.659 40.8479 155.589C40.8706 155.579 40.8928 155.567 40.9141 155.554C41.0257 155.499 41.1374 155.439 41.2456 155.38C41.3571 155.321 41.4652 155.258 41.5699 155.192C41.6816 155.132 41.7862 155.066 41.8943 155C41.9502 154.965 42.006 154.93 42.0618 154.895C42.1386 154.85 42.2082 154.804 42.2851 154.752C42.3896 154.686 42.4944 154.613 42.5954 154.539C42.7315 154.445 42.8676 154.347 43.0001 154.246C43.0447 154.217 43.0878 154.186 43.1292 154.152C45.7196 152.183 47.621 149.445 48.5614 146.33C49.5018 143.215 49.433 139.882 48.3649 136.809L48.3649 136.809ZM42.6199 153.479C42.5291 153.552 42.435 153.622 42.3409 153.685C42.2466 153.754 42.156 153.821 42.0618 153.884C41.9815 153.939 41.9013 153.995 41.8177 154.048C41.8101 154.054 41.8019 154.06 41.7932 154.065C41.7339 154.107 41.6711 154.145 41.6118 154.184C41.5699 154.208 41.5282 154.236 41.4863 154.26C41.3641 154.337 41.242 154.41 41.1165 154.48C41.0502 154.522 40.9804 154.56 40.9141 154.599C40.8898 154.613 40.8653 154.627 40.8409 154.641C40.7327 154.7 40.6281 154.752 40.5234 154.808C40.5096 154.818 40.4921 154.822 40.4817 154.832C40.4752 154.832 40.469 154.835 40.4641 154.839C40.3316 154.909 40.1955 154.975 40.0596 155.038C39.5359 155.29 38.9963 155.508 38.4444 155.69C38.3748 155.715 38.3015 155.743 38.2317 155.764C37.3421 156.046 36.4275 156.242 35.5004 156.35C35.3958 156.364 35.2877 156.374 35.1795 156.385C34.7261 156.426 34.2691 156.447 33.8052 156.447C33.3935 156.447 32.9784 156.43 32.5703 156.395C31.7171 156.324 30.872 156.177 30.045 155.956C29.4154 155.791 28.7987 155.582 28.1997 155.328C28.1682 155.314 28.1368 155.303 28.1055 155.289C28.0706 155.275 28.0426 155.265 28.0113 155.251C27.9764 155.237 27.9485 155.223 27.9135 155.206C27.6868 155.108 27.4601 155 27.2404 154.888C27.2089 154.871 27.1776 154.857 27.1462 154.839L27.0241 154.777C26.9509 154.738 26.8776 154.7 26.8078 154.661C26.5741 154.536 26.3439 154.4 26.1207 154.26C26.0369 154.208 25.9463 154.152 25.8625 154.096L25.7997 154.054C25.6043 153.922 25.4091 153.789 25.2172 153.646C25.0881 153.549 24.9555 153.455 24.83 153.353C24.6173 153.193 24.4114 153.022 24.2126 152.844C24.1079 152.757 24.0033 152.659 23.9057 152.569C23.5129 152.207 23.1413 151.822 22.793 151.417C22.6778 151.285 22.5627 151.152 22.4545 151.013C22.4302 150.985 22.4092 150.957 22.3847 150.926C20.5864 148.657 19.5046 145.904 19.2774 143.017C19.0501 140.131 19.6877 137.243 21.1087 134.72C22.5298 132.198 24.6699 130.156 27.2562 128.855C29.8425 127.554 32.7578 127.052 35.6301 127.415C38.5025 127.777 41.2018 128.987 43.3838 130.89C45.5658 132.793 47.1316 135.302 47.8816 138.099C48.6315 140.895 48.5315 143.851 47.5944 146.59C46.6573 149.33 44.9255 151.728 42.62 153.479H42.6199Z" fill="#3F3D56"/>
<path d="M59.595 61.4935C54.2273 56.9642 47.6589 54.0927 40.689 53.2284C33.7191 52.3641 26.6483 53.5443 20.3369 56.6253C14.0255 59.7063 8.74573 64.5553 5.13997 70.5823C1.53422 76.6093 -0.242017 83.5544 0.0274081 90.5725C0.296833 97.5905 2.6003 104.379 6.65751 110.112C10.7147 115.845 16.3508 120.275 22.8798 122.863C29.4088 125.451 36.5493 126.085 43.4324 124.689C50.3155 123.293 56.6444 119.926 61.649 114.999L106.089 152.497C106.766 153.066 107.64 153.343 108.521 153.268C109.401 153.193 110.216 152.772 110.787 152.097C111.357 151.422 111.637 150.548 111.565 149.668C111.492 148.787 111.073 147.971 110.4 147.398L110.395 147.394L65.9551 109.896C71.1176 102.486 73.3271 93.4162 72.1506 84.4627C70.9741 75.5091 66.4964 67.3177 59.595 61.4935V61.4935ZM56.7301 106.285C53.268 110.388 48.667 113.372 43.5089 114.86C38.3507 116.348 32.8672 116.273 27.7516 114.645C22.6361 113.017 18.1183 109.908 14.7695 105.712C11.4208 101.516 9.39152 96.421 8.93833 91.0717C8.48514 85.7224 9.62838 80.3589 12.2235 75.6593C14.8186 70.9597 18.749 67.1353 23.5177 64.6695C28.2864 62.2037 33.6792 61.2074 39.0142 61.8065C44.3491 62.4056 49.3866 64.5732 53.4896 68.0353V68.0353C58.9915 72.6778 62.4239 79.3158 63.0316 86.489C63.6393 93.6622 61.3726 100.783 56.7301 106.285V106.285Z" fill="#3F3D56"/>
<path opacity="0.3" d="M18.4804 109.525C13.2732 105.131 9.90898 98.9394 9.05569 92.1796C8.20241 85.4197 9.9225 78.5861 13.8744 73.0358C13.3554 73.5584 12.8537 74.1058 12.3692 74.6779C10.0705 77.4022 8.33086 80.5526 7.24964 83.9492C6.16843 87.3458 5.76681 90.922 6.06772 94.4739C6.36862 98.0257 7.36617 101.483 9.00339 104.65C10.6406 107.816 12.8854 110.629 15.6097 112.928C18.334 115.226 21.4844 116.966 24.881 118.047C28.2776 119.128 31.8539 119.53 35.4057 119.229C38.9575 118.928 42.4153 117.931 45.5816 116.293C48.7479 114.656 51.5607 112.411 53.8595 109.687C54.3428 109.114 54.798 108.528 55.225 107.927C50.4186 112.756 43.9718 115.602 37.1647 115.898C30.3576 116.194 23.688 113.919 18.4804 109.525Z" fill="black"/>
<path d="M149.186 153.899C149.533 153.475 149.783 152.981 149.919 152.45C150.054 151.919 150.071 151.365 149.969 150.827C149.867 150.288 149.648 149.779 149.328 149.334C149.008 148.89 148.594 148.521 148.116 148.254L140.015 115.099L134.106 116.985L142.853 149.914C142.457 150.747 142.381 151.696 142.638 152.582C142.896 153.468 143.469 154.228 144.25 154.719C145.03 155.211 145.964 155.399 146.874 155.247C147.784 155.096 148.606 154.616 149.186 153.899H149.186Z" fill="#FFB6B6"/>
<path d="M144.999 132.692L140.681 136.417L134.639 141.625L131.971 127.972L131.692 126.553L131.472 125.426L137.594 114.762L142.697 115.055L143.046 115.076L143.053 115.153L143.133 115.868L144.18 125.279L144.204 125.506L144.999 132.692Z" fill="#3F3D56"/>
<path d="M116.773 225.365L112.497 225.364L110.462 208.869L116.774 208.87L116.773 225.365Z" fill="#FFB6B6"/>
<path d="M117.864 229.51L104.074 229.51V229.335C104.075 227.912 104.64 226.547 105.647 225.54C106.653 224.534 108.018 223.968 109.442 223.968H109.442L117.864 223.969L117.864 229.51Z" fill="#2F2E41"/>
<path d="M161.422 225.714L157.146 225.713L155.111 209.218L161.423 209.219L161.422 225.714Z" fill="#FFB6B6"/>
<path d="M162.513 229.859L148.724 229.859V229.684C148.724 228.261 149.289 226.896 150.296 225.889C151.302 224.883 152.667 224.317 154.091 224.317H154.091L162.513 224.317L162.513 229.859Z" fill="#2F2E41"/>
<path d="M164.84 219.147L153.329 220.891L136.582 164.215L118.796 221.24L105.889 219.496L122.633 153.22V147.988L124.9 140.139L124.663 138.015L123.013 123.158L122.298 116.716L122.252 116.3C122.213 115.95 122.305 115.599 122.511 115.314C122.717 115.029 123.022 114.831 123.365 114.759V114.759L128.737 113.629H137.517L142.697 115.055L143.053 115.153L143.213 115.198L143.133 115.868L141.919 126.047L141.853 126.605L140.681 136.417L140.423 138.569C150.539 145.895 150.888 153.22 150.888 153.22L164.84 219.147Z" fill="#2F2E41"/>
<path d="M132.066 109.215C136.798 109.215 140.634 105.38 140.634 100.648C140.634 95.9163 136.798 92.0806 132.066 92.0806C127.335 92.0806 123.499 95.9163 123.499 100.648C123.499 105.38 127.335 109.215 132.066 109.215Z" fill="#FFB6B6"/>
<path d="M141.065 136.601L124.117 138.817L124.433 141.238L141.381 139.022L141.065 136.601Z" fill="#3F3D56"/>
<path d="M101.383 139.547C101.545 139.652 101.699 139.769 101.843 139.898L118.606 135.625L119.749 131.581L126.078 132.509L124.749 139.865C124.642 140.459 124.345 141.003 123.902 141.414C123.46 141.825 122.896 142.081 122.295 142.144L102.723 144.205C102.404 144.877 101.888 145.436 101.243 145.807C100.599 146.178 99.8572 146.345 99.1161 146.284C98.375 146.223 97.6699 145.938 97.0947 145.467C96.5195 144.996 96.1014 144.361 95.8959 143.646C95.6905 142.932 95.7075 142.171 95.9447 141.467C96.1819 140.762 96.628 140.146 97.2237 139.701C97.8194 139.256 98.5365 139.003 99.2795 138.975C100.023 138.948 100.756 139.147 101.383 139.547V139.547Z" fill="#FFB6B6"/>
<path d="M127.167 116.942L124.203 114.675C123.401 114.371 122.302 115.235 122.11 116.07L117.924 133.163L126.644 139.441L127.865 137.523L127.167 116.942Z" fill="#3F3D56"/>
<g opacity="0.2">
<path opacity="0.2" d="M144.18 125.279C143.44 125.573 142.685 125.829 141.919 126.047C141.675 126.12 141.424 126.19 141.176 126.256C139.544 126.709 137.866 126.98 136.174 127.065C135.446 127.096 134.716 127.076 133.991 127.006C133.212 126.928 132.442 126.776 131.692 126.552C131.667 126.545 131.639 126.539 131.615 126.532C130.055 126.089 128.625 125.276 127.446 124.163C127.183 123.907 126.937 123.633 126.711 123.343C126.059 122.546 125.581 121.621 125.307 120.628C125.034 119.635 124.97 118.596 125.12 117.577C125.149 117.393 125.189 117.21 125.239 117.03C125.37 116.539 125.544 116.06 125.758 115.599C125.852 115.383 125.957 115.17 126.069 114.961L130.01 113.629H137.517L142.697 115.055L143.046 115.076L143.053 115.153L143.213 115.198L143.133 115.868L144.18 125.279Z" fill="black"/>
</g>
<path d="M125.501 93.5551C123.899 93.3587 122.141 93.4976 120.892 94.5204C119.643 95.5432 119.24 97.6695 120.422 98.7684C121.469 99.7413 123.106 99.5125 124.508 99.7892C125.716 100.06 126.798 100.728 127.581 101.687C128.364 102.645 128.803 103.839 128.828 105.076C128.807 108.625 125.401 111.313 124.789 114.809C124.371 117.194 125.378 119.705 127.117 121.391C128.857 123.076 131.249 123.987 133.658 124.234C136.068 124.48 138.504 124.103 140.846 123.484C143.197 122.863 145.512 121.981 147.485 120.559C149.459 119.136 151.076 117.131 151.71 114.783C152.343 112.434 151.888 109.742 150.256 107.939C148.386 105.874 145.276 105.164 143.659 102.897C141.847 100.354 142.518 96.7341 141.051 93.9781C140.071 92.138 138.217 90.8829 136.24 90.2218C134.263 89.5606 132.152 89.4301 130.068 89.3661C128.973 89.3324 127.844 89.3212 126.824 89.7205C125.804 90.1197 124.907 91.0297 124.854 92.124C124.801 93.2184 125.501 93.5551 125.501 93.5551Z" fill="#2F2E41"/>
<path d="M205.709 230H72.8077C72.7152 230 72.6265 229.963 72.561 229.898C72.4956 229.832 72.4589 229.744 72.4589 229.651C72.4589 229.559 72.4956 229.47 72.561 229.405C72.6265 229.339 72.7152 229.302 72.8077 229.302H205.709C205.802 229.302 205.89 229.339 205.956 229.405C206.021 229.47 206.058 229.559 206.058 229.651C206.058 229.744 206.021 229.832 205.956 229.898C205.89 229.963 205.802 230 205.709 230Z" fill="#1158BF"/>
</g>
<defs>
<clipPath id="clip0_57_94">
<rect width="206.058" height="230" fill="white"/>
</clipPath>
</defs>
</svg>
