<svg width="48" height="48" viewBox="0 0 48 48" fill="none" xmlns="http://www.w3.org/2000/svg">
<path fill-rule="evenodd" clip-rule="evenodd" d="M23.9156 2.00158C33.1584 2.11117 40.5541 8.81835 43.6013 17.5451C46.8997 26.9913 46.8027 38.4208 38.6655 44.2429C30.6543 49.975 20.1372 45.8979 12.2816 39.9543C4.99235 34.4392 0.0598694 25.7997 2.73876 17.0606C5.54536 7.9049 14.3401 1.88804 23.9156 2.00158Z" fill="#FFDE8A"/>
<path d="M22.6249 14.625C22.2126 16.6492 21.6512 18.6489 21.3193 20.6875C21.2088 21.3665 21.2499 23.4379 21.2499 22.75" stroke="white" stroke-width="2" stroke-linecap="round"/>
<path d="M29.125 14.25C28.5171 17.1678 27.9693 20.123 27.25 23" stroke="white" stroke-width="2" stroke-linecap="round"/>
<path d="M14.875 28.375C16.5383 32.3866 21.1674 33.4122 25.0833 33C26.1355 32.8892 27.0709 32.7835 28.0139 32.2639C28.878 31.7877 29.6373 31.1168 30.4583 30.5694C31.3549 29.9717 32.0366 29.3826 32.625 28.5" stroke="white" stroke-width="2" stroke-linecap="round"/>
</svg>
