<svg width="48" height="48" viewBox="0 0 48 48" fill="none" xmlns="http://www.w3.org/2000/svg">
<circle cx="24" cy="24" r="22.5" fill="white" stroke="#FFDE8A" stroke-width="3"/>
<path d="M32.4915 29C33.3246 29 34.0116 29.6792 33.8864 30.5028C33.7654 31.299 33.5484 32.0794 33.2388 32.8268C32.7362 34.0401 31.9997 35.1425 31.0711 36.0711C30.1425 36.9997 29.0401 37.7362 27.8268 38.2388C26.6136 38.7413 25.3132 39 24 39C22.6868 39 21.3864 38.7413 20.1732 38.2388C18.9599 37.7362 17.8575 36.9997 16.9289 36.0711C16.0003 35.1425 15.2638 34.0401 14.7612 32.8268C14.4516 32.0794 14.2346 31.299 14.1136 30.5028C13.9884 29.6792 14.6754 29 15.5085 29V29C16.3417 29 17.0008 29.6831 17.1794 30.4969C17.2674 30.8978 17.3908 31.2912 17.5486 31.6722C17.8996 32.5194 18.4139 33.2892 19.0623 33.9377C19.7108 34.5861 20.4806 35.1004 21.3278 35.4514C22.175 35.8023 23.083 35.9829 24 35.9829C24.917 35.9829 25.825 35.8023 26.6722 35.4514C27.5194 35.1004 28.2892 34.5861 28.9377 33.9377C29.5861 33.2892 30.1004 32.5194 30.4514 31.6722C30.6092 31.2912 30.7326 30.8978 30.8206 30.4969C30.9992 29.6831 31.6583 29 32.4915 29V29Z" fill="#FFDE8A"/>
<path d="M11.0004 20.5223C10.938 13.1551 17.9504 13.1633 18.0004 20.5223" stroke="#FFDE8A" stroke-width="3" stroke-linecap="round"/>
<path d="M30.0008 20.5223C29.9384 13.1551 36.9508 13.1633 37.0008 20.5223" stroke="#FFDE8A" stroke-width="3" stroke-linecap="round"/>
</svg>
