<svg width="48" height="48" viewBox="0 0 48 48" fill="none" xmlns="http://www.w3.org/2000/svg">
<path fill-rule="evenodd" clip-rule="evenodd" d="M25.0213 2.00212C34.6127 2.12963 42.4815 8.97672 45.4859 18.0863C48.5354 27.3329 46.6546 37.9469 38.7517 43.6339C30.9436 49.2525 20.5057 47.3166 12.7236 41.6621C4.94259 36.0084 -0.0379578 26.7056 2.81062 17.519C5.7678 7.98213 15.0374 1.86939 25.0213 2.00212Z" fill="#FF7563"/>
<path d="M17.25 33.25C18.6101 31.8899 19.9608 30.315 21.5972 29.2847C23.5269 28.0697 26.4165 28.4349 28.5486 28.8194C31.1261 29.2842 33.1306 31.3862 34.25 33.625" stroke="white" stroke-width="2" stroke-linecap="round"/>
<path d="M16.5 17C17.4351 19.2001 18.5314 21.1371 21 21C22.7286 20.904 23 18.8719 23 17.5" stroke="white" stroke-width="2" stroke-linecap="round"/>
<path d="M28.5 17C28.9855 17.8293 30.8408 22.3814 32.6111 20.6111C33.6515 19.5708 33.5 18.3818 33.5 17" stroke="white" stroke-width="2" stroke-linecap="round"/>
</svg>
