<svg width="48" height="48" viewBox="0 0 48 48" fill="none" xmlns="http://www.w3.org/2000/svg">
<path fill-rule="evenodd" clip-rule="evenodd" d="M20.2882 2.04351C30.7922 1.56802 42.2096 4.93525 45.8008 14.8177C49.7137 25.5854 45.1446 37.845 35.6022 44.1851C27.0631 49.8587 16.1653 46.2094 8.12254 39.8518C1.16095 34.3489 -1.70291 25.2924 1.01522 16.845C3.75834 8.32004 11.3419 2.4485 20.2882 2.04351Z" fill="#FFE972"/>
<path d="M12.3696 14.3027C14.7835 15.0092 17.2361 15.5272 19.6687 16.1619C20.2158 16.3046 21.7213 16.4988 21.2413 16.7977C19.3012 18.006 16.5757 18.4187 14.3366 18.6641" stroke="white" stroke-width="2" stroke-linecap="round"/>
<path d="M33.9847 14C31.7669 14.7665 29.4707 15.3958 27.2764 16.2222C26.7628 16.4156 27.0601 16.6627 27.4014 16.8333C28.9127 17.589 30.5647 17.952 32.1514 18.5139C32.7917 18.7407 33.6695 18.8732 34.2347 19.25" stroke="white" stroke-width="2" stroke-linecap="round"/>
<line x1="14" y1="26" x2="31" y2="26" stroke="white" stroke-width="2" stroke-linecap="round"/>
<path d="M14 26C16.5 38.5 31 36.5 31 26" stroke="white" stroke-width="2" stroke-linecap="round"/>
</svg>
