<svg width="300" height="280" viewBox="0 0 300 280" fill="none" xmlns="http://www.w3.org/2000/svg">
<rect width="300" height="280" fill="white"/>
<path fill-rule="evenodd" clip-rule="evenodd" d="M150.439 40.0015C155.497 39.9339 160.562 42.2149 162.258 46.9803C164.094 52.1384 162.464 58.0582 157.987 61.2097C153.689 64.2348 147.971 63.1564 143.778 59.9884C139.841 57.0142 137.992 51.9646 139.552 47.2834C141.079 42.7043 145.613 40.0659 150.439 40.0015Z" fill="#FFE972"/>
<path fill-rule="evenodd" clip-rule="evenodd" d="M241.471 28.0007C243.89 27.9684 246.312 29.0593 247.123 31.3384C248.001 33.8053 247.222 36.6366 245.081 38.1438C243.025 39.5906 240.291 39.0748 238.285 37.5597C236.402 36.1372 235.518 33.7222 236.264 31.4834C236.994 29.2934 239.163 28.0315 241.471 28.0007Z" fill="#FFE972"/>
<path fill-rule="evenodd" clip-rule="evenodd" d="M206.968 239.001C209.607 238.966 212.25 240.156 213.135 242.642C214.092 245.333 213.242 248.422 210.906 250.066C208.664 251.644 205.681 251.082 203.493 249.429C201.439 247.877 200.474 245.242 201.288 242.8C202.084 240.411 204.45 239.034 206.968 239.001Z" fill="#FFE972"/>
<path fill-rule="evenodd" clip-rule="evenodd" d="M110.086 15.096C117.151 14.7622 125.485 14.9566 128.18 21.4959C131.395 29.295 128.883 38.9185 121.783 43.474C115.511 47.4983 108.068 42.8114 102.286 38.1105C97.6653 34.3535 94.6744 28.629 96.586 22.9885C98.4358 17.5305 104.33 15.3679 110.086 15.096Z" fill="#FF7563" fill-opacity="0.9"/>
<path fill-rule="evenodd" clip-rule="evenodd" d="M162.226 81.0288C164.345 80.9287 166.846 80.987 167.654 82.9488C168.618 85.2885 167.865 88.1756 165.735 89.5422C163.853 90.7495 161.621 89.3434 159.886 87.9332C158.5 86.8061 157.602 85.0887 158.176 83.3966C158.731 81.7591 160.499 81.1104 162.226 81.0288Z" fill="#FF7563"/>
<path fill-rule="evenodd" clip-rule="evenodd" d="M228.839 100C236.003 99.9761 242.558 104.573 244.546 111.456C246.368 117.764 242.211 123.801 236.78 127.49C231.925 130.789 225.7 130.863 220.852 127.553C215.489 123.891 211.644 117.798 213.452 111.561C215.427 104.748 221.746 100.024 228.839 100Z" fill="#FFA070" fill-opacity="0.8"/>
<path fill-rule="evenodd" clip-rule="evenodd" d="M147.696 200C149.367 199.994 150.897 201.067 151.361 202.673C151.786 204.145 150.816 205.554 149.549 206.414C148.416 207.184 146.963 207.201 145.832 206.429C144.581 205.574 143.684 204.153 144.106 202.697C144.566 201.108 146.041 200.006 147.696 200Z" fill="#FFA070"/>
<path fill-rule="evenodd" clip-rule="evenodd" d="M44.4474 45C48.2685 44.9873 51.764 47.4391 52.8245 51.1101C53.7963 54.4741 51.5792 57.6938 48.6828 59.6615C46.0932 61.4207 42.7732 61.4602 40.1879 59.6948C37.3277 57.7417 35.277 54.4921 36.2412 51.1656C37.2943 47.5325 40.6648 45.0127 44.4474 45Z" fill="#FFA070"/>
<path fill-rule="evenodd" clip-rule="evenodd" d="M254.676 162.001C261.303 162.078 266.077 168.028 267.634 174.47C268.873 179.595 264.935 183.83 260.718 186.997C256.195 190.393 250.611 193.883 245.854 190.823C240.453 187.349 238.881 180.299 240.76 174.159C242.753 167.647 247.867 161.922 254.676 162.001Z" fill="#FFD09B"/>
<path fill-rule="evenodd" clip-rule="evenodd" d="M31.8488 173C34.9413 173.036 37.1694 175.813 37.896 178.819C38.4743 181.211 36.6365 183.188 34.6686 184.665C32.5576 186.25 29.9518 187.879 27.7317 186.451C25.2113 184.83 24.4776 181.54 25.3547 178.674C26.2849 175.635 28.6711 172.964 31.8488 173Z" fill="#FFC691"/>
<path fill-rule="evenodd" clip-rule="evenodd" d="M53.4506 116C59.6773 115.999 65.0678 120.081 67.0927 125.969C69.236 132.202 68.1561 139.429 62.8538 143.344C57.4405 147.341 49.9836 146.619 44.6112 142.568C39.5289 138.735 37.8101 132.013 39.8197 125.972C41.7846 120.067 47.2264 116.001 53.4506 116Z" fill="#FFDE8A"/>
<path fill-rule="evenodd" clip-rule="evenodd" d="M113.43 235.001C119.211 235.061 124.364 238.316 126.49 243.693C129.171 250.471 130.595 259.161 124.656 263.388C118.809 267.548 111.454 262.853 105.835 258.39C101.142 254.663 97.6545 249.111 99.5053 243.412C101.357 237.71 107.435 234.939 113.43 235.001Z" fill="#FFDE8A"/>
<path fill-rule="evenodd" clip-rule="evenodd" d="M203.021 189.002C212.613 189.13 220.481 195.977 223.486 205.086C226.535 214.333 224.655 224.947 216.752 230.634C208.944 236.253 198.506 234.317 190.724 228.662C182.943 223.008 177.962 213.706 180.811 204.519C183.768 194.982 193.037 188.869 203.021 189.002Z" fill="#FF7563"/>
<path d="M195.25 220.25C196.61 218.89 197.961 217.315 199.597 216.285C201.527 215.07 204.416 215.435 206.549 215.819C209.126 216.284 211.131 218.386 212.25 220.625" stroke="white" stroke-width="2" stroke-linecap="round"/>
<path d="M194.5 204C195.435 206.2 196.531 208.137 199 208C200.729 207.904 201 205.872 201 204.5" stroke="white" stroke-width="2" stroke-linecap="round"/>
<path d="M206.5 204C206.985 204.829 208.841 209.381 210.611 207.611C211.651 206.571 211.5 205.382 211.5 204" stroke="white" stroke-width="2" stroke-linecap="round"/>
<path fill-rule="evenodd" clip-rule="evenodd" d="M91.243 166.43C101.472 166.721 109.583 173.938 113.108 183.544C117.178 194.635 118.481 208.054 109.2 215.364C99.0224 223.379 84.4078 222.092 74.0636 214.294C64.2596 206.903 61.0377 193.738 65.1854 182.182C68.9761 171.621 80.0264 166.111 91.243 166.43Z" fill="#FFA070"/>
<path d="M83.5052 181.219C83.5052 183.758 83.7601 186.305 84.0339 188.83C84.1849 190.223 84.5625 194.401 84.5625 193" stroke="white" stroke-width="2" stroke-linecap="round"/>
<path d="M91.6615 179.859C91.6615 181.347 91.6615 182.835 91.6615 184.323C91.6615 185.965 91.9636 187.568 91.9636 189.216C91.9636 190.204 92.1146 191.143 92.1146 192.094" stroke="white" stroke-width="2" stroke-linecap="round"/>
<path d="M79.8802 200.703C83.871 200.703 87.9616 201.58 91.5608 203.346C92.767 203.939 93.9458 204.8 94.9005 205.755C95.2956 206.15 96.1085 206.727 96.3438 207.198" stroke="white" stroke-width="2" stroke-linecap="round"/>
<path fill-rule="evenodd" clip-rule="evenodd" d="M96.9733 62.0007C106.648 62.0886 113.239 70.8038 116.018 80.0711C118.576 88.6032 116.55 98.0503 109.359 103.306C102.109 108.605 92.267 108.014 84.9978 102.742C77.7095 97.4556 74.2944 88.3532 76.8335 79.7152C79.621 70.2318 87.0892 61.9109 96.9733 62.0007Z" fill="#FFC691"/>
<path d="M91.5 74.5C91.5397 76.9639 91.9161 79.3612 91.7778 81.8333C91.7211 82.8457 91.75 85.8889 91.75 84.875" stroke="white" stroke-width="2" stroke-linecap="round"/>
<path d="M97 73.875C97.0339 76.7869 97.75 79.6429 97.75 82.5556C97.75 83.412 97.75 84.2685 97.75 85.125" stroke="white" stroke-width="2" stroke-linecap="round"/>
<path d="M88.5 92.3751C89.9051 92.1409 91.3715 92.2501 92.7917 92.2501C94.6016 92.2501 96.3734 91.9587 98.1736 91.8821C100.151 91.7979 102.146 91.8751 104.125 91.8751" stroke="white" stroke-width="2" stroke-linecap="round"/>
<path fill-rule="evenodd" clip-rule="evenodd" d="M206.898 39.4187C218.066 39.5511 227.003 47.6556 230.685 58.2004C234.67 69.6146 234.553 83.4252 224.721 90.4603C215.041 97.3865 202.332 92.46 192.84 85.2781C184.032 78.6141 178.072 68.1747 181.309 57.615C184.701 46.5518 195.328 39.2815 206.898 39.4187Z" fill="#FFDE8A"/>
<path d="M205.338 54.6719C204.84 57.1178 204.162 59.5341 203.761 61.9974C203.627 62.8178 203.677 65.3208 203.677 64.4896" stroke="white" stroke-width="2" stroke-linecap="round"/>
<path d="M213.193 54.2188C212.458 57.7445 211.796 61.3153 210.927 64.7917" stroke="white" stroke-width="2" stroke-linecap="round"/>
<path d="M195.974 71.2864C197.984 76.1337 203.577 77.373 208.309 76.8749C209.58 76.7411 210.711 76.6133 211.85 75.9855C212.894 75.4101 213.812 74.5994 214.804 73.938C215.887 73.2157 216.711 72.5039 217.422 71.4374" stroke="white" stroke-width="2" stroke-linecap="round"/>
<path fill-rule="evenodd" clip-rule="evenodd" d="M144.195 103.747C163.452 102.875 184.384 109.048 190.968 127.166C198.142 146.907 189.765 169.383 172.271 181.006C156.616 191.408 136.636 184.717 121.891 173.062C109.128 162.973 103.878 146.37 108.861 130.883C113.89 115.253 127.793 104.489 144.195 103.747Z" fill="#FFE972"/>
<path d="M129.678 126.222C134.103 127.517 138.6 128.467 143.059 129.63C144.062 129.892 146.822 130.248 145.942 130.796C142.385 133.011 137.389 133.768 133.284 134.218" stroke="white" stroke-width="2" stroke-linecap="round"/>
<path d="M169.305 125.667C165.239 127.072 161.03 128.226 157.007 129.741C156.065 130.095 156.61 130.548 157.236 130.861C160.007 132.247 163.035 132.912 165.944 133.942C167.118 134.358 168.727 134.601 169.764 135.292" stroke="white" stroke-width="2" stroke-linecap="round"/>
<line x1="131.833" y1="148.5" x2="164.667" y2="148.5" stroke="white" stroke-width="2" stroke-linecap="round"/>
<path d="M132.667 147.667C137.25 170.583 163.833 166.917 163.833 147.667" stroke="white" stroke-width="2" stroke-linecap="round"/>
</svg>
