<svg width="300" height="280" viewBox="0 0 300 280" fill="none" xmlns="http://www.w3.org/2000/svg">
<g clip-path="url(#clip0_189_5357)">
<rect width="300" height="280" fill="white"/>
<rect x="-13" y="41.8767" width="194.352" height="155.34" transform="rotate(-9.44 -13 41.8767)" fill="#323232" fill-opacity="0.1"/>
<rect x="-15" y="39.8767" width="194.352" height="155.34" transform="rotate(-9.44 -15 39.8767)" fill="white"/>
<rect x="-5.20911" y="51.1917" width="178.747" height="112.072" transform="rotate(-9.44 -5.20911 51.1917)" fill="#5894EB"/>
<rect x="257.439" y="92" width="120.37" height="147" transform="rotate(46.96 257.439 92)" fill="#323232" fill-opacity="0.1"/>
<rect x="257.439" y="88" width="120.37" height="147" transform="rotate(46.96 257.439 88)" fill="white"/>
<rect x="255.573" y="98.4866" width="107.054" height="107.587" transform="rotate(46.96 255.573 98.4866)" fill="#FF8585"/>
<rect x="105.889" y="98" width="120.37" height="147" transform="rotate(16.9633 105.889 98)" fill="#323232" fill-opacity="0.1"/>
<rect x="104.889" y="95" width="120.37" height="147" transform="rotate(16.9633 104.889 95)" fill="white"/>
<rect x="108.516" y="105.015" width="107.054" height="107.587" transform="rotate(16.9633 108.516 105.015)" fill="#FFA858"/>
</g>
<defs>
<clipPath id="clip0_189_5357">
<rect width="300" height="280" fill="white"/>
</clipPath>
</defs>
</svg>
