<svg width="60" height="60" viewBox="0 0 60 60" fill="none" xmlns="http://www.w3.org/2000/svg">
<rect width="60" height="60" fill="white"/>
<path fill-rule="evenodd" clip-rule="evenodd" d="M26.0073 4.05029C38.6098 3.35026 51.4249 9.98894 55.1464 22.0498C58.7375 33.6882 50.861 45.0198 40.7392 51.7945C31.8779 57.7256 20.2917 57.5206 11.8142 51.0527C3.89872 45.0135 2.49847 34.3456 5.37655 24.8144C8.49475 14.4879 15.2369 4.64855 26.0073 4.05029Z" fill="#FFAFAF"/>
<path d="M14.826 37.8C14.726 37.84 14.6393 37.8433 14.566 37.81C14.4926 37.7767 14.4393 37.7333 14.406 37.68C14.3593 37.6133 14.346 37.5433 14.366 37.47C14.386 37.3967 14.4426 37.3333 14.536 37.28C14.6893 37.1933 14.8826 37.1233 15.116 37.07C15.3493 37.01 15.5993 36.9933 15.866 37.02C16.1326 37.0467 16.376 37.12 16.596 37.24C16.8226 37.3533 17.0126 37.5 17.166 37.68C17.326 37.86 17.446 38.0667 17.526 38.3C17.6126 38.5267 17.6526 38.7667 17.646 39.02C17.6326 39.2867 17.5793 39.5533 17.486 39.82C17.3993 40.0867 17.276 40.3367 17.116 40.57C16.9626 40.8033 16.776 41.0167 16.556 41.21C16.3426 41.3967 16.106 41.5433 15.846 41.65C15.666 41.6967 15.5293 41.7033 15.436 41.67C15.3426 41.6367 15.2793 41.5967 15.246 41.55C15.2326 41.5167 15.226 41.4733 15.226 41.42C15.2326 41.36 15.2693 41.3 15.336 41.24C15.256 40.5933 15.206 39.97 15.186 39.37C15.1726 38.7633 15.166 38.21 15.166 37.71C15.0526 37.73 14.9393 37.76 14.826 37.8ZM15.916 37.67C15.876 37.6633 15.8326 37.66 15.786 37.66C15.746 37.6533 15.706 37.65 15.666 37.65C15.706 37.7033 15.7393 37.77 15.766 37.85C15.7926 37.9233 15.806 37.9967 15.806 38.07C15.806 38.4767 15.8093 38.9133 15.816 39.38C15.8293 39.8467 15.8626 40.35 15.916 40.89C16.2093 40.6767 16.4593 40.41 16.666 40.09C16.8793 39.7633 16.9926 39.42 17.006 39.06C17.0126 38.7267 16.9293 38.4333 16.756 38.18C16.5826 37.92 16.3026 37.75 15.916 37.67ZM20.059 40.9C20.0657 40.9267 20.069 40.9667 20.069 41.02C20.069 41.0667 20.059 41.1167 20.039 41.17C20.019 41.2167 19.989 41.26 19.949 41.3C19.9157 41.3333 19.8657 41.35 19.799 41.35C19.6524 41.2567 19.529 41.1333 19.429 40.98C19.3757 40.78 19.3257 40.55 19.279 40.29C19.239 40.03 19.2057 39.76 19.179 39.48C19.1524 39.1933 19.1324 38.9033 19.119 38.61C19.1124 38.3167 19.1124 38.0333 19.119 37.76C19.119 37.7133 19.1224 37.6533 19.129 37.58C19.1424 37.5067 19.1624 37.4367 19.189 37.37C19.2157 37.2967 19.249 37.2367 19.289 37.19C19.329 37.1367 19.3857 37.11 19.459 37.11C19.5457 37.11 19.6157 37.1367 19.669 37.19C19.7224 37.2433 19.749 37.33 19.749 37.45C19.7424 37.7167 19.7424 38.0033 19.749 38.31C19.7624 38.61 19.7824 38.9133 19.809 39.22C19.8357 39.5267 19.869 39.8267 19.909 40.12C19.9557 40.4067 20.0057 40.6667 20.059 40.9ZM21.9486 41.76C21.9153 41.8733 21.872 41.9767 21.8186 42.07C21.7653 42.1567 21.7086 42.2067 21.6486 42.22C21.522 42.2533 21.4253 42.2333 21.3586 42.16C21.292 42.0867 21.2653 41.9933 21.2786 41.88C21.332 41.48 21.4186 41.06 21.5386 40.62C21.6586 40.1733 21.7986 39.73 21.9586 39.29C22.1186 38.8433 22.292 38.4133 22.4786 38C22.672 37.58 22.8686 37.2 23.0686 36.86C23.102 36.8067 23.1386 36.7767 23.1786 36.77C23.2253 36.7567 23.2653 36.7567 23.2986 36.77C23.332 36.7433 23.372 36.72 23.4186 36.7C23.4653 36.68 23.512 36.67 23.5586 36.67C23.5786 36.67 23.5986 36.6733 23.6186 36.68C23.6453 36.6867 23.672 36.7067 23.6986 36.74C23.7253 36.7733 23.7553 36.8233 23.7886 36.89C23.8286 36.95 23.8753 37.04 23.9286 37.16C24.022 37.5 24.1286 37.85 24.2486 38.21C24.3753 38.57 24.5053 38.93 24.6386 39.29C24.6586 39.2833 24.6753 39.28 24.6886 39.28C24.7086 39.2733 24.7286 39.2667 24.7486 39.26C24.822 39.2533 24.9053 39.2567 24.9986 39.27C25.092 39.2833 25.1553 39.33 25.1886 39.41C25.2286 39.51 25.222 39.5967 25.1686 39.67C25.1153 39.7433 25.0186 39.8167 24.8786 39.89C24.9653 40.1033 25.052 40.3133 25.1386 40.52C25.2253 40.72 25.3153 40.9167 25.4086 41.11C25.4153 41.1433 25.4253 41.1967 25.4386 41.27C25.452 41.3367 25.4586 41.4067 25.4586 41.48C25.4653 41.5467 25.462 41.61 25.4486 41.67C25.4353 41.73 25.4086 41.77 25.3686 41.79C25.322 41.81 25.272 41.8067 25.2186 41.78C25.172 41.7533 25.1253 41.72 25.0786 41.68C25.032 41.6333 24.9886 41.5867 24.9486 41.54C24.9153 41.4867 24.8886 41.44 24.8686 41.4C24.7553 41.18 24.6453 40.96 24.5386 40.74C24.4386 40.5133 24.342 40.2867 24.2486 40.06C23.9686 40.1133 23.662 40.16 23.3286 40.2C23.002 40.24 22.6786 40.2667 22.3586 40.28C22.2853 40.5333 22.212 40.7833 22.1386 41.03C22.072 41.27 22.0086 41.5133 21.9486 41.76ZM23.3686 37.56C23.062 38.2467 22.7953 38.9333 22.5686 39.62C23.0153 39.6067 23.492 39.55 23.9986 39.45C23.7586 38.8433 23.5486 38.2133 23.3686 37.56ZM27.3082 41.59C27.2882 41.3433 27.2716 41.0633 27.2582 40.75C27.2516 40.4367 27.2482 40.1167 27.2482 39.79C27.2482 39.4567 27.2482 39.13 27.2482 38.81C27.2549 38.49 27.2649 38.2 27.2782 37.94C27.2782 37.8733 27.3082 37.8233 27.3682 37.79C27.4349 37.75 27.4882 37.7333 27.5282 37.74C27.6482 37.7533 27.7282 37.7967 27.7682 37.87C27.8149 37.9367 27.8449 38.0333 27.8582 38.16C27.8516 38.3733 27.8449 38.5867 27.8382 38.8C27.8382 39.0133 27.8416 39.2267 27.8482 39.44C28.1482 39.3867 28.3982 39.2767 28.5982 39.11C28.8049 38.9433 28.9516 38.7533 29.0382 38.54C29.0716 38.46 29.0949 38.3633 29.1082 38.25C29.1282 38.1367 29.1316 38.0233 29.1182 37.91C29.1049 37.79 29.0716 37.68 29.0182 37.58C28.9716 37.4733 28.8982 37.39 28.7982 37.33C28.6516 37.2433 28.4916 37.1967 28.3182 37.19C28.1449 37.1833 27.9649 37.21 27.7782 37.27C27.5982 37.3233 27.4182 37.41 27.2382 37.53C27.0649 37.65 26.9016 37.7933 26.7482 37.96C26.7682 38.06 26.7549 38.15 26.7082 38.23C26.6616 38.3033 26.5949 38.3567 26.5082 38.39C26.4549 38.4033 26.3916 38.3767 26.3182 38.31C26.2449 38.2367 26.2082 38.1633 26.2082 38.09C26.2082 37.8233 26.2816 37.5933 26.4282 37.4C26.5816 37.2 26.7716 37.0333 26.9982 36.9C27.2249 36.7667 27.4682 36.6667 27.7282 36.6C27.9882 36.5333 28.2282 36.5 28.4482 36.5C28.7749 36.5 29.0482 36.5967 29.2682 36.79C29.4882 36.9767 29.6382 37.2133 29.7182 37.5C29.8582 38 29.8216 38.45 29.6082 38.85C29.4016 39.25 29.0616 39.5967 28.5882 39.89C28.9349 40.1033 29.2582 40.3067 29.5582 40.5C29.8649 40.6933 30.1716 40.9033 30.4782 41.13C30.5182 41.17 30.5616 41.23 30.6082 41.31C30.6616 41.3833 30.6549 41.4967 30.5882 41.65C30.5482 41.7433 30.4782 41.7967 30.3782 41.81C30.2849 41.8167 30.1916 41.7867 30.0982 41.72C29.9516 41.6 29.7849 41.4767 29.5982 41.35C29.4182 41.2167 29.2282 41.0867 29.0282 40.96C28.8282 40.8267 28.6282 40.7 28.4282 40.58C28.2282 40.4533 28.0382 40.3367 27.8582 40.23C27.8649 40.4967 27.8682 40.7633 27.8682 41.03C27.8749 41.29 27.8849 41.5467 27.8982 41.8C27.8982 41.8933 27.8716 41.96 27.8182 42C27.7649 42.0333 27.6982 42.05 27.6182 42.05C27.5782 42.0433 27.5416 42.0233 27.5082 41.99C27.4749 41.95 27.4416 41.9067 27.4082 41.86C27.3816 41.8067 27.3582 41.7567 27.3382 41.71C27.3182 41.6567 27.3082 41.6167 27.3082 41.59ZM33.3907 39.52C33.364 39.6267 33.3373 39.7833 33.3107 39.99C33.2907 40.19 33.2707 40.4033 33.2507 40.63C33.2373 40.85 33.224 41.0633 33.2107 41.27C33.204 41.4767 33.2007 41.6367 33.2007 41.75C33.2007 41.9433 33.094 42.04 32.8807 42.04C32.8073 42.04 32.7373 42.02 32.6707 41.98C32.6107 41.94 32.5807 41.8633 32.5807 41.75C32.5807 41.47 32.5907 41.1667 32.6107 40.84C32.6307 40.5133 32.6573 40.1767 32.6907 39.83C32.4573 39.4033 32.2373 38.9833 32.0307 38.57C31.8307 38.1567 31.6607 37.7767 31.5207 37.43C31.494 37.37 31.4707 37.3067 31.4507 37.24C31.4373 37.1667 31.4307 37.1 31.4307 37.04C31.4373 36.98 31.454 36.93 31.4807 36.89C31.5073 36.8433 31.554 36.8133 31.6207 36.8C31.694 36.7933 31.764 36.8 31.8307 36.82C31.904 36.8333 31.9673 36.8767 32.0207 36.95C32.074 37.09 32.1407 37.25 32.2207 37.43C32.3007 37.61 32.384 37.7933 32.4707 37.98C32.5573 38.1667 32.644 38.3467 32.7307 38.52C32.8173 38.6867 32.894 38.83 32.9607 38.95C33.2607 38.55 33.544 38.14 33.8107 37.72C34.084 37.3 34.3373 36.9 34.5707 36.52C34.6573 36.3867 34.7473 36.3133 34.8407 36.3C34.934 36.2867 35.0107 36.3067 35.0707 36.36C35.124 36.4 35.154 36.4667 35.1607 36.56C35.174 36.6533 35.164 36.7367 35.1307 36.81C35.0173 37.01 34.884 37.23 34.7307 37.47C34.584 37.7033 34.4307 37.94 34.2707 38.18C34.1173 38.42 33.964 38.6567 33.8107 38.89C33.6573 39.1233 33.5173 39.3333 33.3907 39.52ZM41.3489 42.12C41.2756 42.12 41.1989 42.0633 41.1189 41.95C41.0456 41.8367 41.0056 41.7267 40.9989 41.62C40.9456 41.2333 40.8789 40.7833 40.7989 40.27C40.7256 39.75 40.6256 39.1367 40.4989 38.43C40.2989 38.81 40.1023 39.1867 39.9089 39.56C39.7156 39.9333 39.5223 40.3067 39.3289 40.68C39.2089 40.9133 39.0856 41.03 38.9589 41.03C38.7723 41.03 38.6256 40.9333 38.5189 40.74C38.2856 40.4 38.0423 40.0833 37.7889 39.79C37.5423 39.49 37.2856 39.1933 37.0189 38.9C37.0056 39.3467 37.0089 39.7867 37.0289 40.22C37.0556 40.6467 37.0989 41.0633 37.1589 41.47C37.1723 41.5433 37.1623 41.61 37.1289 41.67C37.1023 41.7233 37.0723 41.7567 37.0389 41.77C36.9456 41.8033 36.8523 41.7833 36.7589 41.71C36.6656 41.6367 36.6089 41.5567 36.5889 41.47C36.5289 41.23 36.4856 40.9633 36.4589 40.67C36.4323 40.3767 36.4123 40.08 36.3989 39.78C36.3923 39.48 36.3889 39.1833 36.3889 38.89C36.3889 38.5967 36.3923 38.33 36.3989 38.09C36.3989 37.8233 36.4856 37.69 36.6589 37.69C36.7656 37.69 36.8556 37.73 36.9289 37.81C37.0023 37.8833 37.0423 37.99 37.0489 38.13C37.3823 38.4633 37.6956 38.8067 37.9889 39.16C38.2889 39.5067 38.5789 39.86 38.8589 40.22C39.0923 39.8 39.3289 39.37 39.5689 38.93C39.8089 38.4833 40.0789 38.05 40.3789 37.63C40.3923 37.5567 40.4289 37.4833 40.4889 37.41C40.5489 37.33 40.6156 37.2767 40.6889 37.25C40.7623 37.2233 40.8389 37.2533 40.9189 37.34C40.9989 37.4267 41.0523 37.5267 41.0789 37.64C41.1923 38.3133 41.2889 38.9867 41.3689 39.66C41.4556 40.3333 41.5389 41.0067 41.6189 41.68C41.6323 41.8067 41.6089 41.9133 41.5489 42C41.4889 42.08 41.4223 42.12 41.3489 42.12ZM45.8525 39.27C45.8791 39.3367 45.8525 39.4033 45.7725 39.47C45.6925 39.53 45.5658 39.57 45.3925 39.59C45.0925 39.63 44.7858 39.6733 44.4725 39.72C44.1591 39.76 43.8391 39.8033 43.5125 39.85C43.4991 40.19 43.4991 40.53 43.5125 40.87C43.6658 40.87 43.8491 40.8567 44.0625 40.83C44.2825 40.7967 44.5058 40.7567 44.7325 40.71C44.9591 40.6633 45.1758 40.6167 45.3825 40.57C45.5958 40.5167 45.7758 40.4733 45.9225 40.44C45.9958 40.42 46.0725 40.4067 46.1525 40.4C46.2325 40.3867 46.3025 40.3867 46.3625 40.4C46.4291 40.4067 46.4825 40.43 46.5225 40.47C46.5625 40.51 46.5825 40.5667 46.5825 40.64C46.5825 40.66 46.5591 40.69 46.5125 40.73C46.4658 40.77 46.4058 40.8133 46.3325 40.86C46.2658 40.9 46.1925 40.94 46.1125 40.98C46.0391 41.0133 45.9725 41.04 45.9125 41.06C45.4991 41.1933 45.0925 41.31 44.6925 41.41C44.2925 41.5033 43.9025 41.5533 43.5225 41.56C43.3025 41.5667 43.1358 41.51 43.0225 41.39C42.9091 41.2633 42.8491 41.0833 42.8425 40.85C42.8291 40.5233 42.8291 40.1933 42.8425 39.86C42.7291 39.7933 42.6725 39.7 42.6725 39.58C42.6858 39.4533 42.7458 39.3667 42.8525 39.32C42.8658 39.1267 42.8758 38.9333 42.8825 38.74C42.8891 38.54 42.8991 38.3433 42.9125 38.15C42.8391 38.1367 42.7725 38.1 42.7125 38.04C42.6591 37.98 42.6325 37.9133 42.6325 37.84C42.6325 37.78 42.6458 37.7267 42.6725 37.68C42.6991 37.6267 42.7491 37.5867 42.8225 37.56C42.9425 37.5333 43.0891 37.5033 43.2625 37.47C43.4358 37.4367 43.6125 37.4067 43.7925 37.38C43.9791 37.3533 44.1558 37.33 44.3225 37.31C44.4958 37.29 44.6425 37.2767 44.7625 37.27C44.9025 37.2567 45.0358 37.27 45.1625 37.31C45.2958 37.35 45.4191 37.4267 45.5325 37.54C45.5591 37.6333 45.5391 37.7033 45.4725 37.75C45.4125 37.7967 45.3325 37.8267 45.2325 37.84C45.1325 37.8533 45.0125 37.87 44.8725 37.89C44.7325 37.9033 44.5858 37.92 44.4325 37.94C44.2858 37.96 44.1358 37.98 43.9825 38C43.8358 38.0133 43.6958 38.03 43.5625 38.05C43.5625 38.0633 43.5625 38.08 43.5625 38.1C43.5691 38.1133 43.5725 38.1267 43.5725 38.14C43.5591 38.3133 43.5491 38.4867 43.5425 38.66C43.5358 38.8333 43.5291 39.0067 43.5225 39.18C43.8025 39.1333 44.0891 39.0933 44.3825 39.06C44.6758 39.02 44.9091 38.9933 45.0825 38.98C45.2225 38.9667 45.3591 38.9833 45.4925 39.03C45.6258 39.0767 45.7458 39.1567 45.8525 39.27Z" fill="white"/>
<path d="M26 17C26 19.0053 26.5 20.9985 26.5 23" stroke="white" stroke-width="1.5" stroke-linecap="round"/>
<path d="M32 16C32 18.2727 32.5 20.5316 32.5 22.8" stroke="white" stroke-width="1.5" stroke-linecap="round"/>
<path d="M19 26C19.7576 33.1716 38.7976 34.7877 40.8178 26" stroke="white" stroke-width="1.5" stroke-linecap="round"/>
</svg>
