<svg width="317" height="233" viewBox="0 0 317 233" fill="none" xmlns="http://www.w3.org/2000/svg">
<path fill-rule="evenodd" clip-rule="evenodd" d="M164.458 28.5036C199.465 29.2889 240.148 27.272 254.352 59.2768C273.072 101.457 269.162 154.141 232.868 182.642C192.742 214.152 135.377 215.305 94.4445 184.851C54.8001 155.355 41.0369 100.043 61.2322 54.9448C77.2817 19.1048 125.199 27.623 164.458 28.5036Z" fill="#FFAFAF"/>
<path d="M82.6361 123.31C82.6161 123.53 82.5461 123.74 82.4261 123.94C82.3261 124.12 82.1661 124.2 81.9461 124.18C81.6061 124.16 81.3061 124.03 81.0461 123.79C80.8061 123.55 80.6861 123.35 80.6861 123.19C80.7061 121.45 80.6461 119.68 80.5061 117.88C80.3861 116.06 80.1861 114.25 79.9061 112.45C79.9061 112.37 79.9261 112.28 79.9661 112.18C80.0061 112.1 80.0561 112.01 80.1161 111.91C80.1761 111.79 80.2761 111.68 80.4161 111.58C80.5561 111.52 80.7061 111.53 80.8661 111.61C81.0461 111.69 81.2161 111.81 81.3761 111.97C81.5361 112.13 81.6761 112.31 81.7961 112.51C81.9161 112.71 82.0061 112.9 82.0661 113.08C82.1261 113.48 82.1861 113.92 82.2461 114.4C82.3061 114.88 82.3561 115.38 82.3961 115.9C82.8761 115.64 83.3361 115.35 83.7761 115.03C84.2161 114.71 84.5961 114.36 84.9161 113.98C85.2561 113.6 85.5161 113.21 85.6961 112.81C85.8761 112.39 85.9361 111.96 85.8761 111.52C85.8361 111.18 85.6861 110.87 85.4261 110.59C85.1661 110.31 84.7661 110.1 84.2261 109.96C82.9861 109.68 81.8761 109.67 80.8961 109.93C79.9161 110.17 78.9761 110.58 78.0761 111.16C77.8161 111.36 77.5761 111.48 77.3561 111.52C77.1361 111.56 76.9461 111.55 76.7861 111.49C76.6261 111.43 76.5061 111.34 76.4261 111.22C76.3461 111.1 76.3061 110.98 76.3061 110.86C76.3461 110.4 76.5661 109.99 76.9661 109.63C77.3861 109.25 77.8261 108.93 78.2861 108.67C78.8861 108.37 79.6261 108.12 80.5061 107.92C81.3861 107.72 82.2661 107.65 83.1461 107.71C84.0461 107.75 84.8861 107.96 85.6661 108.34C86.4461 108.72 87.0461 109.33 87.4661 110.17C87.8461 111.17 87.9261 112.07 87.7061 112.87C87.5061 113.67 87.1361 114.4 86.5961 115.06C86.0561 115.72 85.4161 116.33 84.6761 116.89C83.9361 117.43 83.2361 117.93 82.5761 118.39C82.6161 119.27 82.6361 120.13 82.6361 120.97C82.6561 121.81 82.6561 122.59 82.6361 123.31ZM91.9736 109.96C91.9736 110.44 91.9636 110.98 91.9436 111.58C91.9436 112.18 91.9436 112.8 91.9436 113.44C91.9636 114.08 91.9736 114.74 91.9736 115.42C91.9936 116.1 92.0136 116.75 92.0336 117.37C92.2336 116.97 92.4736 116.58 92.7536 116.2C93.0336 115.8 93.3436 115.45 93.6836 115.15C94.0436 114.85 94.4136 114.61 94.7936 114.43C95.1936 114.25 95.6236 114.16 96.0836 114.16C96.5836 114.16 97.0236 114.32 97.4036 114.64C97.8036 114.96 98.1436 115.39 98.4236 115.93C98.7236 116.45 98.9736 117.04 99.1736 117.7C99.3736 118.34 99.5336 119 99.6536 119.68C99.7936 120.34 99.8936 120.98 99.9536 121.6C100.014 122.2 100.064 122.72 100.104 123.16C100.104 123.48 100.024 123.74 99.8636 123.94C99.7036 124.14 99.5136 124.24 99.2936 124.24C99.1336 124.24 98.9336 124.14 98.6936 123.94C98.4736 123.72 98.3136 123.46 98.2136 123.16C98.1536 122.92 98.0936 122.57 98.0336 122.11C97.9736 121.65 97.9036 121.16 97.8236 120.64C97.7436 120.1 97.6436 119.56 97.5236 119.02C97.4036 118.48 97.2536 118 97.0736 117.58C96.9136 117.14 96.7136 116.8 96.4736 116.56C96.2336 116.32 95.9536 116.23 95.6336 116.29C95.1336 116.39 94.6936 116.74 94.3136 117.34C93.9536 117.94 93.6336 118.62 93.3536 119.38C93.0936 120.14 92.8736 120.91 92.6936 121.69C92.5336 122.47 92.4136 123.1 92.3336 123.58C92.2536 123.94 92.1436 124.19 92.0036 124.33C91.8836 124.45 91.7436 124.51 91.5836 124.51C91.4236 124.51 91.2736 124.43 91.1336 124.27C91.0136 124.11 90.8936 123.92 90.7736 123.7C90.6736 123.46 90.5836 123.22 90.5036 122.98C90.4236 122.72 90.3736 122.5 90.3536 122.32C90.2536 121.24 90.1736 120.21 90.1136 119.23C90.0536 118.23 90.0036 117.23 89.9636 116.23C89.9436 115.23 89.9336 114.21 89.9336 113.17C89.9336 112.11 89.9536 110.98 89.9936 109.78C89.9936 108.78 90.3536 108.33 91.0736 108.43C91.3136 108.47 91.5236 108.65 91.7036 108.97C91.8836 109.27 91.9736 109.6 91.9736 109.96ZM109.166 112.78C109.766 113 110.266 113.33 110.666 113.77C111.086 114.21 111.406 114.71 111.626 115.27C111.846 115.81 111.966 116.37 111.986 116.95C112.026 117.53 111.966 118.07 111.806 118.57C111.586 119.13 111.306 119.68 110.966 120.22C110.626 120.76 110.236 121.24 109.796 121.66C109.356 122.08 108.856 122.42 108.296 122.68C107.736 122.94 107.116 123.07 106.436 123.07C105.616 123.07 104.926 122.88 104.366 122.5C103.806 122.12 103.366 121.63 103.046 121.03C102.726 120.43 102.516 119.75 102.416 118.99C102.336 118.23 102.356 117.47 102.476 116.71C102.556 116.15 102.686 115.61 102.866 115.09C103.066 114.55 103.316 114.08 103.616 113.68C103.916 113.26 104.256 112.92 104.636 112.66C105.036 112.4 105.486 112.27 105.986 112.27C106.266 112.27 106.616 112.33 107.036 112.45C107.456 112.55 107.846 112.7 108.206 112.9C108.466 112.66 108.786 112.62 109.166 112.78ZM108.026 114.97C107.806 114.83 107.546 114.65 107.246 114.43C106.966 114.19 106.716 114.07 106.496 114.07C106.256 114.07 106.016 114.18 105.776 114.4C105.556 114.62 105.356 114.88 105.176 115.18C105.016 115.46 104.876 115.75 104.756 116.05C104.636 116.35 104.556 116.59 104.516 116.77C104.456 117.07 104.416 117.43 104.396 117.85C104.376 118.27 104.406 118.69 104.486 119.11C104.566 119.51 104.716 119.88 104.936 120.22C105.176 120.54 105.526 120.77 105.986 120.91C106.266 120.99 106.596 120.99 106.976 120.91C107.356 120.81 107.726 120.64 108.086 120.4C108.466 120.16 108.816 119.84 109.136 119.44C109.476 119.04 109.736 118.58 109.916 118.06C110.116 117.48 110.116 116.88 109.916 116.26C109.736 115.62 109.356 115.16 108.776 114.88C108.636 114.98 108.496 115.03 108.356 115.03C108.216 115.03 108.106 115.01 108.026 114.97ZM121.205 115.21C121.585 115.19 121.965 115.28 122.345 115.48C122.725 115.68 122.915 115.99 122.915 116.41C122.875 116.75 122.685 116.97 122.345 117.07C122.025 117.15 121.765 117.19 121.565 117.19C121.165 117.19 120.735 117.2 120.275 117.22C119.815 117.24 119.345 117.27 118.865 117.31C118.825 117.97 118.785 118.59 118.745 119.17C118.725 119.75 118.705 120.27 118.685 120.73C118.665 121.17 118.655 121.53 118.655 121.81C118.655 122.09 118.665 122.24 118.685 122.26C119.125 122.18 119.595 122.05 120.095 121.87C120.615 121.67 121.125 121.46 121.625 121.24C122.145 121 122.645 120.76 123.125 120.52C123.625 120.26 124.095 120.02 124.535 119.8C124.735 119.7 124.915 119.67 125.075 119.71C125.255 119.75 125.365 119.84 125.405 119.98C125.445 120.2 125.415 120.47 125.315 120.79C125.215 121.11 125.035 121.4 124.775 121.66C124.475 121.9 124.075 122.18 123.575 122.5C123.095 122.8 122.575 123.09 122.015 123.37C121.455 123.65 120.885 123.9 120.305 124.12C119.745 124.32 119.245 124.44 118.805 124.48C118.145 124.54 117.645 124.36 117.305 123.94C116.965 123.52 116.775 122.99 116.735 122.35C116.695 121.71 116.685 120.97 116.705 120.13C116.745 119.29 116.785 118.4 116.825 117.46C116.445 117.5 116.075 117.54 115.715 117.58C115.375 117.6 115.045 117.63 114.725 117.67C114.465 117.67 114.175 117.61 113.855 117.49C113.555 117.37 113.405 117.14 113.405 116.8C113.405 116.68 113.455 116.52 113.555 116.32C113.655 116.12 113.875 115.97 114.215 115.87C115.035 115.73 115.945 115.61 116.945 115.51C117.005 114.57 117.075 113.66 117.155 112.78C117.235 111.9 117.305 111.1 117.365 110.38C117.385 110.14 117.455 109.93 117.575 109.75C117.695 109.57 117.825 109.48 117.965 109.48C118.305 109.46 118.625 109.55 118.925 109.75C119.245 109.93 119.405 110.14 119.405 110.38C119.325 111.06 119.245 111.83 119.165 112.69C119.105 113.55 119.045 114.43 118.985 115.33C119.385 115.29 119.765 115.27 120.125 115.27C120.505 115.25 120.865 115.23 121.205 115.21ZM133.541 112.78C134.141 113 134.641 113.33 135.041 113.77C135.461 114.21 135.781 114.71 136.001 115.27C136.221 115.81 136.341 116.37 136.361 116.95C136.401 117.53 136.341 118.07 136.181 118.57C135.961 119.13 135.681 119.68 135.341 120.22C135.001 120.76 134.611 121.24 134.171 121.66C133.731 122.08 133.231 122.42 132.671 122.68C132.111 122.94 131.491 123.07 130.811 123.07C129.991 123.07 129.301 122.88 128.741 122.5C128.181 122.12 127.741 121.63 127.421 121.03C127.101 120.43 126.891 119.75 126.791 118.99C126.711 118.23 126.731 117.47 126.851 116.71C126.931 116.15 127.061 115.61 127.241 115.09C127.441 114.55 127.691 114.08 127.991 113.68C128.291 113.26 128.631 112.92 129.011 112.66C129.411 112.4 129.861 112.27 130.361 112.27C130.641 112.27 130.991 112.33 131.411 112.45C131.831 112.55 132.221 112.7 132.581 112.9C132.841 112.66 133.161 112.62 133.541 112.78ZM132.401 114.97C132.181 114.83 131.921 114.65 131.621 114.43C131.341 114.19 131.091 114.07 130.871 114.07C130.631 114.07 130.391 114.18 130.151 114.4C129.931 114.62 129.731 114.88 129.551 115.18C129.391 115.46 129.251 115.75 129.131 116.05C129.011 116.35 128.931 116.59 128.891 116.77C128.831 117.07 128.791 117.43 128.771 117.85C128.751 118.27 128.781 118.69 128.861 119.11C128.941 119.51 129.091 119.88 129.311 120.22C129.551 120.54 129.901 120.77 130.361 120.91C130.641 120.99 130.971 120.99 131.351 120.91C131.731 120.81 132.101 120.64 132.461 120.4C132.841 120.16 133.191 119.84 133.511 119.44C133.851 119.04 134.111 118.58 134.291 118.06C134.491 117.48 134.491 116.88 134.291 116.26C134.111 115.62 133.731 115.16 133.151 114.88C133.011 114.98 132.871 115.03 132.731 115.03C132.591 115.03 132.481 115.01 132.401 114.97ZM152.638 114.97C152.798 115.19 152.948 115.47 153.088 115.81C153.248 116.13 153.368 116.46 153.448 116.8C153.568 117.34 153.698 117.93 153.838 118.57C153.998 119.19 154.148 119.84 154.288 120.52C154.448 121.2 154.588 121.89 154.708 122.59C154.848 123.29 154.968 123.96 155.068 124.6C155.188 125.48 155.118 126.32 154.858 127.12C154.618 127.94 154.208 128.67 153.628 129.31C153.048 129.95 152.328 130.46 151.468 130.84C150.608 131.22 149.638 131.43 148.558 131.47C148.318 131.45 148.068 131.33 147.808 131.11C147.548 130.91 147.418 130.7 147.418 130.48C147.398 130.26 147.498 130.08 147.718 129.94C147.958 129.82 148.198 129.74 148.438 129.7C148.858 129.66 149.288 129.57 149.728 129.43C150.188 129.31 150.618 129.13 151.018 128.89C151.418 128.65 151.778 128.36 152.098 128.02C152.438 127.68 152.698 127.28 152.878 126.82C153.018 126.46 153.088 126.02 153.088 125.5C153.088 124.96 153.048 124.43 152.968 123.91C152.908 123.39 152.818 122.9 152.698 122.44C152.598 121.96 152.508 121.6 152.428 121.36C152.288 121.5 152.108 121.65 151.888 121.81C151.688 121.97 151.458 122.12 151.198 122.26C150.938 122.4 150.648 122.51 150.328 122.59C150.028 122.67 149.718 122.7 149.398 122.68C149.058 122.66 148.738 122.54 148.438 122.32C148.158 122.1 147.908 121.82 147.688 121.48C147.468 121.12 147.288 120.71 147.148 120.25C147.028 119.79 146.968 119.31 146.968 118.81C147.008 117.61 147.308 116.55 147.868 115.63C148.448 114.69 149.368 113.96 150.628 113.44C150.728 113.42 150.858 113.4 151.018 113.38C151.198 113.36 151.378 113.36 151.558 113.38C151.738 113.38 151.908 113.4 152.068 113.44C152.248 113.48 152.398 113.54 152.518 113.62C152.738 113.78 152.848 114.01 152.848 114.31C152.848 114.61 152.778 114.83 152.638 114.97ZM148.858 119.08C148.858 119.3 148.878 119.55 148.918 119.83C148.958 120.09 149.088 120.28 149.308 120.4C149.548 120.54 149.838 120.56 150.178 120.46C150.538 120.36 150.868 120.19 151.168 119.95C151.448 119.73 151.628 119.49 151.708 119.23C151.808 118.95 151.808 118.58 151.708 118.12C151.608 117.66 151.498 117.18 151.378 116.68C151.258 116.18 151.178 115.73 151.138 115.33C150.898 115.45 150.638 115.62 150.358 115.84C150.098 116.06 149.858 116.34 149.638 116.68C149.418 117 149.228 117.36 149.068 117.76C148.928 118.16 148.858 118.6 148.858 119.08ZM164.244 112.78C164.844 113 165.344 113.33 165.744 113.77C166.164 114.21 166.484 114.71 166.704 115.27C166.924 115.81 167.044 116.37 167.064 116.95C167.104 117.53 167.044 118.07 166.884 118.57C166.664 119.13 166.384 119.68 166.044 120.22C165.704 120.76 165.314 121.24 164.874 121.66C164.434 122.08 163.934 122.42 163.374 122.68C162.814 122.94 162.194 123.07 161.514 123.07C160.694 123.07 160.004 122.88 159.444 122.5C158.884 122.12 158.444 121.63 158.124 121.03C157.804 120.43 157.594 119.75 157.494 118.99C157.414 118.23 157.434 117.47 157.554 116.71C157.634 116.15 157.764 115.61 157.944 115.09C158.144 114.55 158.394 114.08 158.694 113.68C158.994 113.26 159.334 112.92 159.714 112.66C160.114 112.4 160.564 112.27 161.064 112.27C161.344 112.27 161.694 112.33 162.114 112.45C162.534 112.55 162.924 112.7 163.284 112.9C163.544 112.66 163.864 112.62 164.244 112.78ZM163.104 114.97C162.884 114.83 162.624 114.65 162.324 114.43C162.044 114.19 161.794 114.07 161.574 114.07C161.334 114.07 161.094 114.18 160.854 114.4C160.634 114.62 160.434 114.88 160.254 115.18C160.094 115.46 159.954 115.75 159.834 116.05C159.714 116.35 159.634 116.59 159.594 116.77C159.534 117.07 159.494 117.43 159.474 117.85C159.454 118.27 159.484 118.69 159.564 119.11C159.644 119.51 159.794 119.88 160.014 120.22C160.254 120.54 160.604 120.77 161.064 120.91C161.344 120.99 161.674 120.99 162.054 120.91C162.434 120.81 162.804 120.64 163.164 120.4C163.544 120.16 163.894 119.84 164.214 119.44C164.554 119.04 164.814 118.58 164.994 118.06C165.194 117.48 165.194 116.88 164.994 116.26C164.814 115.62 164.434 115.16 163.854 114.88C163.714 114.98 163.574 115.03 163.434 115.03C163.294 115.03 163.184 115.01 163.104 114.97ZM176.733 116.2C175.953 116.66 175.113 117.02 174.213 117.28C173.313 117.52 172.343 117.64 171.303 117.64C171.343 118.34 171.543 118.9 171.903 119.32C172.263 119.72 172.713 119.96 173.253 120.04C173.573 120.08 173.893 120.07 174.213 120.01C174.553 119.95 174.863 119.86 175.143 119.74C175.443 119.6 175.713 119.45 175.953 119.29C176.193 119.13 176.403 118.97 176.583 118.81C176.763 118.65 176.953 118.55 177.153 118.51C177.353 118.45 177.503 118.44 177.603 118.48C177.883 118.58 177.983 118.88 177.903 119.38C177.583 120.02 177.123 120.57 176.523 121.03C175.923 121.47 175.253 121.75 174.513 121.87C173.873 121.99 173.213 121.96 172.533 121.78C171.853 121.6 171.243 121.25 170.703 120.73C170.243 120.27 169.893 119.73 169.653 119.11C169.413 118.49 169.263 117.85 169.203 117.19C169.143 116.57 169.193 115.98 169.353 115.42C169.533 114.86 169.803 114.37 170.163 113.95C170.523 113.51 170.973 113.15 171.513 112.87C172.053 112.59 172.683 112.43 173.403 112.39C174.263 112.33 175.043 112.49 175.743 112.87C176.443 113.25 176.933 113.78 177.213 114.46C177.373 114.84 177.413 115.17 177.333 115.45C177.273 115.73 177.073 115.98 176.733 116.2ZM173.283 114.16C173.083 114.2 172.863 114.27 172.623 114.37C172.403 114.47 172.193 114.6 171.993 114.76C171.813 114.9 171.643 115.07 171.483 115.27C171.343 115.45 171.263 115.66 171.243 115.9C171.583 115.9 171.953 115.87 172.353 115.81C172.773 115.75 173.173 115.68 173.553 115.6C173.953 115.5 174.313 115.39 174.633 115.27C174.973 115.15 175.253 115.02 175.473 114.88C175.313 114.5 175.013 114.27 174.573 114.19C174.153 114.09 173.723 114.08 173.283 114.16ZM185.601 114.28C185.561 114.06 185.521 113.85 185.481 113.65C185.441 113.45 185.341 113.32 185.181 113.26C184.841 113.16 184.481 113.15 184.101 113.23C183.721 113.31 183.371 113.44 183.051 113.62C182.731 113.78 182.461 113.97 182.241 114.19C182.021 114.39 181.901 114.57 181.881 114.73C181.821 115.03 181.901 115.32 182.121 115.6C182.341 115.88 182.661 116.16 183.081 116.44C183.781 116.86 184.511 117.29 185.271 117.73C186.031 118.17 186.671 118.62 187.191 119.08C187.711 119.54 188.061 120.05 188.241 120.61C188.441 121.15 188.401 121.77 188.121 122.47C187.901 123.01 187.491 123.45 186.891 123.79C186.291 124.13 185.631 124.4 184.911 124.6C184.191 124.78 183.471 124.91 182.751 124.99C182.031 125.05 181.421 125.08 180.921 125.08C180.801 125.08 180.651 125.04 180.471 124.96C180.311 124.86 180.151 124.75 179.991 124.63C179.851 124.51 179.721 124.39 179.601 124.27C179.501 124.13 179.451 124.01 179.451 123.91C179.451 123.55 179.611 123.3 179.931 123.16C180.251 123.02 180.581 122.95 180.921 122.95C181.401 122.95 181.911 122.93 182.451 122.89C183.011 122.83 183.541 122.75 184.041 122.65C184.541 122.53 184.991 122.38 185.391 122.2C185.791 122.02 186.071 121.79 186.231 121.51C186.371 121.27 186.281 120.99 185.961 120.67C185.661 120.33 185.251 119.98 184.731 119.62C184.231 119.26 183.681 118.91 183.081 118.57C182.501 118.23 182.001 117.92 181.581 117.64C181.161 117.36 180.801 117.03 180.501 116.65C180.201 116.25 180.011 115.76 179.931 115.18C179.911 114.66 180.021 114.16 180.261 113.68C180.501 113.2 180.811 112.78 181.191 112.42C181.591 112.04 182.041 111.74 182.541 111.52C183.041 111.3 183.541 111.19 184.041 111.19C184.901 111.23 185.611 111.47 186.171 111.91C186.731 112.33 187.061 112.96 187.161 113.8C187.161 114.08 187.111 114.31 187.011 114.49C186.931 114.67 186.781 114.78 186.561 114.82C186.281 114.86 186.051 114.83 185.871 114.73C185.711 114.61 185.621 114.46 185.601 114.28ZM200.665 109.96C200.665 110.44 200.655 110.98 200.635 111.58C200.635 112.18 200.635 112.8 200.635 113.44C200.655 114.08 200.665 114.74 200.665 115.42C200.685 116.1 200.705 116.75 200.725 117.37C200.925 116.97 201.165 116.58 201.445 116.2C201.725 115.8 202.035 115.45 202.375 115.15C202.735 114.85 203.105 114.61 203.485 114.43C203.885 114.25 204.315 114.16 204.775 114.16C205.275 114.16 205.715 114.32 206.095 114.64C206.495 114.96 206.835 115.39 207.115 115.93C207.415 116.45 207.665 117.04 207.865 117.7C208.065 118.34 208.225 119 208.345 119.68C208.485 120.34 208.585 120.98 208.645 121.6C208.705 122.2 208.755 122.72 208.795 123.16C208.795 123.48 208.715 123.74 208.555 123.94C208.395 124.14 208.205 124.24 207.985 124.24C207.825 124.24 207.625 124.14 207.385 123.94C207.165 123.72 207.005 123.46 206.905 123.16C206.845 122.92 206.785 122.57 206.725 122.11C206.665 121.65 206.595 121.16 206.515 120.64C206.435 120.1 206.335 119.56 206.215 119.02C206.095 118.48 205.945 118 205.765 117.58C205.605 117.14 205.405 116.8 205.165 116.56C204.925 116.32 204.645 116.23 204.325 116.29C203.825 116.39 203.385 116.74 203.005 117.34C202.645 117.94 202.325 118.62 202.045 119.38C201.785 120.14 201.565 120.91 201.385 121.69C201.225 122.47 201.105 123.1 201.025 123.58C200.945 123.94 200.835 124.19 200.695 124.33C200.575 124.45 200.435 124.51 200.275 124.51C200.115 124.51 199.965 124.43 199.825 124.27C199.705 124.11 199.585 123.92 199.465 123.7C199.365 123.46 199.275 123.22 199.195 122.98C199.115 122.72 199.065 122.5 199.045 122.32C198.945 121.24 198.865 120.21 198.805 119.23C198.745 118.23 198.695 117.23 198.655 116.23C198.635 115.23 198.625 114.21 198.625 113.17C198.625 112.11 198.645 110.98 198.685 109.78C198.685 108.78 199.045 108.33 199.765 108.43C200.005 108.47 200.215 108.65 200.395 108.97C200.575 109.27 200.665 109.6 200.665 109.96ZM218.218 116.2C217.438 116.66 216.598 117.02 215.698 117.28C214.798 117.52 213.828 117.64 212.788 117.64C212.828 118.34 213.028 118.9 213.388 119.32C213.748 119.72 214.198 119.96 214.738 120.04C215.058 120.08 215.378 120.07 215.698 120.01C216.038 119.95 216.348 119.86 216.628 119.74C216.928 119.6 217.198 119.45 217.438 119.29C217.678 119.13 217.888 118.97 218.068 118.81C218.248 118.65 218.438 118.55 218.638 118.51C218.838 118.45 218.988 118.44 219.088 118.48C219.368 118.58 219.468 118.88 219.388 119.38C219.068 120.02 218.608 120.57 218.008 121.03C217.408 121.47 216.738 121.75 215.998 121.87C215.358 121.99 214.698 121.96 214.018 121.78C213.338 121.6 212.728 121.25 212.188 120.73C211.728 120.27 211.378 119.73 211.138 119.11C210.898 118.49 210.748 117.85 210.688 117.19C210.628 116.57 210.678 115.98 210.838 115.42C211.018 114.86 211.288 114.37 211.648 113.95C212.008 113.51 212.458 113.15 212.998 112.87C213.538 112.59 214.168 112.43 214.888 112.39C215.748 112.33 216.528 112.49 217.228 112.87C217.928 113.25 218.418 113.78 218.698 114.46C218.858 114.84 218.898 115.17 218.818 115.45C218.758 115.73 218.558 115.98 218.218 116.2ZM214.768 114.16C214.568 114.2 214.348 114.27 214.108 114.37C213.888 114.47 213.678 114.6 213.478 114.76C213.298 114.9 213.128 115.07 212.968 115.27C212.828 115.45 212.748 115.66 212.728 115.9C213.068 115.9 213.438 115.87 213.838 115.81C214.258 115.75 214.658 115.68 215.038 115.6C215.438 115.5 215.798 115.39 216.118 115.27C216.458 115.15 216.738 115.02 216.958 114.88C216.798 114.5 216.498 114.27 216.058 114.19C215.638 114.09 215.208 114.08 214.768 114.16ZM230.445 112.9C230.085 113.1 229.705 113.31 229.305 113.53C228.925 113.75 228.535 114.01 228.135 114.31C227.755 114.59 227.385 114.93 227.025 115.33C226.685 115.71 226.375 116.17 226.095 116.71C225.695 117.47 225.425 118.25 225.285 119.05C225.145 119.83 225.055 120.6 225.015 121.36C225.015 121.72 224.925 122.09 224.745 122.47C224.585 122.83 224.355 123.01 224.055 123.01C223.675 123.01 223.365 122.82 223.125 122.44C222.905 122.04 222.755 121.66 222.675 121.3C222.335 119.88 222.055 118.48 221.835 117.1C221.615 115.7 221.425 114.31 221.265 112.93C221.265 112.65 221.345 112.47 221.505 112.39C221.685 112.31 221.885 112.28 222.105 112.3C222.345 112.32 222.575 112.38 222.795 112.48C223.015 112.58 223.145 112.74 223.185 112.96C223.265 113.7 223.365 114.48 223.485 115.3C223.605 116.1 223.725 116.79 223.845 117.37C223.925 116.69 224.145 116.03 224.505 115.39C224.865 114.75 225.305 114.17 225.825 113.65C226.365 113.13 226.965 112.69 227.625 112.33C228.305 111.97 228.995 111.73 229.695 111.61C229.995 111.57 230.245 111.57 230.445 111.61C230.645 111.65 230.785 111.72 230.865 111.82C230.945 111.92 230.955 112.08 230.895 112.3C230.855 112.52 230.705 112.72 230.445 112.9ZM239.516 116.2C238.736 116.66 237.896 117.02 236.996 117.28C236.096 117.52 235.126 117.64 234.086 117.64C234.126 118.34 234.326 118.9 234.686 119.32C235.046 119.72 235.496 119.96 236.036 120.04C236.356 120.08 236.676 120.07 236.996 120.01C237.336 119.95 237.646 119.86 237.926 119.74C238.226 119.6 238.496 119.45 238.736 119.29C238.976 119.13 239.186 118.97 239.366 118.81C239.546 118.65 239.736 118.55 239.936 118.51C240.136 118.45 240.286 118.44 240.386 118.48C240.666 118.58 240.766 118.88 240.686 119.38C240.366 120.02 239.906 120.57 239.306 121.03C238.706 121.47 238.036 121.75 237.296 121.87C236.656 121.99 235.996 121.96 235.316 121.78C234.636 121.6 234.026 121.25 233.486 120.73C233.026 120.27 232.676 119.73 232.436 119.11C232.196 118.49 232.046 117.85 231.986 117.19C231.926 116.57 231.976 115.98 232.136 115.42C232.316 114.86 232.586 114.37 232.946 113.95C233.306 113.51 233.756 113.15 234.296 112.87C234.836 112.59 235.466 112.43 236.186 112.39C237.046 112.33 237.826 112.49 238.526 112.87C239.226 113.25 239.716 113.78 239.996 114.46C240.156 114.84 240.196 115.17 240.116 115.45C240.056 115.73 239.856 115.98 239.516 116.2ZM236.066 114.16C235.866 114.2 235.646 114.27 235.406 114.37C235.186 114.47 234.976 114.6 234.776 114.76C234.596 114.9 234.426 115.07 234.266 115.27C234.126 115.45 234.046 115.66 234.026 115.9C234.366 115.9 234.736 115.87 235.136 115.81C235.556 115.75 235.956 115.68 236.336 115.6C236.736 115.5 237.096 115.39 237.416 115.27C237.756 115.15 238.036 115.02 238.256 114.88C238.096 114.5 237.796 114.27 237.356 114.19C236.936 114.09 236.506 114.08 236.066 114.16Z" fill="white"/>
</svg>
