<svg width="40" height="40" viewBox="0 0 40 40" fill="none" xmlns="http://www.w3.org/2000/svg">
<rect width="40" height="40" fill="white"/>
<path fill-rule="evenodd" clip-rule="evenodd" d="M17.2462 2.03484C25.977 1.54987 34.855 6.14902 37.4332 14.5046C39.921 22.5674 34.4644 30.4177 27.4522 35.1111C21.3132 39.22 13.2866 39.078 7.41355 34.5972C1.92983 30.4134 0.959769 23.0228 2.95364 16.4198C5.11388 9.26584 9.78471 2.4493 17.2462 2.03484Z" fill="#FFAFAF"/>
<path d="M8.52818 26.36C8.45818 26.388 8.39752 26.3903 8.34618 26.367C8.29485 26.3437 8.25752 26.3133 8.23418 26.276C8.20152 26.2293 8.19218 26.1803 8.20618 26.129C8.22018 26.0777 8.25985 26.0333 8.32518 25.996C8.43252 25.9353 8.56785 25.8863 8.73118 25.849C8.89452 25.807 9.06952 25.7953 9.25618 25.814C9.44285 25.8327 9.61318 25.884 9.76718 25.968C9.92585 26.0473 10.0589 26.15 10.1662 26.276C10.2782 26.402 10.3622 26.5467 10.4182 26.71C10.4789 26.8687 10.5069 27.0367 10.5022 27.214C10.4929 27.4007 10.4555 27.5873 10.3902 27.774C10.3295 27.9607 10.2432 28.1357 10.1312 28.299C10.0239 28.4623 9.89318 28.6117 9.73918 28.747C9.58985 28.8777 9.42418 28.9803 9.24218 29.055C9.11618 29.0877 9.02052 29.0923 8.95518 29.069C8.88985 29.0457 8.84552 29.0177 8.82218 28.985C8.81285 28.9617 8.80818 28.9313 8.80818 28.894C8.81285 28.852 8.83852 28.81 8.88518 28.768C8.82918 28.3153 8.79418 27.879 8.78018 27.459C8.77085 27.0343 8.76618 26.647 8.76618 26.297C8.68685 26.311 8.60752 26.332 8.52818 26.36ZM9.29118 26.269C9.26318 26.2643 9.23285 26.262 9.20018 26.262C9.17218 26.2573 9.14418 26.255 9.11618 26.255C9.14418 26.2923 9.16752 26.339 9.18618 26.395C9.20485 26.4463 9.21418 26.4977 9.21418 26.549C9.21418 26.8337 9.21652 27.1393 9.22118 27.466C9.23052 27.7927 9.25385 28.145 9.29118 28.523C9.49652 28.3737 9.67152 28.187 9.81618 27.963C9.96552 27.7343 10.0449 27.494 10.0542 27.242C10.0589 27.0087 10.0005 26.8033 9.87918 26.626C9.75785 26.444 9.56185 26.325 9.29118 26.269ZM12.1913 28.53C12.196 28.5487 12.1983 28.5767 12.1983 28.614C12.1983 28.6467 12.1913 28.6817 12.1773 28.719C12.1633 28.7517 12.1423 28.782 12.1143 28.81C12.091 28.8333 12.056 28.845 12.0093 28.845C11.9066 28.7797 11.8203 28.6933 11.7503 28.586C11.713 28.446 11.678 28.285 11.6453 28.103C11.6173 27.921 11.594 27.732 11.5753 27.536C11.5566 27.3353 11.5426 27.1323 11.5333 26.927C11.5286 26.7217 11.5286 26.5233 11.5333 26.332C11.5333 26.2993 11.5356 26.2573 11.5403 26.206C11.5496 26.1547 11.5636 26.1057 11.5823 26.059C11.601 26.0077 11.6243 25.9657 11.6523 25.933C11.6803 25.8957 11.72 25.877 11.7713 25.877C11.832 25.877 11.881 25.8957 11.9183 25.933C11.9556 25.9703 11.9743 26.031 11.9743 26.115C11.9696 26.3017 11.9696 26.5023 11.9743 26.717C11.9836 26.927 11.9976 27.1393 12.0163 27.354C12.035 27.5687 12.0583 27.7787 12.0863 27.984C12.119 28.1847 12.154 28.3667 12.1913 28.53ZM13.514 29.132C13.4907 29.2113 13.4604 29.2837 13.423 29.349C13.3857 29.4097 13.346 29.4447 13.304 29.454C13.2154 29.4773 13.1477 29.4633 13.101 29.412C13.0544 29.3607 13.0357 29.2953 13.045 29.216C13.0824 28.936 13.143 28.642 13.227 28.334C13.311 28.0213 13.409 27.711 13.521 27.403C13.633 27.0903 13.7544 26.7893 13.885 26.5C14.0204 26.206 14.158 25.94 14.298 25.702C14.3214 25.6647 14.347 25.6437 14.375 25.639C14.4077 25.6297 14.4357 25.6297 14.459 25.639C14.4824 25.6203 14.5104 25.604 14.543 25.59C14.5757 25.576 14.6084 25.569 14.641 25.569C14.655 25.569 14.669 25.5713 14.683 25.576C14.7017 25.5807 14.7204 25.5947 14.739 25.618C14.7577 25.6413 14.7787 25.6763 14.802 25.723C14.83 25.765 14.8627 25.828 14.9 25.912C14.9654 26.15 15.04 26.395 15.124 26.647C15.2127 26.899 15.3037 27.151 15.397 27.403C15.411 27.3983 15.4227 27.396 15.432 27.396C15.446 27.3913 15.46 27.3867 15.474 27.382C15.5254 27.3773 15.5837 27.3797 15.649 27.389C15.7144 27.3983 15.7587 27.431 15.782 27.487C15.81 27.557 15.8054 27.6177 15.768 27.669C15.7307 27.7203 15.663 27.7717 15.565 27.823C15.6257 27.9723 15.6864 28.1193 15.747 28.264C15.8077 28.404 15.8707 28.5417 15.936 28.677C15.9407 28.7003 15.9477 28.7377 15.957 28.789C15.9664 28.8357 15.971 28.8847 15.971 28.936C15.9757 28.9827 15.9734 29.027 15.964 29.069C15.9547 29.111 15.936 29.139 15.908 29.153C15.8754 29.167 15.8404 29.1647 15.803 29.146C15.7704 29.1273 15.7377 29.104 15.705 29.076C15.6724 29.0433 15.642 29.0107 15.614 28.978C15.5907 28.9407 15.572 28.908 15.558 28.88C15.4787 28.726 15.4017 28.572 15.327 28.418C15.257 28.2593 15.1894 28.1007 15.124 27.942C14.928 27.9793 14.7134 28.012 14.48 28.04C14.2514 28.068 14.025 28.0867 13.801 28.096C13.7497 28.2733 13.6984 28.4483 13.647 28.621C13.6004 28.789 13.556 28.9593 13.514 29.132ZM14.508 26.192C14.2934 26.6727 14.1067 27.1533 13.948 27.634C14.2607 27.6247 14.5944 27.585 14.949 27.515C14.781 27.0903 14.634 26.6493 14.508 26.192ZM17.2658 29.013C17.2518 28.8403 17.2401 28.6443 17.2308 28.425C17.2261 28.2057 17.2238 27.9817 17.2238 27.753C17.2238 27.5197 17.2238 27.291 17.2238 27.067C17.2284 26.843 17.2354 26.64 17.2448 26.458C17.2448 26.4113 17.2658 26.3763 17.3078 26.353C17.3544 26.325 17.3918 26.3133 17.4198 26.318C17.5038 26.3273 17.5598 26.3577 17.5878 26.409C17.6204 26.4557 17.6414 26.5233 17.6508 26.612C17.6461 26.7613 17.6414 26.9107 17.6368 27.06C17.6368 27.2093 17.6391 27.3587 17.6438 27.508C17.8538 27.4707 18.0288 27.3937 18.1688 27.277C18.3134 27.1603 18.4161 27.0273 18.4768 26.878C18.5001 26.822 18.5164 26.7543 18.5258 26.675C18.5398 26.5957 18.5421 26.5163 18.5328 26.437C18.5234 26.353 18.5001 26.276 18.4628 26.206C18.4301 26.1313 18.3788 26.073 18.3088 26.031C18.2061 25.9703 18.0941 25.9377 17.9728 25.933C17.8514 25.9283 17.7254 25.947 17.5948 25.989C17.4688 26.0263 17.3428 26.087 17.2168 26.171C17.0954 26.255 16.9811 26.3553 16.8738 26.472C16.8878 26.542 16.8784 26.605 16.8458 26.661C16.8131 26.7123 16.7664 26.7497 16.7058 26.773C16.6684 26.7823 16.6241 26.7637 16.5728 26.717C16.5214 26.6657 16.4958 26.6143 16.4958 26.563C16.4958 26.3763 16.5471 26.2153 16.6498 26.08C16.7571 25.94 16.8901 25.8233 17.0488 25.73C17.2074 25.6367 17.3778 25.5667 17.5598 25.52C17.7418 25.4733 17.9098 25.45 18.0638 25.45C18.2924 25.45 18.4838 25.5177 18.6378 25.653C18.7918 25.7837 18.8968 25.9493 18.9528 26.15C19.0508 26.5 19.0251 26.815 18.8758 27.095C18.7311 27.375 18.4931 27.6177 18.1618 27.823C18.4044 27.9723 18.6308 28.1147 18.8408 28.25C19.0554 28.3853 19.2701 28.5323 19.4848 28.691C19.5128 28.719 19.5431 28.761 19.5758 28.817C19.6131 28.8683 19.6084 28.9477 19.5618 29.055C19.5338 29.1203 19.4848 29.1577 19.4148 29.167C19.3494 29.1717 19.2841 29.1507 19.2188 29.104C19.1161 29.02 18.9994 28.9337 18.8688 28.845C18.7428 28.7517 18.6098 28.6607 18.4698 28.572C18.3298 28.4787 18.1898 28.39 18.0498 28.306C17.9098 28.2173 17.7768 28.1357 17.6508 28.061C17.6554 28.2477 17.6578 28.4343 17.6578 28.621C17.6624 28.803 17.6694 28.9827 17.6788 29.16C17.6788 29.2253 17.6601 29.272 17.6228 29.3C17.5854 29.3233 17.5388 29.335 17.4828 29.335C17.4548 29.3303 17.4291 29.3163 17.4058 29.293C17.3824 29.265 17.3591 29.2347 17.3358 29.202C17.3171 29.1647 17.3008 29.1297 17.2868 29.097C17.2728 29.0597 17.2658 29.0317 17.2658 29.013ZM21.5235 27.564C21.5048 27.6387 21.4861 27.7483 21.4675 27.893C21.4535 28.033 21.4395 28.1823 21.4255 28.341C21.4161 28.495 21.4068 28.6443 21.3975 28.789C21.3928 28.9337 21.3905 29.0457 21.3905 29.125C21.3905 29.2603 21.3158 29.328 21.1665 29.328C21.1151 29.328 21.0661 29.314 21.0195 29.286C20.9775 29.258 20.9565 29.2043 20.9565 29.125C20.9565 28.929 20.9635 28.7167 20.9775 28.488C20.9915 28.2593 21.0101 28.0237 21.0335 27.781C20.8701 27.4823 20.7161 27.1883 20.5715 26.899C20.4315 26.6097 20.3125 26.3437 20.2145 26.101C20.1958 26.059 20.1795 26.0147 20.1655 25.968C20.1561 25.9167 20.1515 25.87 20.1515 25.828C20.1561 25.786 20.1678 25.751 20.1865 25.723C20.2051 25.6903 20.2378 25.6693 20.2845 25.66C20.3358 25.6553 20.3848 25.66 20.4315 25.674C20.4828 25.6833 20.5271 25.7137 20.5645 25.765C20.6018 25.863 20.6485 25.975 20.7045 26.101C20.7605 26.227 20.8188 26.3553 20.8795 26.486C20.9401 26.6167 21.0008 26.7427 21.0615 26.864C21.1221 26.9807 21.1758 27.081 21.2225 27.165C21.4325 26.885 21.6308 26.598 21.8175 26.304C22.0088 26.01 22.1861 25.73 22.3495 25.464C22.4101 25.3707 22.4731 25.3193 22.5385 25.31C22.6038 25.3007 22.6575 25.3147 22.6995 25.352C22.7368 25.38 22.7578 25.4267 22.7625 25.492C22.7718 25.5573 22.7648 25.6157 22.7415 25.667C22.6621 25.807 22.5688 25.961 22.4615 26.129C22.3588 26.2923 22.2515 26.458 22.1395 26.626C22.0321 26.794 21.9248 26.9597 21.8175 27.123C21.7101 27.2863 21.6121 27.4333 21.5235 27.564ZM27.0943 29.384C27.0429 29.384 26.9893 29.3443 26.9333 29.265C26.8819 29.1857 26.8539 29.1087 26.8493 29.034C26.8119 28.7633 26.7653 28.4483 26.7093 28.089C26.6579 27.725 26.5879 27.2957 26.4993 26.801C26.3593 27.067 26.2216 27.3307 26.0863 27.592C25.9509 27.8533 25.8156 28.1147 25.6803 28.376C25.5963 28.5393 25.5099 28.621 25.4213 28.621C25.2906 28.621 25.1879 28.5533 25.1133 28.418C24.9499 28.18 24.7796 27.9583 24.6023 27.753C24.4296 27.543 24.2499 27.3353 24.0633 27.13C24.0539 27.4427 24.0563 27.7507 24.0703 28.054C24.0889 28.3527 24.1193 28.6443 24.1613 28.929C24.1706 28.9803 24.1636 29.027 24.1403 29.069C24.1216 29.1063 24.1006 29.1297 24.0773 29.139C24.0119 29.1623 23.9466 29.1483 23.8813 29.097C23.8159 29.0457 23.7763 28.9897 23.7623 28.929C23.7203 28.761 23.6899 28.5743 23.6713 28.369C23.6526 28.1637 23.6386 27.956 23.6293 27.746C23.6246 27.536 23.6223 27.3283 23.6223 27.123C23.6223 26.9177 23.6246 26.731 23.6293 26.563C23.6293 26.3763 23.6899 26.283 23.8113 26.283C23.8859 26.283 23.9489 26.311 24.0003 26.367C24.0516 26.4183 24.0796 26.493 24.0843 26.591C24.3176 26.8243 24.5369 27.0647 24.7423 27.312C24.9523 27.5547 25.1553 27.802 25.3513 28.054C25.5146 27.76 25.6803 27.459 25.8483 27.151C26.0163 26.8383 26.2053 26.535 26.4153 26.241C26.4246 26.1897 26.4503 26.1383 26.4923 26.087C26.5343 26.031 26.5809 25.9937 26.6323 25.975C26.6836 25.9563 26.7373 25.9773 26.7933 26.038C26.8493 26.0987 26.8866 26.1687 26.9053 26.248C26.9846 26.7193 27.0523 27.1907 27.1083 27.662C27.1689 28.1333 27.2273 28.6047 27.2833 29.076C27.2926 29.1647 27.2763 29.2393 27.2343 29.3C27.1923 29.356 27.1456 29.384 27.0943 29.384ZM30.2467 27.389C30.2654 27.4357 30.2467 27.4823 30.1907 27.529C30.1347 27.571 30.0461 27.599 29.9247 27.613C29.7147 27.641 29.5001 27.6713 29.2807 27.704C29.0614 27.732 28.8374 27.7623 28.6087 27.795C28.5994 28.033 28.5994 28.271 28.6087 28.509C28.7161 28.509 28.8444 28.4997 28.9937 28.481C29.1477 28.4577 29.3041 28.4297 29.4627 28.397C29.6214 28.3643 29.7731 28.3317 29.9177 28.299C30.0671 28.2617 30.1931 28.2313 30.2957 28.208C30.3471 28.194 30.4007 28.1847 30.4567 28.18C30.5127 28.1707 30.5617 28.1707 30.6037 28.18C30.6504 28.1847 30.6877 28.201 30.7157 28.229C30.7437 28.257 30.7577 28.2967 30.7577 28.348C30.7577 28.362 30.7414 28.383 30.7087 28.411C30.6761 28.439 30.6341 28.4693 30.5827 28.502C30.5361 28.53 30.4847 28.558 30.4287 28.586C30.3774 28.6093 30.3307 28.628 30.2887 28.642C29.9994 28.7353 29.7147 28.817 29.4347 28.887C29.1547 28.9523 28.8817 28.9873 28.6157 28.992C28.4617 28.9967 28.3451 28.957 28.2657 28.873C28.1864 28.7843 28.1444 28.6583 28.1397 28.495C28.1304 28.2663 28.1304 28.0353 28.1397 27.802C28.0604 27.7553 28.0207 27.69 28.0207 27.606C28.0301 27.5173 28.0721 27.4567 28.1467 27.424C28.1561 27.2887 28.1631 27.1533 28.1677 27.018C28.1724 26.878 28.1794 26.7403 28.1887 26.605C28.1374 26.5957 28.0907 26.57 28.0487 26.528C28.0114 26.486 27.9927 26.4393 27.9927 26.388C27.9927 26.346 28.0021 26.3087 28.0207 26.276C28.0394 26.2387 28.0744 26.2107 28.1257 26.192C28.2097 26.1733 28.3124 26.1523 28.4337 26.129C28.5551 26.1057 28.6787 26.0847 28.8047 26.066C28.9354 26.0473 29.0591 26.031 29.1757 26.017C29.2971 26.003 29.3997 25.9937 29.4837 25.989C29.5817 25.9797 29.6751 25.989 29.7637 26.017C29.8571 26.045 29.9434 26.0987 30.0227 26.178C30.0414 26.2433 30.0274 26.2923 29.9807 26.325C29.9387 26.3577 29.8827 26.3787 29.8127 26.388C29.7427 26.3973 29.6587 26.409 29.5607 26.423C29.4627 26.4323 29.3601 26.444 29.2527 26.458C29.1501 26.472 29.0451 26.486 28.9377 26.5C28.8351 26.5093 28.7371 26.521 28.6437 26.535C28.6437 26.5443 28.6437 26.556 28.6437 26.57C28.6484 26.5793 28.6507 26.5887 28.6507 26.598C28.6414 26.7193 28.6344 26.8407 28.6297 26.962C28.6251 27.0833 28.6204 27.2047 28.6157 27.326C28.8117 27.2933 29.0124 27.2653 29.2177 27.242C29.4231 27.214 29.5864 27.1953 29.7077 27.186C29.8057 27.1767 29.9014 27.1883 29.9947 27.221C30.0881 27.2537 30.1721 27.3097 30.2467 27.389Z" fill="white"/>
<path d="M18 12C18 13.3369 18.2 14.6657 18.2 16" stroke="white" stroke-linecap="round"/>
<path d="M22 11.5C22 13.004 22.2 14.4989 22.2 16" stroke="white" stroke-linecap="round"/>
<path d="M13 18C13.505 22.7811 26.1984 23.8585 27.5452 18" stroke="white" stroke-linecap="round"/>
</svg>
