<svg width="54" height="54" viewBox="0 0 54 54" fill="none" xmlns="http://www.w3.org/2000/svg">
<path d="M27 17.9226C28.7262 17.9226 30.125 19.3214 30.125 21.0476C30.125 22.7738 28.7262 24.1726 27 24.1726C25.2738 24.1726 23.875 22.7738 23.875 21.0476C23.875 19.3214 25.2738 17.9226 27 17.9226ZM27 31.3155C31.4196 31.3155 36.0774 33.4881 36.0774 34.4405V36.0774H17.9226V34.4405C17.9226 33.4881 22.5803 31.3155 27 31.3155ZM27 15.0952C23.7113 15.0952 21.0476 17.7589 21.0476 21.0476C21.0476 24.3363 23.7113 27 27 27C30.2887 27 32.9524 24.3363 32.9524 21.0476C32.9524 17.7589 30.2887 15.0952 27 15.0952ZM27 28.4881C23.0268 28.4881 15.0952 30.4821 15.0952 34.4405V37.4167C15.0952 38.2351 15.7649 38.9048 16.5833 38.9048H37.4167C38.2351 38.9048 38.9047 38.2351 38.9047 37.4167V34.4405C38.9047 30.4821 30.9732 28.4881 27 28.4881Z" fill="#323232"/>
<circle cx="27" cy="27" r="25" stroke="black" stroke-width="3"/>
</svg>
