<svg width="324" height="300" viewBox="0 0 324 300" fill="none" xmlns="http://www.w3.org/2000/svg">
<path fill-rule="evenodd" clip-rule="evenodd" d="M144.799 0.269107C214.62 -2.56159 292.458 16.4122 315.757 82.2918C340.457 152.131 300.226 225.753 239.599 268.32C182.16 308.649 104.972 312.025 49.1615 269.473C-3.24073 229.52 -10.2885 156.71 11.7709 94.6161C31.8908 37.9818 84.7462 2.70377 144.799 0.269107Z" fill="#1158BF"/>
<path d="M86.876 168.24C86.496 168.392 86.1667 168.405 85.888 168.278C85.6093 168.151 85.4067 167.987 85.28 167.784C85.1027 167.531 85.052 167.265 85.128 166.986C85.204 166.707 85.4193 166.467 85.774 166.264C86.3567 165.935 87.0913 165.669 87.978 165.466C88.8647 165.238 89.8147 165.175 90.828 165.276C91.8413 165.377 92.766 165.656 93.602 166.112C94.4633 166.543 95.1853 167.1 95.768 167.784C96.376 168.468 96.832 169.253 97.136 170.14C97.4653 171.001 97.6173 171.913 97.592 172.876C97.5413 173.889 97.3387 174.903 96.984 175.916C96.6547 176.929 96.186 177.879 95.578 178.766C94.9953 179.653 94.286 180.463 93.45 181.198C92.6393 181.907 91.74 182.465 90.752 182.87C90.068 183.047 89.5487 183.073 89.194 182.946C88.8393 182.819 88.5987 182.667 88.472 182.49C88.4213 182.363 88.396 182.199 88.396 181.996C88.4213 181.768 88.5607 181.54 88.814 181.312C88.51 178.855 88.32 176.486 88.244 174.206C88.1933 171.901 88.168 169.798 88.168 167.898C87.7373 167.974 87.3067 168.088 86.876 168.24ZM91.018 167.746C90.866 167.721 90.7013 167.708 90.524 167.708C90.372 167.683 90.22 167.67 90.068 167.67C90.22 167.873 90.3467 168.126 90.448 168.43C90.5493 168.709 90.6 168.987 90.6 169.266C90.6 170.811 90.6127 172.471 90.638 174.244C90.6887 176.017 90.8153 177.93 91.018 179.982C92.1327 179.171 93.0827 178.158 93.868 176.942C94.6787 175.701 95.1093 174.396 95.16 173.028C95.1853 171.761 94.8687 170.647 94.21 169.684C93.5513 168.696 92.4873 168.05 91.018 167.746ZM106.876 167.746C106.825 167.999 106.648 168.139 106.344 168.164C106.04 168.189 105.786 168.202 105.584 168.202C104.95 168.227 104.292 168.291 103.608 168.392C102.949 168.493 102.252 168.645 101.518 168.848C101.214 168.949 100.884 168.911 100.53 168.734C100.175 168.557 99.9596 168.202 99.8836 167.67C99.8836 167.467 99.9596 167.303 100.112 167.176C100.264 167.049 100.441 166.935 100.644 166.834C100.973 166.682 101.366 166.555 101.822 166.454C102.278 166.327 102.734 166.239 103.19 166.188C103.671 166.137 104.127 166.125 104.558 166.15C104.988 166.15 105.343 166.188 105.622 166.264C106.027 166.391 106.344 166.581 106.572 166.834C106.825 167.087 106.926 167.391 106.876 167.746ZM106.002 180.4C106.179 180.805 106.268 181.249 106.268 181.73C106.293 182.186 106.166 182.503 105.888 182.68C105.533 182.908 105.153 182.895 104.748 182.642C104.342 182.389 104.038 182.047 103.836 181.616C103.557 181.084 103.342 180.438 103.19 179.678C103.038 178.893 102.924 178.12 102.848 177.36C102.772 176.6 102.721 175.891 102.696 175.232C102.696 174.573 102.696 174.079 102.696 173.75C102.721 173.395 102.822 173.066 103 172.762C103.177 172.458 103.405 172.281 103.684 172.23C104.14 172.255 104.507 172.471 104.786 172.876C105.064 173.256 105.191 173.737 105.166 174.32C105.166 174.776 105.178 175.283 105.204 175.84C105.229 176.397 105.28 176.955 105.356 177.512C105.432 178.069 105.52 178.614 105.622 179.146C105.723 179.653 105.85 180.071 106.002 180.4ZM119.195 169.19C119.296 169.899 119.372 170.659 119.423 171.47C119.499 172.255 119.549 173.053 119.575 173.864C119.625 174.675 119.651 175.46 119.651 176.22C119.651 176.98 119.638 177.664 119.613 178.272C120.423 178.829 120.905 179.323 121.057 179.754C121.234 180.185 121.259 180.565 121.133 180.894C120.981 181.35 120.702 181.591 120.297 181.616C119.917 181.616 119.473 181.477 118.967 181.198C118.612 181.451 118.207 181.73 117.751 182.034C117.295 182.313 116.813 182.591 116.307 182.87C115.8 183.123 115.293 183.351 114.787 183.554C114.28 183.757 113.811 183.896 113.381 183.972C112.57 184.099 111.835 183.947 111.177 183.516C110.543 183.085 110.113 182.439 109.885 181.578C109.733 180.995 109.695 180.4 109.771 179.792C109.847 179.159 110.037 178.563 110.341 178.006C110.645 177.423 111.05 176.904 111.557 176.448C112.089 175.992 112.709 175.637 113.419 175.384C113.596 175.308 113.837 175.245 114.141 175.194C114.47 175.143 114.799 175.131 115.129 175.156C115.483 175.156 115.838 175.219 116.193 175.346C116.547 175.473 116.877 175.688 117.181 175.992C117.181 175.561 117.168 175.093 117.143 174.586C117.143 174.054 117.13 173.522 117.105 172.99C117.079 172.458 117.041 171.964 116.991 171.508C116.965 171.027 116.927 170.621 116.877 170.292C116.826 169.912 116.674 169.684 116.421 169.608C116.193 169.507 115.901 169.519 115.547 169.646C114.939 169.849 114.229 170.241 113.419 170.824C112.608 171.407 111.835 172.027 111.101 172.686C110.873 172.914 110.607 173.015 110.303 172.99C110.024 172.965 109.783 172.851 109.581 172.648C109.378 172.445 109.264 172.217 109.239 171.964C109.213 171.685 109.315 171.394 109.543 171.09C109.973 170.634 110.455 170.165 110.987 169.684C111.519 169.203 112.076 168.772 112.659 168.392C113.241 167.987 113.837 167.657 114.445 167.404C115.053 167.151 115.661 167.011 116.269 166.986C117.155 166.961 117.839 167.163 118.321 167.594C118.802 167.999 119.093 168.531 119.195 169.19ZM114.787 177.36C114.457 177.436 114.103 177.601 113.723 177.854C113.368 178.082 113.039 178.373 112.735 178.728C112.456 179.057 112.241 179.437 112.089 179.868C111.962 180.273 111.962 180.679 112.089 181.084C112.139 181.236 112.241 181.35 112.393 181.426C112.57 181.502 112.76 181.515 112.963 181.464C113.571 181.337 114.255 181.097 115.015 180.742C115.8 180.362 116.421 179.957 116.877 179.526C116.877 179.374 116.801 179.184 116.649 178.956C116.497 178.703 116.319 178.462 116.117 178.234C115.914 177.981 115.686 177.765 115.433 177.588C115.205 177.411 114.989 177.335 114.787 177.36ZM134.713 170.14C134.257 170.393 133.776 170.659 133.269 170.938C132.788 171.217 132.294 171.546 131.787 171.926C131.306 172.281 130.837 172.711 130.381 173.218C129.95 173.699 129.558 174.282 129.203 174.966C128.696 175.929 128.354 176.917 128.177 177.93C128 178.918 127.886 179.893 127.835 180.856C127.835 181.312 127.721 181.781 127.493 182.262C127.29 182.718 126.999 182.946 126.619 182.946C126.138 182.946 125.745 182.705 125.441 182.224C125.162 181.717 124.972 181.236 124.871 180.78C124.44 178.981 124.086 177.208 123.807 175.46C123.528 173.687 123.288 171.926 123.085 170.178C123.085 169.823 123.186 169.595 123.389 169.494C123.617 169.393 123.87 169.355 124.149 169.38C124.453 169.405 124.744 169.481 125.023 169.608C125.302 169.735 125.466 169.937 125.517 170.216C125.618 171.153 125.745 172.141 125.897 173.18C126.049 174.193 126.201 175.067 126.353 175.802C126.454 174.941 126.733 174.105 127.189 173.294C127.645 172.483 128.202 171.749 128.861 171.09C129.545 170.431 130.305 169.874 131.141 169.418C132.002 168.962 132.876 168.658 133.763 168.506C134.143 168.455 134.46 168.455 134.713 168.506C134.966 168.557 135.144 168.645 135.245 168.772C135.346 168.899 135.359 169.101 135.283 169.38C135.232 169.659 135.042 169.912 134.713 170.14ZM148.787 171.28C148.863 172.648 148.939 174.029 149.015 175.422C149.117 176.815 149.142 178.196 149.091 179.564C149.041 180.907 148.901 182.224 148.673 183.516C148.471 184.808 148.116 186.049 147.609 187.24C147.103 188.405 146.419 189.495 145.557 190.508C144.721 191.521 143.657 192.433 142.365 193.244C142.163 193.371 141.935 193.447 141.681 193.472C141.453 193.497 141.225 193.485 140.997 193.434C140.769 193.409 140.567 193.345 140.389 193.244C140.212 193.168 140.098 193.054 140.047 192.902C139.971 192.674 140.009 192.421 140.161 192.142C140.313 191.863 140.567 191.572 140.921 191.268C142.036 190.432 142.973 189.545 143.733 188.608C144.493 187.671 145.101 186.657 145.557 185.568C146.013 184.479 146.305 183.301 146.431 182.034C146.583 180.742 146.583 179.336 146.431 177.816C146.127 178.196 145.773 178.589 145.367 178.994C144.962 179.399 144.531 179.767 144.075 180.096C143.619 180.4 143.151 180.666 142.669 180.894C142.188 181.097 141.732 181.198 141.301 181.198C140.947 181.198 140.592 181.122 140.237 180.97C139.883 180.818 139.528 180.527 139.173 180.096C138.768 179.564 138.401 178.969 138.071 178.31C137.767 177.626 137.501 176.967 137.273 176.334C137.045 175.701 136.855 175.131 136.703 174.624C136.577 174.117 136.501 173.763 136.475 173.56C136.425 173.307 136.425 173.066 136.475 172.838C136.526 172.61 136.691 172.471 136.969 172.42C137.349 172.344 137.704 172.369 138.033 172.496C138.363 172.623 138.591 172.825 138.717 173.104C138.819 173.383 138.958 173.813 139.135 174.396C139.313 174.979 139.528 175.561 139.781 176.144C140.035 176.701 140.301 177.195 140.579 177.626C140.883 178.057 141.2 178.272 141.529 178.272C141.909 178.272 142.353 178.082 142.859 177.702C143.391 177.322 143.898 176.828 144.379 176.22C144.861 175.612 145.266 174.941 145.595 174.206C145.95 173.446 146.127 172.711 146.127 172.002C146.127 171.85 146.153 171.673 146.203 171.47C146.254 171.267 146.33 171.077 146.431 170.9C146.533 170.697 146.647 170.533 146.773 170.406C146.925 170.254 147.077 170.165 147.229 170.14C147.635 170.089 147.989 170.203 148.293 170.482C148.623 170.735 148.787 171.001 148.787 171.28ZM174.191 173.826C174.292 174.079 174.191 174.333 173.887 174.586C173.583 174.814 173.102 174.966 172.443 175.042C171.303 175.194 170.138 175.359 168.947 175.536C167.756 175.688 166.54 175.853 165.299 176.03C165.248 177.322 165.248 178.614 165.299 179.906C165.882 179.906 166.578 179.855 167.389 179.754C168.225 179.627 169.074 179.475 169.935 179.298C170.796 179.121 171.62 178.943 172.405 178.766C173.216 178.563 173.9 178.399 174.457 178.272C174.736 178.196 175.027 178.145 175.331 178.12C175.635 178.069 175.901 178.069 176.129 178.12C176.382 178.145 176.585 178.234 176.737 178.386C176.889 178.538 176.965 178.753 176.965 179.032C176.965 179.108 176.876 179.222 176.699 179.374C176.522 179.526 176.294 179.691 176.015 179.868C175.762 180.02 175.483 180.172 175.179 180.324C174.9 180.451 174.647 180.552 174.419 180.628C172.848 181.135 171.303 181.578 169.783 181.958C168.263 182.313 166.781 182.503 165.337 182.528C164.501 182.553 163.868 182.338 163.437 181.882C163.006 181.401 162.778 180.717 162.753 179.83C162.702 178.589 162.702 177.335 162.753 176.068C162.322 175.815 162.107 175.46 162.107 175.004C162.158 174.523 162.386 174.193 162.791 174.016C162.842 173.281 162.88 172.547 162.905 171.812C162.93 171.052 162.968 170.305 163.019 169.57C162.74 169.519 162.487 169.38 162.259 169.152C162.056 168.924 161.955 168.671 161.955 168.392C161.955 168.164 162.006 167.961 162.107 167.784C162.208 167.581 162.398 167.429 162.677 167.328C163.133 167.227 163.69 167.113 164.349 166.986C165.008 166.859 165.679 166.745 166.363 166.644C167.072 166.543 167.744 166.454 168.377 166.378C169.036 166.302 169.593 166.251 170.049 166.226C170.581 166.175 171.088 166.226 171.569 166.378C172.076 166.53 172.544 166.821 172.975 167.252C173.076 167.607 173 167.873 172.747 168.05C172.519 168.227 172.215 168.341 171.835 168.392C171.455 168.443 170.999 168.506 170.467 168.582C169.935 168.633 169.378 168.696 168.795 168.772C168.238 168.848 167.668 168.924 167.085 169C166.528 169.051 165.996 169.114 165.489 169.19C165.489 169.241 165.489 169.304 165.489 169.38C165.514 169.431 165.527 169.481 165.527 169.532C165.476 170.191 165.438 170.849 165.413 171.508C165.388 172.167 165.362 172.825 165.337 173.484C166.401 173.307 167.49 173.155 168.605 173.028C169.72 172.876 170.606 172.775 171.265 172.724C171.797 172.673 172.316 172.737 172.823 172.914C173.33 173.091 173.786 173.395 174.191 173.826ZM181.113 170.71C181.189 171.09 181.265 171.521 181.341 172.002C181.442 172.458 181.544 172.939 181.645 173.446C181.746 173.927 181.835 174.421 181.911 174.928C181.987 175.435 182.05 175.916 182.101 176.372C182.405 175.713 182.734 175.017 183.089 174.282C183.444 173.547 183.824 172.876 184.229 172.268C184.66 171.635 185.103 171.115 185.559 170.71C186.04 170.305 186.56 170.102 187.117 170.102C187.953 170.102 188.65 170.406 189.207 171.014C189.79 171.622 190.271 172.382 190.651 173.294C191.056 174.181 191.373 175.118 191.601 176.106C191.829 177.094 192.019 177.968 192.171 178.728C192.323 179.412 192.019 179.919 191.259 180.248C190.904 180.425 190.638 180.451 190.461 180.324C190.284 180.197 190.182 180.071 190.157 179.944C190.03 179.64 189.866 179.108 189.663 178.348C189.486 177.588 189.27 176.815 189.017 176.03C188.789 175.245 188.523 174.561 188.219 173.978C187.915 173.395 187.573 173.129 187.193 173.18C186.737 173.205 186.332 173.547 185.977 174.206C185.673 174.738 185.356 175.333 185.027 175.992C184.723 176.625 184.419 177.284 184.115 177.968C183.811 178.627 183.507 179.298 183.203 179.982C182.924 180.641 182.658 181.249 182.405 181.806C182.228 181.983 182 182.11 181.721 182.186C181.468 182.237 181.202 182.211 180.923 182.11C180.67 182.034 180.467 181.907 180.315 181.73C180.163 181.553 180.087 181.375 180.087 181.198C179.859 179.222 179.618 177.423 179.365 175.802C179.137 174.181 178.833 172.521 178.453 170.824C178.276 170.241 178.238 169.785 178.339 169.456C178.466 169.101 178.846 168.962 179.479 169.038C180.366 169.19 180.91 169.747 181.113 170.71ZM203.413 173.066C203.894 173.041 204.375 173.155 204.857 173.408C205.338 173.661 205.579 174.054 205.579 174.586C205.528 175.017 205.287 175.295 204.857 175.422C204.451 175.523 204.122 175.574 203.869 175.574C203.362 175.574 202.817 175.587 202.235 175.612C201.652 175.637 201.057 175.675 200.449 175.726C200.398 176.562 200.347 177.347 200.297 178.082C200.271 178.817 200.246 179.475 200.221 180.058C200.195 180.615 200.183 181.071 200.183 181.426C200.183 181.781 200.195 181.971 200.221 181.996C200.778 181.895 201.373 181.73 202.007 181.502C202.665 181.249 203.311 180.983 203.945 180.704C204.603 180.4 205.237 180.096 205.845 179.792C206.478 179.463 207.073 179.159 207.631 178.88C207.884 178.753 208.112 178.715 208.315 178.766C208.543 178.817 208.682 178.931 208.733 179.108C208.783 179.387 208.745 179.729 208.619 180.134C208.492 180.539 208.264 180.907 207.935 181.236C207.555 181.54 207.048 181.895 206.415 182.3C205.807 182.68 205.148 183.047 204.439 183.402C203.729 183.757 203.007 184.073 202.273 184.352C201.563 184.605 200.93 184.757 200.373 184.808C199.537 184.884 198.903 184.656 198.473 184.124C198.042 183.592 197.801 182.921 197.751 182.11C197.7 181.299 197.687 180.362 197.713 179.298C197.763 178.234 197.814 177.107 197.865 175.916C197.383 175.967 196.915 176.017 196.459 176.068C196.028 176.093 195.61 176.131 195.205 176.182C194.875 176.182 194.508 176.106 194.103 175.954C193.723 175.802 193.533 175.511 193.533 175.08C193.533 174.928 193.596 174.725 193.723 174.472C193.849 174.219 194.128 174.029 194.559 173.902C195.597 173.725 196.75 173.573 198.017 173.446C198.093 172.255 198.181 171.103 198.283 169.988C198.384 168.873 198.473 167.86 198.549 166.948C198.574 166.644 198.663 166.378 198.815 166.15C198.967 165.922 199.131 165.808 199.309 165.808C199.739 165.783 200.145 165.897 200.525 166.15C200.93 166.378 201.133 166.644 201.133 166.948C201.031 167.809 200.93 168.785 200.829 169.874C200.753 170.963 200.677 172.078 200.601 173.218C201.107 173.167 201.589 173.142 202.045 173.142C202.526 173.117 202.982 173.091 203.413 173.066ZM221.66 170.14C221.204 170.393 220.723 170.659 220.216 170.938C219.735 171.217 219.241 171.546 218.734 171.926C218.253 172.281 217.784 172.711 217.328 173.218C216.898 173.699 216.505 174.282 216.15 174.966C215.644 175.929 215.302 176.917 215.124 177.93C214.947 178.918 214.833 179.893 214.782 180.856C214.782 181.312 214.668 181.781 214.44 182.262C214.238 182.718 213.946 182.946 213.566 182.946C213.085 182.946 212.692 182.705 212.388 182.224C212.11 181.717 211.92 181.236 211.818 180.78C211.388 178.981 211.033 177.208 210.754 175.46C210.476 173.687 210.235 171.926 210.032 170.178C210.032 169.823 210.134 169.595 210.336 169.494C210.564 169.393 210.818 169.355 211.096 169.38C211.4 169.405 211.692 169.481 211.97 169.608C212.249 169.735 212.414 169.937 212.464 170.216C212.566 171.153 212.692 172.141 212.844 173.18C212.996 174.193 213.148 175.067 213.3 175.802C213.402 174.941 213.68 174.105 214.136 173.294C214.592 172.483 215.15 171.749 215.808 171.09C216.492 170.431 217.252 169.874 218.088 169.418C218.95 168.962 219.824 168.658 220.71 168.506C221.09 168.455 221.407 168.455 221.66 168.506C221.914 168.557 222.091 168.645 222.192 168.772C222.294 168.899 222.306 169.101 222.23 169.38C222.18 169.659 221.99 169.912 221.66 170.14ZM235.734 171.28C235.81 172.648 235.886 174.029 235.962 175.422C236.064 176.815 236.089 178.196 236.038 179.564C235.988 180.907 235.848 182.224 235.62 183.516C235.418 184.808 235.063 186.049 234.556 187.24C234.05 188.405 233.366 189.495 232.504 190.508C231.668 191.521 230.604 192.433 229.312 193.244C229.11 193.371 228.882 193.447 228.628 193.472C228.4 193.497 228.172 193.485 227.944 193.434C227.716 193.409 227.514 193.345 227.336 193.244C227.159 193.168 227.045 193.054 226.994 192.902C226.918 192.674 226.956 192.421 227.108 192.142C227.26 191.863 227.514 191.572 227.868 191.268C228.983 190.432 229.92 189.545 230.68 188.608C231.44 187.671 232.048 186.657 232.504 185.568C232.96 184.479 233.252 183.301 233.378 182.034C233.53 180.742 233.53 179.336 233.378 177.816C233.074 178.196 232.72 178.589 232.314 178.994C231.909 179.399 231.478 179.767 231.022 180.096C230.566 180.4 230.098 180.666 229.616 180.894C229.135 181.097 228.679 181.198 228.248 181.198C227.894 181.198 227.539 181.122 227.184 180.97C226.83 180.818 226.475 180.527 226.12 180.096C225.715 179.564 225.348 178.969 225.018 178.31C224.714 177.626 224.448 176.967 224.22 176.334C223.992 175.701 223.802 175.131 223.65 174.624C223.524 174.117 223.448 173.763 223.422 173.56C223.372 173.307 223.372 173.066 223.422 172.838C223.473 172.61 223.638 172.471 223.916 172.42C224.296 172.344 224.651 172.369 224.98 172.496C225.31 172.623 225.538 172.825 225.664 173.104C225.766 173.383 225.905 173.813 226.082 174.396C226.26 174.979 226.475 175.561 226.728 176.144C226.982 176.701 227.248 177.195 227.526 177.626C227.83 178.057 228.147 178.272 228.476 178.272C228.856 178.272 229.3 178.082 229.806 177.702C230.338 177.322 230.845 176.828 231.326 176.22C231.808 175.612 232.213 174.941 232.542 174.206C232.897 173.446 233.074 172.711 233.074 172.002C233.074 171.85 233.1 171.673 233.15 171.47C233.201 171.267 233.277 171.077 233.378 170.9C233.48 170.697 233.594 170.533 233.72 170.406C233.872 170.254 234.024 170.165 234.176 170.14C234.582 170.089 234.936 170.203 235.24 170.482C235.57 170.735 235.734 171.001 235.734 171.28ZM105.816 213.342C105.917 213.469 105.968 213.633 105.968 213.836C105.993 214.013 105.968 214.165 105.892 214.292C105.765 214.571 105.55 214.672 105.246 214.596C104.714 214.469 104.156 214.419 103.574 214.444C102.991 214.469 102.408 214.697 101.826 215.128C101.243 215.559 100.787 216.192 100.458 217.028C100.128 217.839 99.9636 218.687 99.9636 219.574C99.9636 220.435 100.166 221.183 100.572 221.816C101.002 222.424 101.547 222.867 102.206 223.146C102.611 223.323 103.067 223.425 103.574 223.45C104.08 223.475 104.587 223.463 105.094 223.412C105.626 223.336 106.145 223.235 106.652 223.108C107.158 222.956 107.64 222.791 108.096 222.614C108.248 222.563 108.387 222.576 108.514 222.652C108.666 222.728 108.767 222.829 108.818 222.956C108.944 223.285 108.881 223.615 108.628 223.944C108.324 224.273 107.918 224.565 107.412 224.818C106.905 225.071 106.348 225.274 105.74 225.426C105.132 225.578 104.511 225.667 103.878 225.692C103.244 225.692 102.649 225.616 102.092 225.464C101.306 225.261 100.635 224.97 100.078 224.59C99.5456 224.185 99.1023 223.729 98.7476 223.222C98.3929 222.69 98.1269 222.133 97.9496 221.55C97.7723 220.942 97.6709 220.321 97.6456 219.688C97.5949 218.168 97.8863 216.8 98.5196 215.584C99.1783 214.368 100.09 213.469 101.256 212.886C102.117 212.455 102.978 212.291 103.84 212.392C104.726 212.468 105.385 212.785 105.816 213.342ZM119.752 213.988C120.512 214.267 121.145 214.685 121.652 215.242C122.184 215.799 122.589 216.433 122.868 217.142C123.147 217.826 123.299 218.535 123.324 219.27C123.375 220.005 123.299 220.689 123.096 221.322C122.817 222.031 122.463 222.728 122.032 223.412C121.601 224.096 121.107 224.704 120.55 225.236C119.993 225.768 119.359 226.199 118.65 226.528C117.941 226.857 117.155 227.022 116.294 227.022C115.255 227.022 114.381 226.781 113.672 226.3C112.963 225.819 112.405 225.198 112 224.438C111.595 223.678 111.329 222.817 111.202 221.854C111.101 220.891 111.126 219.929 111.278 218.966C111.379 218.257 111.544 217.573 111.772 216.914C112.025 216.23 112.342 215.635 112.722 215.128C113.102 214.596 113.533 214.165 114.014 213.836C114.521 213.507 115.091 213.342 115.724 213.342C116.079 213.342 116.522 213.418 117.054 213.57C117.586 213.697 118.08 213.887 118.536 214.14C118.865 213.836 119.271 213.785 119.752 213.988ZM118.308 216.762C118.029 216.585 117.7 216.357 117.32 216.078C116.965 215.774 116.649 215.622 116.37 215.622C116.066 215.622 115.762 215.761 115.458 216.04C115.179 216.319 114.926 216.648 114.698 217.028C114.495 217.383 114.318 217.75 114.166 218.13C114.014 218.51 113.913 218.814 113.862 219.042C113.786 219.422 113.735 219.878 113.71 220.41C113.685 220.942 113.723 221.474 113.824 222.006C113.925 222.513 114.115 222.981 114.394 223.412C114.698 223.817 115.141 224.109 115.724 224.286C116.079 224.387 116.497 224.387 116.978 224.286C117.459 224.159 117.928 223.944 118.384 223.64C118.865 223.336 119.309 222.931 119.714 222.424C120.145 221.917 120.474 221.335 120.702 220.676C120.955 219.941 120.955 219.181 120.702 218.396C120.474 217.585 119.993 217.003 119.258 216.648C119.081 216.775 118.903 216.838 118.726 216.838C118.549 216.838 118.409 216.813 118.308 216.762ZM128.655 214.976C128.681 215.381 128.719 215.888 128.769 216.496C128.845 217.079 128.921 217.699 128.997 218.358C129.073 218.991 129.149 219.625 129.225 220.258C129.327 220.891 129.415 221.474 129.491 222.006C129.77 221.449 130.112 220.765 130.517 219.954C130.923 219.143 131.341 218.371 131.771 217.636C132.227 216.876 132.683 216.243 133.139 215.736C133.621 215.204 134.051 214.938 134.431 214.938C134.837 214.938 135.204 215.141 135.533 215.546C135.888 215.926 136.192 216.395 136.445 216.952C136.699 217.509 136.914 218.105 137.091 218.738C137.294 219.371 137.459 219.929 137.585 220.41C137.687 220.081 137.813 219.713 137.965 219.308C138.143 218.877 138.32 218.447 138.497 218.016C138.7 217.56 138.915 217.117 139.143 216.686C139.397 216.255 139.663 215.875 139.941 215.546C140.271 215.191 140.625 214.938 141.005 214.786C141.385 214.609 141.664 214.52 141.841 214.52C142.069 214.52 142.335 214.596 142.639 214.748C142.969 214.875 143.298 215.052 143.627 215.28C143.957 215.508 144.261 215.787 144.539 216.116C144.843 216.42 145.084 216.737 145.261 217.066C145.616 217.75 145.895 218.497 146.097 219.308C146.325 220.119 146.49 220.891 146.591 221.626C146.693 222.361 146.756 223.019 146.781 223.602C146.832 224.159 146.87 224.552 146.895 224.78C146.895 225.109 146.857 225.363 146.781 225.54C146.705 225.692 146.566 225.819 146.363 225.92C146.085 226.047 145.844 226.097 145.641 226.072C145.439 226.021 145.274 225.933 145.147 225.806C145.021 225.679 144.919 225.54 144.843 225.388C144.767 225.211 144.717 225.059 144.691 224.932C144.615 224.349 144.527 223.754 144.425 223.146C144.349 222.538 144.261 221.955 144.159 221.398C144.058 220.815 143.931 220.283 143.779 219.802C143.653 219.295 143.513 218.852 143.361 218.472C143.311 218.371 143.222 218.244 143.095 218.092C142.994 217.915 142.867 217.75 142.715 217.598C142.589 217.446 142.462 217.319 142.335 217.218C142.209 217.117 142.12 217.053 142.069 217.028C141.816 217.028 141.55 217.269 141.271 217.75C140.993 218.206 140.727 218.763 140.473 219.422C140.22 220.081 139.979 220.777 139.751 221.512C139.549 222.221 139.397 222.829 139.295 223.336C139.295 223.995 139.169 224.489 138.915 224.818C138.662 225.122 138.396 225.274 138.117 225.274C137.839 225.274 137.535 225.173 137.205 224.97C136.901 224.742 136.699 224.489 136.597 224.21C136.445 223.805 136.281 223.349 136.103 222.842C135.926 222.335 135.736 221.816 135.533 221.284C135.356 220.752 135.166 220.233 134.963 219.726C134.786 219.219 134.609 218.763 134.431 218.358C134.077 218.839 133.722 219.371 133.367 219.954C133.038 220.537 132.709 221.132 132.379 221.74C132.075 222.348 131.771 222.956 131.467 223.564C131.189 224.147 130.923 224.666 130.669 225.122C130.492 225.401 130.302 225.654 130.099 225.882C129.897 226.085 129.656 226.186 129.377 226.186C129.175 226.186 128.959 226.097 128.731 225.92C128.503 225.717 128.288 225.477 128.085 225.198C127.883 224.919 127.693 224.603 127.515 224.248C127.363 223.893 127.249 223.539 127.173 223.184C126.971 222.095 126.793 220.904 126.641 219.612C126.515 218.295 126.388 217.015 126.261 215.774C126.236 215.343 126.287 214.951 126.413 214.596C126.565 214.216 126.844 213.963 127.249 213.836C127.68 213.76 128.009 213.823 128.237 214.026C128.465 214.229 128.605 214.545 128.655 214.976ZM156.437 231.392C156.412 231.671 156.285 231.924 156.057 232.152C155.829 232.405 155.576 232.519 155.297 232.494C154.866 232.469 154.537 232.304 154.309 232C154.081 231.696 153.967 231.443 153.967 231.24C153.967 230.277 153.942 229.277 153.891 228.238C153.84 227.174 153.777 226.085 153.701 224.97C153.372 225.021 153.068 224.995 152.789 224.894C152.536 224.767 152.358 224.577 152.257 224.324C152.08 223.893 152.105 223.513 152.333 223.184C152.561 222.855 152.928 222.538 153.435 222.234C153.308 221.297 153.182 220.372 153.055 219.46C152.954 218.548 152.84 217.661 152.713 216.8C152.688 216.648 152.7 216.509 152.751 216.382C152.802 216.255 152.865 216.141 152.941 216.04C153.017 215.913 153.156 215.799 153.359 215.698C153.688 215.571 154.056 215.673 154.461 216.002C154.892 216.331 155.183 216.749 155.335 217.256C155.411 217.737 155.487 218.295 155.563 218.928C155.664 219.536 155.753 220.207 155.829 220.942C156.361 220.613 156.855 220.258 157.311 219.878C157.792 219.498 158.198 219.093 158.527 218.662C158.882 218.231 159.148 217.788 159.325 217.332C159.502 216.851 159.553 216.357 159.477 215.85C159.426 215.419 159.236 215.039 158.907 214.71C158.578 214.355 158.058 214.165 157.349 214.14C156.716 214.115 156.082 214.165 155.449 214.292C154.841 214.419 154.233 214.583 153.625 214.786C153.042 214.989 152.46 215.229 151.877 215.508C151.32 215.787 150.775 216.065 150.243 216.344C149.888 216.547 149.534 216.635 149.179 216.61C148.85 216.559 148.634 216.433 148.533 216.23C148.305 215.723 148.318 215.267 148.571 214.862C148.85 214.457 149.268 214.077 149.825 213.722C150.306 213.443 150.876 213.165 151.535 212.886C152.219 212.582 152.928 212.329 153.663 212.126C154.423 211.898 155.183 211.746 155.943 211.67C156.728 211.569 157.476 211.581 158.185 211.708C158.894 211.809 159.528 212.05 160.085 212.43C160.668 212.785 161.136 213.317 161.491 214.026C161.922 215.191 162.036 216.268 161.833 217.256C161.656 218.219 161.276 219.105 160.693 219.916C160.136 220.701 159.439 221.423 158.603 222.082C157.792 222.715 156.969 223.285 156.133 223.792C156.26 225.16 156.348 226.515 156.399 227.858C156.45 229.201 156.462 230.379 156.437 231.392ZM167.679 209.466C167.805 212.227 168.021 215.09 168.325 218.054C168.629 220.993 168.958 223.805 169.313 226.49C169.389 227.605 169.085 228.175 168.401 228.2C168.249 228.2 168.097 228.149 167.945 228.048C167.793 227.921 167.653 227.769 167.527 227.592C167.4 227.415 167.273 227.225 167.147 227.022C167.045 226.819 166.982 226.642 166.957 226.49C166.754 225.198 166.564 223.83 166.387 222.386C166.209 220.942 166.045 219.498 165.893 218.054C165.766 216.585 165.652 215.153 165.551 213.76C165.449 212.367 165.386 211.087 165.361 209.922C165.411 209.314 165.5 208.807 165.627 208.402C165.753 207.971 166.019 207.769 166.425 207.794C166.855 207.819 167.159 207.997 167.337 208.326C167.539 208.63 167.653 209.01 167.679 209.466ZM181.624 218.32C180.636 218.903 179.572 219.359 178.432 219.688C177.292 219.992 176.063 220.144 174.746 220.144C174.797 221.031 175.05 221.74 175.506 222.272C175.962 222.779 176.532 223.083 177.216 223.184C177.621 223.235 178.027 223.222 178.432 223.146C178.863 223.07 179.255 222.956 179.61 222.804C179.99 222.627 180.332 222.437 180.636 222.234C180.94 222.031 181.206 221.829 181.434 221.626C181.662 221.423 181.903 221.297 182.156 221.246C182.409 221.17 182.599 221.157 182.726 221.208C183.081 221.335 183.207 221.715 183.106 222.348C182.701 223.159 182.118 223.855 181.358 224.438C180.598 224.995 179.749 225.35 178.812 225.502C178.001 225.654 177.165 225.616 176.304 225.388C175.443 225.16 174.67 224.717 173.986 224.058C173.403 223.475 172.96 222.791 172.656 222.006C172.352 221.221 172.162 220.41 172.086 219.574C172.01 218.789 172.073 218.041 172.276 217.332C172.504 216.623 172.846 216.002 173.302 215.47C173.758 214.913 174.328 214.457 175.012 214.102C175.696 213.747 176.494 213.545 177.406 213.494C178.495 213.418 179.483 213.621 180.37 214.102C181.257 214.583 181.877 215.255 182.232 216.116C182.435 216.597 182.485 217.015 182.384 217.37C182.308 217.725 182.055 218.041 181.624 218.32ZM177.254 215.736C177.001 215.787 176.722 215.875 176.418 216.002C176.139 216.129 175.873 216.293 175.62 216.496C175.392 216.673 175.177 216.889 174.974 217.142C174.797 217.37 174.695 217.636 174.67 217.94C175.101 217.94 175.569 217.902 176.076 217.826C176.608 217.75 177.115 217.661 177.596 217.56C178.103 217.433 178.559 217.294 178.964 217.142C179.395 216.99 179.749 216.825 180.028 216.648C179.825 216.167 179.445 215.875 178.888 215.774C178.356 215.647 177.811 215.635 177.254 215.736ZM194.376 217.066C194.858 217.041 195.339 217.155 195.82 217.408C196.302 217.661 196.542 218.054 196.542 218.586C196.492 219.017 196.251 219.295 195.82 219.422C195.415 219.523 195.086 219.574 194.832 219.574C194.326 219.574 193.781 219.587 193.198 219.612C192.616 219.637 192.02 219.675 191.412 219.726C191.362 220.562 191.311 221.347 191.26 222.082C191.235 222.817 191.21 223.475 191.184 224.058C191.159 224.615 191.146 225.071 191.146 225.426C191.146 225.781 191.159 225.971 191.184 225.996C191.742 225.895 192.337 225.73 192.97 225.502C193.629 225.249 194.275 224.983 194.908 224.704C195.567 224.4 196.2 224.096 196.808 223.792C197.442 223.463 198.037 223.159 198.594 222.88C198.848 222.753 199.076 222.715 199.278 222.766C199.506 222.817 199.646 222.931 199.696 223.108C199.747 223.387 199.709 223.729 199.582 224.134C199.456 224.539 199.228 224.907 198.898 225.236C198.518 225.54 198.012 225.895 197.378 226.3C196.77 226.68 196.112 227.047 195.402 227.402C194.693 227.757 193.971 228.073 193.236 228.352C192.527 228.605 191.894 228.757 191.336 228.808C190.5 228.884 189.867 228.656 189.436 228.124C189.006 227.592 188.765 226.921 188.714 226.11C188.664 225.299 188.651 224.362 188.676 223.298C188.727 222.234 188.778 221.107 188.828 219.916C188.347 219.967 187.878 220.017 187.422 220.068C186.992 220.093 186.574 220.131 186.168 220.182C185.839 220.182 185.472 220.106 185.066 219.954C184.686 219.802 184.496 219.511 184.496 219.08C184.496 218.928 184.56 218.725 184.686 218.472C184.813 218.219 185.092 218.029 185.522 217.902C186.561 217.725 187.714 217.573 188.98 217.446C189.056 216.255 189.145 215.103 189.246 213.988C189.348 212.873 189.436 211.86 189.512 210.948C189.538 210.644 189.626 210.378 189.778 210.15C189.93 209.922 190.095 209.808 190.272 209.808C190.703 209.783 191.108 209.897 191.488 210.15C191.894 210.378 192.096 210.644 192.096 210.948C191.995 211.809 191.894 212.785 191.792 213.874C191.716 214.963 191.64 216.078 191.564 217.218C192.071 217.167 192.552 217.142 193.008 217.142C193.49 217.117 193.946 217.091 194.376 217.066ZM210.458 218.32C209.47 218.903 208.406 219.359 207.266 219.688C206.126 219.992 204.897 220.144 203.58 220.144C203.631 221.031 203.884 221.74 204.34 222.272C204.796 222.779 205.366 223.083 206.05 223.184C206.455 223.235 206.861 223.222 207.266 223.146C207.697 223.07 208.089 222.956 208.444 222.804C208.824 222.627 209.166 222.437 209.47 222.234C209.774 222.031 210.04 221.829 210.268 221.626C210.496 221.423 210.737 221.297 210.99 221.246C211.243 221.17 211.433 221.157 211.56 221.208C211.915 221.335 212.041 221.715 211.94 222.348C211.535 223.159 210.952 223.855 210.192 224.438C209.432 224.995 208.583 225.35 207.646 225.502C206.835 225.654 205.999 225.616 205.138 225.388C204.277 225.16 203.504 224.717 202.82 224.058C202.237 223.475 201.794 222.791 201.49 222.006C201.186 221.221 200.996 220.41 200.92 219.574C200.844 218.789 200.907 218.041 201.11 217.332C201.338 216.623 201.68 216.002 202.136 215.47C202.592 214.913 203.162 214.457 203.846 214.102C204.53 213.747 205.328 213.545 206.24 213.494C207.329 213.418 208.317 213.621 209.204 214.102C210.091 214.583 210.711 215.255 211.066 216.116C211.269 216.597 211.319 217.015 211.218 217.37C211.142 217.725 210.889 218.041 210.458 218.32ZM206.088 215.736C205.835 215.787 205.556 215.875 205.252 216.002C204.973 216.129 204.707 216.293 204.454 216.496C204.226 216.673 204.011 216.889 203.808 217.142C203.631 217.37 203.529 217.636 203.504 217.94C203.935 217.94 204.403 217.902 204.91 217.826C205.442 217.75 205.949 217.661 206.43 217.56C206.937 217.433 207.393 217.294 207.798 217.142C208.229 216.99 208.583 216.825 208.862 216.648C208.659 216.167 208.279 215.875 207.722 215.774C207.19 215.647 206.645 215.635 206.088 215.736ZM221.006 207.984C220.93 207.528 220.956 207.11 221.082 206.73C221.234 206.35 221.526 206.135 221.956 206.084C222.336 206.033 222.666 206.135 222.944 206.388C223.248 206.641 223.438 206.971 223.514 207.376C224.021 210.289 224.49 213.19 224.92 216.078C225.376 218.941 225.782 221.753 226.136 224.514C226.238 225.249 226.187 225.755 225.984 226.034C225.782 226.287 225.541 226.477 225.262 226.604C224.958 226.731 224.667 226.731 224.388 226.604C224.135 226.477 223.97 226.249 223.894 225.92L223.856 225.692L223.704 225.73C222.868 226.034 221.994 226.211 221.082 226.262C220.17 226.287 219.296 226.173 218.46 225.92C217.624 225.667 216.877 225.261 216.218 224.704C215.585 224.121 215.129 223.387 214.85 222.5C214.242 220.549 214.622 218.776 215.99 217.18C216.573 216.521 217.295 215.926 218.156 215.394C219.018 214.862 220.056 214.444 221.272 214.14L221.956 213.988L221.006 207.984ZM217.168 221.55C217.32 222.158 217.599 222.627 218.004 222.956C218.41 223.285 218.891 223.513 219.448 223.64C220.006 223.741 220.601 223.754 221.234 223.678C221.868 223.602 222.488 223.463 223.096 223.26L223.438 223.146L222.374 216.458L221.614 216.648C221.082 216.8 220.512 217.041 219.904 217.37C219.322 217.674 218.802 218.041 218.346 218.472C217.89 218.903 217.536 219.384 217.282 219.916C217.054 220.448 217.016 220.993 217.168 221.55Z" fill="white"/>
<path d="M129 66.3333V117.667C129 125.737 135.578 128.667 140 128.667H195V121.333H140.044C138.35 121.289 136.333 120.622 136.333 117.667C136.333 114.711 138.35 114.044 140.044 114H195V62.6667C195 58.6223 191.711 55.3333 187.667 55.3333H140C135.578 55.3333 129 58.263 129 66.3333Z" fill="white"/>
</svg>
