<svg width="48" height="48" viewBox="0 0 48 48" fill="none" xmlns="http://www.w3.org/2000/svg">
<circle cx="24" cy="24" r="22.5" fill="white" stroke="#F2E902" stroke-width="3"/>
<path d="M33 29C33.5523 29 34.0052 29.4488 33.95 29.9983C33.8526 30.9691 33.6135 31.9222 33.2388 32.8268C32.7362 34.0401 31.9997 35.1425 31.0711 36.0711C30.1425 36.9997 29.0401 37.7362 27.8268 38.2388C26.6136 38.7413 25.3132 39 24 39C22.6868 39 21.3864 38.7413 20.1732 38.2388C18.9599 37.7362 17.8575 36.9997 16.9289 36.0711C16.0003 35.1425 15.2638 34.0401 14.7612 32.8268C14.3865 31.9222 14.1474 30.9691 14.05 29.9983C13.9948 29.4488 14.4477 29 15 29L24 29H33Z" fill="#F2E902"/>
<path d="M11.0004 20.5223C10.938 13.1551 17.9504 13.1633 18.0004 20.5223" stroke="#F2E902" stroke-width="3" stroke-linecap="round"/>
<path d="M30.0008 20.5223C29.9384 13.1551 36.9508 13.1633 37.0008 20.5223" stroke="#F2E902" stroke-width="3" stroke-linecap="round"/>
</svg>
