<svg width="120" height="120" viewBox="0 0 120 120" fill="none" xmlns="http://www.w3.org/2000/svg">
<rect width="120" height="120" fill="white"/>
<path fill-rule="evenodd" clip-rule="evenodd" d="M52.2905 10.0966C76.5084 8.75142 101.134 21.5087 108.286 44.6856C115.187 67.0505 100.051 88.8261 80.6003 101.845C63.5718 113.242 41.3071 112.848 25.0163 100.419C9.80537 88.814 7.11457 68.3139 12.6453 49.9981C18.6374 30.1542 31.5935 11.2463 52.2905 10.0966Z" fill="#FFAFAF"/>
<path d="M31.2868 78.64C31.1068 78.712 30.9508 78.718 30.8188 78.658C30.6868 78.598 30.5908 78.52 30.5308 78.424C30.4468 78.304 30.4228 78.178 30.4588 78.046C30.4948 77.914 30.5968 77.8 30.7648 77.704C31.0408 77.548 31.3888 77.422 31.8088 77.326C32.2288 77.218 32.6788 77.188 33.1588 77.236C33.6388 77.284 34.0768 77.416 34.4728 77.632C34.8808 77.836 35.2228 78.1 35.4988 78.424C35.7868 78.748 36.0028 79.12 36.1468 79.54C36.3028 79.948 36.3748 80.38 36.3628 80.836C36.3388 81.316 36.2428 81.796 36.0748 82.276C35.9188 82.756 35.6968 83.206 35.4088 83.626C35.1328 84.046 34.7968 84.43 34.4008 84.778C34.0168 85.114 33.5908 85.378 33.1228 85.57C32.7988 85.654 32.5528 85.666 32.3848 85.606C32.2168 85.546 32.1028 85.474 32.0428 85.39C32.0188 85.33 32.0068 85.252 32.0068 85.156C32.0188 85.048 32.0848 84.94 32.2048 84.832C32.0608 83.668 31.9708 82.546 31.9348 81.466C31.9108 80.374 31.8988 79.378 31.8988 78.478C31.6948 78.514 31.4908 78.568 31.2868 78.64ZM33.2488 78.406C33.1768 78.394 33.0988 78.388 33.0148 78.388C32.9428 78.376 32.8708 78.37 32.7988 78.37C32.8708 78.466 32.9308 78.586 32.9788 78.73C33.0268 78.862 33.0508 78.994 33.0508 79.126C33.0508 79.858 33.0568 80.644 33.0688 81.484C33.0928 82.324 33.1528 83.23 33.2488 84.202C33.7768 83.818 34.2268 83.338 34.5988 82.762C34.9828 82.174 35.1868 81.556 35.2108 80.908C35.2228 80.308 35.0728 79.78 34.7608 79.324C34.4488 78.856 33.9448 78.55 33.2488 78.406ZM40.7062 84.22C40.7182 84.268 40.7242 84.34 40.7242 84.436C40.7242 84.52 40.7062 84.61 40.6702 84.706C40.6342 84.79 40.5802 84.868 40.5082 84.94C40.4482 85 40.3582 85.03 40.2382 85.03C39.9742 84.862 39.7522 84.64 39.5722 84.364C39.4762 84.004 39.3862 83.59 39.3022 83.122C39.2302 82.654 39.1702 82.168 39.1222 81.664C39.0742 81.148 39.0382 80.626 39.0142 80.098C39.0022 79.57 39.0022 79.06 39.0142 78.568C39.0142 78.484 39.0202 78.376 39.0322 78.244C39.0562 78.112 39.0922 77.986 39.1402 77.866C39.1882 77.734 39.2482 77.626 39.3202 77.542C39.3922 77.446 39.4942 77.398 39.6262 77.398C39.7822 77.398 39.9082 77.446 40.0042 77.542C40.1002 77.638 40.1482 77.794 40.1482 78.01C40.1362 78.49 40.1362 79.006 40.1482 79.558C40.1722 80.098 40.2082 80.644 40.2562 81.196C40.3042 81.748 40.3642 82.288 40.4362 82.816C40.5202 83.332 40.6102 83.8 40.7062 84.22ZM44.1075 85.768C44.0475 85.972 43.9695 86.158 43.8735 86.326C43.7775 86.482 43.6755 86.572 43.5675 86.596C43.3395 86.656 43.1655 86.62 43.0455 86.488C42.9255 86.356 42.8775 86.188 42.9015 85.984C42.9975 85.264 43.1535 84.508 43.3695 83.716C43.5855 82.912 43.8375 82.114 44.1255 81.322C44.4135 80.518 44.7255 79.744 45.0615 79C45.4095 78.244 45.7635 77.56 46.1235 76.948C46.1835 76.852 46.2495 76.798 46.3215 76.786C46.4055 76.762 46.4775 76.762 46.5375 76.786C46.5975 76.738 46.6695 76.696 46.7535 76.66C46.8375 76.624 46.9215 76.606 47.0055 76.606C47.0415 76.606 47.0775 76.612 47.1135 76.624C47.1615 76.636 47.2095 76.672 47.2575 76.732C47.3055 76.792 47.3595 76.882 47.4195 77.002C47.4915 77.11 47.5755 77.272 47.6715 77.488C47.8395 78.1 48.0315 78.73 48.2475 79.378C48.4755 80.026 48.7095 80.674 48.9495 81.322C48.9855 81.31 49.0155 81.304 49.0395 81.304C49.0755 81.292 49.1115 81.28 49.1475 81.268C49.2795 81.256 49.4295 81.262 49.5975 81.286C49.7655 81.31 49.8795 81.394 49.9395 81.538C50.0115 81.718 49.9995 81.874 49.9035 82.006C49.8075 82.138 49.6335 82.27 49.3815 82.402C49.5375 82.786 49.6935 83.164 49.8495 83.536C50.0055 83.896 50.1675 84.25 50.3355 84.598C50.3475 84.658 50.3655 84.754 50.3895 84.886C50.4135 85.006 50.4255 85.132 50.4255 85.264C50.4375 85.384 50.4315 85.498 50.4075 85.606C50.3835 85.714 50.3355 85.786 50.2635 85.822C50.1795 85.858 50.0895 85.852 49.9935 85.804C49.9095 85.756 49.8255 85.696 49.7415 85.624C49.6575 85.54 49.5795 85.456 49.5075 85.372C49.4475 85.276 49.3995 85.192 49.3635 85.12C49.1595 84.724 48.9615 84.328 48.7695 83.932C48.5895 83.524 48.4155 83.116 48.2475 82.708C47.7435 82.804 47.1915 82.888 46.5915 82.96C46.0035 83.032 45.4215 83.08 44.8455 83.104C44.7135 83.56 44.5815 84.01 44.4495 84.454C44.3295 84.886 44.2155 85.324 44.1075 85.768ZM46.6635 78.208C46.1115 79.444 45.6315 80.68 45.2235 81.916C46.0275 81.892 46.8855 81.79 47.7975 81.61C47.3655 80.518 46.9875 79.384 46.6635 78.208ZM53.7548 85.462C53.7188 85.018 53.6888 84.514 53.6648 83.95C53.6528 83.386 53.6468 82.81 53.6468 82.222C53.6468 81.622 53.6468 81.034 53.6468 80.458C53.6588 79.882 53.6768 79.36 53.7008 78.892C53.7008 78.772 53.7548 78.682 53.8628 78.622C53.9828 78.55 54.0788 78.52 54.1508 78.532C54.3668 78.556 54.5108 78.634 54.5828 78.766C54.6668 78.886 54.7208 79.06 54.7448 79.288C54.7328 79.672 54.7208 80.056 54.7088 80.44C54.7088 80.824 54.7148 81.208 54.7268 81.592C55.2668 81.496 55.7168 81.298 56.0768 80.998C56.4488 80.698 56.7128 80.356 56.8688 79.972C56.9288 79.828 56.9708 79.654 56.9948 79.45C57.0308 79.246 57.0368 79.042 57.0128 78.838C56.9888 78.622 56.9288 78.424 56.8328 78.244C56.7488 78.052 56.6168 77.902 56.4368 77.794C56.1728 77.638 55.8848 77.554 55.5728 77.542C55.2608 77.53 54.9368 77.578 54.6008 77.686C54.2768 77.782 53.9528 77.938 53.6288 78.154C53.3168 78.37 53.0228 78.628 52.7468 78.928C52.7828 79.108 52.7588 79.27 52.6748 79.414C52.5908 79.546 52.4708 79.642 52.3148 79.702C52.2188 79.726 52.1048 79.678 51.9728 79.558C51.8408 79.426 51.7748 79.294 51.7748 79.162C51.7748 78.682 51.9068 78.268 52.1708 77.92C52.4468 77.56 52.7888 77.26 53.1968 77.02C53.6048 76.78 54.0428 76.6 54.5108 76.48C54.9788 76.36 55.4108 76.3 55.8068 76.3C56.3948 76.3 56.8868 76.474 57.2828 76.822C57.6788 77.158 57.9488 77.584 58.0928 78.1C58.3448 79 58.2788 79.81 57.8948 80.53C57.5228 81.25 56.9108 81.874 56.0588 82.402C56.6828 82.786 57.2648 83.152 57.8048 83.5C58.3568 83.848 58.9088 84.226 59.4608 84.634C59.5328 84.706 59.6108 84.814 59.6948 84.958C59.7908 85.09 59.7788 85.294 59.6588 85.57C59.5868 85.738 59.4608 85.834 59.2808 85.858C59.1128 85.87 58.9448 85.816 58.7768 85.696C58.5128 85.48 58.2128 85.258 57.8768 85.03C57.5528 84.79 57.2108 84.556 56.8508 84.328C56.4908 84.088 56.1308 83.86 55.7708 83.644C55.4108 83.416 55.0688 83.206 54.7448 83.014C54.7568 83.494 54.7628 83.974 54.7628 84.454C54.7748 84.922 54.7928 85.384 54.8168 85.84C54.8168 86.008 54.7688 86.128 54.6728 86.2C54.5768 86.26 54.4568 86.29 54.3128 86.29C54.2408 86.278 54.1748 86.242 54.1148 86.182C54.0548 86.11 53.9948 86.032 53.9348 85.948C53.8868 85.852 53.8448 85.762 53.8088 85.678C53.7728 85.582 53.7548 85.51 53.7548 85.462ZM64.7032 81.736C64.6552 81.928 64.6072 82.21 64.5592 82.582C64.5232 82.942 64.4872 83.326 64.4512 83.734C64.4272 84.13 64.4032 84.514 64.3792 84.886C64.3672 85.258 64.3612 85.546 64.3612 85.75C64.3612 86.098 64.1692 86.272 63.7852 86.272C63.6532 86.272 63.5272 86.236 63.4072 86.164C63.2992 86.092 63.2452 85.954 63.2452 85.75C63.2452 85.246 63.2632 84.7 63.2992 84.112C63.3352 83.524 63.3832 82.918 63.4432 82.294C63.0232 81.526 62.6272 80.77 62.2552 80.026C61.8952 79.282 61.5892 78.598 61.3372 77.974C61.2892 77.866 61.2472 77.752 61.2112 77.632C61.1872 77.5 61.1752 77.38 61.1752 77.272C61.1872 77.164 61.2172 77.074 61.2652 77.002C61.3132 76.918 61.3972 76.864 61.5172 76.84C61.6492 76.828 61.7752 76.84 61.8952 76.876C62.0272 76.9 62.1412 76.978 62.2372 77.11C62.3332 77.362 62.4532 77.65 62.5972 77.974C62.7412 78.298 62.8912 78.628 63.0472 78.964C63.2032 79.3 63.3592 79.624 63.5152 79.936C63.6712 80.236 63.8092 80.494 63.9292 80.71C64.4692 79.99 64.9792 79.252 65.4592 78.496C65.9512 77.74 66.4072 77.02 66.8272 76.336C66.9832 76.096 67.1452 75.964 67.3132 75.94C67.4812 75.916 67.6192 75.952 67.7272 76.048C67.8232 76.12 67.8772 76.24 67.8892 76.408C67.9132 76.576 67.8952 76.726 67.8352 76.858C67.6312 77.218 67.3912 77.614 67.1152 78.046C66.8512 78.466 66.5752 78.892 66.2872 79.324C66.0112 79.756 65.7352 80.182 65.4592 80.602C65.1832 81.022 64.9312 81.4 64.7032 81.736ZM79.0281 86.416C78.8961 86.416 78.7581 86.314 78.6141 86.11C78.4821 85.906 78.4101 85.708 78.3981 85.516C78.3021 84.82 78.1821 84.01 78.0381 83.086C77.9061 82.15 77.7261 81.046 77.4981 79.774C77.1381 80.458 76.7841 81.136 76.4361 81.808C76.0881 82.48 75.7401 83.152 75.3921 83.824C75.1761 84.244 74.9541 84.454 74.7261 84.454C74.3901 84.454 74.1261 84.28 73.9341 83.932C73.5141 83.32 73.0761 82.75 72.6201 82.222C72.1761 81.682 71.7141 81.148 71.2341 80.62C71.2101 81.424 71.2161 82.216 71.2521 82.996C71.3001 83.764 71.3781 84.514 71.4861 85.246C71.5101 85.378 71.4921 85.498 71.4321 85.606C71.3841 85.702 71.3301 85.762 71.2701 85.786C71.1021 85.846 70.9341 85.81 70.7661 85.678C70.5981 85.546 70.4961 85.402 70.4601 85.246C70.3521 84.814 70.2741 84.334 70.2261 83.806C70.1781 83.278 70.1421 82.744 70.1181 82.204C70.1061 81.664 70.1001 81.13 70.1001 80.602C70.1001 80.074 70.1061 79.594 70.1181 79.162C70.1181 78.682 70.2741 78.442 70.5861 78.442C70.7781 78.442 70.9401 78.514 71.0721 78.658C71.2041 78.79 71.2761 78.982 71.2881 79.234C71.8881 79.834 72.4521 80.452 72.9801 81.088C73.5201 81.712 74.0421 82.348 74.5461 82.996C74.9661 82.24 75.3921 81.466 75.8241 80.674C76.2561 79.87 76.7421 79.09 77.2821 78.334C77.3061 78.202 77.3721 78.07 77.4801 77.938C77.5881 77.794 77.7081 77.698 77.8401 77.65C77.9721 77.602 78.1101 77.656 78.2541 77.812C78.3981 77.968 78.4941 78.148 78.5421 78.352C78.7461 79.564 78.9201 80.776 79.0641 81.988C79.2201 83.2 79.3701 84.412 79.5141 85.624C79.5381 85.852 79.4961 86.044 79.3881 86.2C79.2801 86.344 79.1601 86.416 79.0281 86.416ZM87.1344 81.286C87.1824 81.406 87.1344 81.526 86.9904 81.646C86.8464 81.754 86.6184 81.826 86.3064 81.862C85.7664 81.934 85.2144 82.012 84.6504 82.096C84.0864 82.168 83.5104 82.246 82.9224 82.33C82.8984 82.942 82.8984 83.554 82.9224 84.166C83.1984 84.166 83.5284 84.142 83.9124 84.094C84.3084 84.034 84.7104 83.962 85.1184 83.878C85.5264 83.794 85.9164 83.71 86.2884 83.626C86.6724 83.53 86.9964 83.452 87.2604 83.392C87.3924 83.356 87.5304 83.332 87.6744 83.32C87.8184 83.296 87.9444 83.296 88.0524 83.32C88.1724 83.332 88.2684 83.374 88.3404 83.446C88.4124 83.518 88.4484 83.62 88.4484 83.752C88.4484 83.788 88.4064 83.842 88.3224 83.914C88.2384 83.986 88.1304 84.064 87.9984 84.148C87.8784 84.22 87.7464 84.292 87.6024 84.364C87.4704 84.424 87.3504 84.472 87.2424 84.508C86.4984 84.748 85.7664 84.958 85.0464 85.138C84.3264 85.306 83.6244 85.396 82.9404 85.408C82.5444 85.42 82.2444 85.318 82.0404 85.102C81.8364 84.874 81.7284 84.55 81.7164 84.13C81.6924 83.542 81.6924 82.948 81.7164 82.348C81.5124 82.228 81.4104 82.06 81.4104 81.844C81.4344 81.616 81.5424 81.46 81.7344 81.376C81.7584 81.028 81.7764 80.68 81.7884 80.332C81.8004 79.972 81.8184 79.618 81.8424 79.27C81.7104 79.246 81.5904 79.18 81.4824 79.072C81.3864 78.964 81.3384 78.844 81.3384 78.712C81.3384 78.604 81.3624 78.508 81.4104 78.424C81.4584 78.328 81.5484 78.256 81.6804 78.208C81.8964 78.16 82.1604 78.106 82.4724 78.046C82.7844 77.986 83.1024 77.932 83.4264 77.884C83.7624 77.836 84.0804 77.794 84.3804 77.758C84.6924 77.722 84.9564 77.698 85.1724 77.686C85.4244 77.662 85.6644 77.686 85.8924 77.758C86.1324 77.83 86.3544 77.968 86.5584 78.172C86.6064 78.34 86.5704 78.466 86.4504 78.55C86.3424 78.634 86.1984 78.688 86.0184 78.712C85.8384 78.736 85.6224 78.766 85.3704 78.802C85.1184 78.826 84.8544 78.856 84.5784 78.892C84.3144 78.928 84.0444 78.964 83.7684 79C83.5044 79.024 83.2524 79.054 83.0124 79.09C83.0124 79.114 83.0124 79.144 83.0124 79.18C83.0244 79.204 83.0304 79.228 83.0304 79.252C83.0064 79.564 82.9884 79.876 82.9764 80.188C82.9644 80.5 82.9524 80.812 82.9404 81.124C83.4444 81.04 83.9604 80.968 84.4884 80.908C85.0164 80.836 85.4364 80.788 85.7484 80.764C86.0004 80.74 86.2464 80.77 86.4864 80.854C86.7264 80.938 86.9424 81.082 87.1344 81.286Z" fill="white"/>
<path d="M52 39C52 42.7901 53.5275 46.5571 53.5275 50.34" stroke="white" stroke-width="3" stroke-linecap="round"/>
<path d="M65 37C65 41.4585 65.3167 45.89 65.3167 50.34" stroke="white" stroke-width="3" stroke-linecap="round"/>
<path d="M41 57C42.3131 69.4307 75.3159 72.232 78.8175 57" stroke="white" stroke-width="3" stroke-linecap="round"/>
</svg>
