<svg width="180" height="180" viewBox="0 0 180 180" fill="none" xmlns="http://www.w3.org/2000/svg">
<rect width="180" height="180" fill="white"/>
<path fill-rule="evenodd" clip-rule="evenodd" d="M78.4188 15.1449C114.736 13.1276 151.665 32.2584 162.39 67.0146C172.738 100.553 150.04 133.208 120.872 152.73C95.3363 169.822 61.9481 169.232 37.5185 150.593C14.7081 133.19 10.673 102.447 18.9668 74.9812C27.9526 45.2233 47.3816 16.8689 78.4188 15.1449Z" fill="#FFAFAF"/>
<path d="M52.3823 120.52C52.1423 120.616 51.9343 120.624 51.7583 120.544C51.5823 120.464 51.4543 120.36 51.3743 120.232C51.2623 120.072 51.2303 119.904 51.2783 119.728C51.3263 119.552 51.4623 119.4 51.6863 119.272C52.0543 119.064 52.5183 118.896 53.0783 118.768C53.6383 118.624 54.2383 118.584 54.8783 118.648C55.5183 118.712 56.1023 118.888 56.6303 119.176C57.1743 119.448 57.6303 119.8 57.9983 120.232C58.3823 120.664 58.6703 121.16 58.8623 121.72C59.0703 122.264 59.1663 122.84 59.1503 123.448C59.1183 124.088 58.9903 124.728 58.7663 125.368C58.5583 126.008 58.2623 126.608 57.8783 127.168C57.5103 127.728 57.0623 128.24 56.5343 128.704C56.0223 129.152 55.4543 129.504 54.8303 129.76C54.3983 129.872 54.0703 129.888 53.8463 129.808C53.6223 129.728 53.4703 129.632 53.3903 129.52C53.3583 129.44 53.3423 129.336 53.3423 129.208C53.3583 129.064 53.4463 128.92 53.6063 128.776C53.4143 127.224 53.2943 125.728 53.2463 124.288C53.2143 122.832 53.1983 121.504 53.1983 120.304C52.9263 120.352 52.6543 120.424 52.3823 120.52ZM54.9983 120.208C54.9023 120.192 54.7983 120.184 54.6863 120.184C54.5903 120.168 54.4943 120.16 54.3983 120.16C54.4943 120.288 54.5743 120.448 54.6383 120.64C54.7023 120.816 54.7343 120.992 54.7343 121.168C54.7343 122.144 54.7423 123.192 54.7583 124.312C54.7903 125.432 54.8703 126.64 54.9983 127.936C55.7023 127.424 56.3023 126.784 56.7983 126.016C57.3103 125.232 57.5823 124.408 57.6143 123.544C57.6303 122.744 57.4303 122.04 57.0143 121.432C56.5983 120.808 55.9263 120.4 54.9983 120.208ZM64.9417 127.96C64.9577 128.024 64.9657 128.12 64.9657 128.248C64.9657 128.36 64.9417 128.48 64.8937 128.608C64.8457 128.72 64.7737 128.824 64.6777 128.92C64.5977 129 64.4777 129.04 64.3177 129.04C63.9657 128.816 63.6697 128.52 63.4297 128.152C63.3017 127.672 63.1817 127.12 63.0697 126.496C62.9737 125.872 62.8937 125.224 62.8297 124.552C62.7657 123.864 62.7177 123.168 62.6857 122.464C62.6697 121.76 62.6697 121.08 62.6857 120.424C62.6857 120.312 62.6937 120.168 62.7097 119.992C62.7417 119.816 62.7897 119.648 62.8537 119.488C62.9177 119.312 62.9977 119.168 63.0937 119.056C63.1897 118.928 63.3257 118.864 63.5017 118.864C63.7097 118.864 63.8777 118.928 64.0057 119.056C64.1337 119.184 64.1977 119.392 64.1977 119.68C64.1817 120.32 64.1817 121.008 64.1977 121.744C64.2297 122.464 64.2777 123.192 64.3417 123.928C64.4057 124.664 64.4857 125.384 64.5817 126.088C64.6937 126.776 64.8137 127.4 64.9417 127.96ZM69.4767 130.024C69.3967 130.296 69.2927 130.544 69.1647 130.768C69.0367 130.976 68.9007 131.096 68.7567 131.128C68.4527 131.208 68.2207 131.16 68.0607 130.984C67.9007 130.808 67.8367 130.584 67.8687 130.312C67.9967 129.352 68.2047 128.344 68.4927 127.288C68.7807 126.216 69.1167 125.152 69.5007 124.096C69.8847 123.024 70.3007 121.992 70.7487 121C71.2127 119.992 71.6847 119.08 72.1647 118.264C72.2447 118.136 72.3327 118.064 72.4287 118.048C72.5407 118.016 72.6367 118.016 72.7167 118.048C72.7967 117.984 72.8927 117.928 73.0047 117.88C73.1167 117.832 73.2287 117.808 73.3407 117.808C73.3887 117.808 73.4367 117.816 73.4847 117.832C73.5487 117.848 73.6127 117.896 73.6767 117.976C73.7407 118.056 73.8127 118.176 73.8927 118.336C73.9887 118.48 74.1007 118.696 74.2287 118.984C74.4527 119.8 74.7087 120.64 74.9967 121.504C75.3007 122.368 75.6127 123.232 75.9327 124.096C75.9807 124.08 76.0207 124.072 76.0527 124.072C76.1007 124.056 76.1487 124.04 76.1967 124.024C76.3727 124.008 76.5727 124.016 76.7967 124.048C77.0207 124.08 77.1727 124.192 77.2527 124.384C77.3487 124.624 77.3327 124.832 77.2047 125.008C77.0767 125.184 76.8447 125.36 76.5087 125.536C76.7167 126.048 76.9247 126.552 77.1327 127.048C77.3407 127.528 77.5567 128 77.7807 128.464C77.7967 128.544 77.8207 128.672 77.8527 128.848C77.8847 129.008 77.9007 129.176 77.9007 129.352C77.9167 129.512 77.9087 129.664 77.8767 129.808C77.8447 129.952 77.7807 130.048 77.6847 130.096C77.5727 130.144 77.4527 130.136 77.3247 130.072C77.2127 130.008 77.1007 129.928 76.9887 129.832C76.8767 129.72 76.7727 129.608 76.6767 129.496C76.5967 129.368 76.5327 129.256 76.4847 129.16C76.2127 128.632 75.9487 128.104 75.6927 127.576C75.4527 127.032 75.2207 126.488 74.9967 125.944C74.3247 126.072 73.5887 126.184 72.7887 126.28C72.0047 126.376 71.2287 126.44 70.4607 126.472C70.2847 127.08 70.1087 127.68 69.9327 128.272C69.7727 128.848 69.6207 129.432 69.4767 130.024ZM72.8847 119.944C72.1487 121.592 71.5087 123.24 70.9647 124.888C72.0367 124.856 73.1807 124.72 74.3967 124.48C73.8207 123.024 73.3167 121.512 72.8847 119.944ZM82.3398 129.616C82.2918 129.024 82.2518 128.352 82.2198 127.6C82.2038 126.848 82.1958 126.08 82.1958 125.296C82.1958 124.496 82.1958 123.712 82.1958 122.944C82.2118 122.176 82.2358 121.48 82.2678 120.856C82.2678 120.696 82.3398 120.576 82.4838 120.496C82.6438 120.4 82.7718 120.36 82.8678 120.376C83.1558 120.408 83.3478 120.512 83.4438 120.688C83.5558 120.848 83.6278 121.08 83.6598 121.384C83.6438 121.896 83.6278 122.408 83.6118 122.92C83.6118 123.432 83.6198 123.944 83.6358 124.456C84.3558 124.328 84.9558 124.064 85.4358 123.664C85.9318 123.264 86.2838 122.808 86.4918 122.296C86.5718 122.104 86.6278 121.872 86.6598 121.6C86.7078 121.328 86.7158 121.056 86.6838 120.784C86.6518 120.496 86.5718 120.232 86.4438 119.992C86.3318 119.736 86.1558 119.536 85.9158 119.392C85.5638 119.184 85.1798 119.072 84.7638 119.056C84.3478 119.04 83.9158 119.104 83.4678 119.248C83.0358 119.376 82.6038 119.584 82.1718 119.872C81.7558 120.16 81.3638 120.504 80.9958 120.904C81.0438 121.144 81.0118 121.36 80.8998 121.552C80.7878 121.728 80.6278 121.856 80.4198 121.936C80.2918 121.968 80.1398 121.904 79.9638 121.744C79.7878 121.568 79.6998 121.392 79.6998 121.216C79.6998 120.576 79.8758 120.024 80.2278 119.56C80.5958 119.08 81.0518 118.68 81.5958 118.36C82.1398 118.04 82.7238 117.8 83.3478 117.64C83.9718 117.48 84.5478 117.4 85.0758 117.4C85.8598 117.4 86.5158 117.632 87.0438 118.096C87.5718 118.544 87.9318 119.112 88.1238 119.8C88.4598 121 88.3718 122.08 87.8598 123.04C87.3638 124 86.5478 124.832 85.4118 125.536C86.2438 126.048 87.0198 126.536 87.7398 127C88.4758 127.464 89.2118 127.968 89.9478 128.512C90.0438 128.608 90.1478 128.752 90.2598 128.944C90.3878 129.12 90.3718 129.392 90.2118 129.76C90.1158 129.984 89.9478 130.112 89.7078 130.144C89.4838 130.16 89.2598 130.088 89.0358 129.928C88.6838 129.64 88.2838 129.344 87.8358 129.04C87.4038 128.72 86.9478 128.408 86.4678 128.104C85.9878 127.784 85.5078 127.48 85.0278 127.192C84.5478 126.888 84.0918 126.608 83.6598 126.352C83.6758 126.992 83.6838 127.632 83.6838 128.272C83.6998 128.896 83.7238 129.512 83.7558 130.12C83.7558 130.344 83.6918 130.504 83.5638 130.6C83.4358 130.68 83.2758 130.72 83.0838 130.72C82.9878 130.704 82.8998 130.656 82.8198 130.576C82.7398 130.48 82.6598 130.376 82.5798 130.264C82.5158 130.136 82.4598 130.016 82.4118 129.904C82.3638 129.776 82.3398 129.68 82.3398 129.616ZM96.9376 124.648C96.8736 124.904 96.8096 125.28 96.7456 125.776C96.6976 126.256 96.6496 126.768 96.6016 127.312C96.5696 127.84 96.5376 128.352 96.5056 128.848C96.4896 129.344 96.4816 129.728 96.4816 130C96.4816 130.464 96.2256 130.696 95.7136 130.696C95.5376 130.696 95.3696 130.648 95.2096 130.552C95.0656 130.456 94.9936 130.272 94.9936 130C94.9936 129.328 95.0176 128.6 95.0656 127.816C95.1136 127.032 95.1776 126.224 95.2576 125.392C94.6976 124.368 94.1696 123.36 93.6736 122.368C93.1936 121.376 92.7856 120.464 92.4496 119.632C92.3856 119.488 92.3296 119.336 92.2816 119.176C92.2496 119 92.2336 118.84 92.2336 118.696C92.2496 118.552 92.2896 118.432 92.3536 118.336C92.4176 118.224 92.5296 118.152 92.6896 118.12C92.8656 118.104 93.0336 118.12 93.1936 118.168C93.3696 118.2 93.5216 118.304 93.6496 118.48C93.7776 118.816 93.9376 119.2 94.1296 119.632C94.3216 120.064 94.5216 120.504 94.7296 120.952C94.9376 121.4 95.1456 121.832 95.3536 122.248C95.5616 122.648 95.7456 122.992 95.9056 123.28C96.6256 122.32 97.3056 121.336 97.9456 120.328C98.6016 119.32 99.2096 118.36 99.7696 117.448C99.9776 117.128 100.194 116.952 100.418 116.92C100.642 116.888 100.826 116.936 100.97 117.064C101.098 117.16 101.17 117.32 101.186 117.544C101.218 117.768 101.194 117.968 101.114 118.144C100.842 118.624 100.522 119.152 100.154 119.728C99.8016 120.288 99.4336 120.856 99.0496 121.432C98.6816 122.008 98.3136 122.576 97.9456 123.136C97.5776 123.696 97.2416 124.2 96.9376 124.648ZM116.037 130.888C115.861 130.888 115.677 130.752 115.485 130.48C115.309 130.208 115.213 129.944 115.197 129.688C115.069 128.76 114.909 127.68 114.717 126.448C114.541 125.2 114.301 123.728 113.997 122.032C113.517 122.944 113.045 123.848 112.581 124.744C112.117 125.64 111.653 126.536 111.189 127.432C110.901 127.992 110.605 128.272 110.301 128.272C109.853 128.272 109.501 128.04 109.245 127.576C108.685 126.76 108.101 126 107.493 125.296C106.901 124.576 106.285 123.864 105.645 123.16C105.613 124.232 105.621 125.288 105.669 126.328C105.733 127.352 105.837 128.352 105.981 129.328C106.013 129.504 105.989 129.664 105.909 129.808C105.845 129.936 105.773 130.016 105.693 130.048C105.469 130.128 105.245 130.08 105.021 129.904C104.797 129.728 104.661 129.536 104.613 129.328C104.469 128.752 104.365 128.112 104.301 127.408C104.237 126.704 104.189 125.992 104.157 125.272C104.141 124.552 104.133 123.84 104.133 123.136C104.133 122.432 104.141 121.792 104.157 121.216C104.157 120.576 104.365 120.256 104.781 120.256C105.037 120.256 105.253 120.352 105.429 120.544C105.605 120.72 105.701 120.976 105.717 121.312C106.517 122.112 107.269 122.936 107.973 123.784C108.693 124.616 109.389 125.464 110.061 126.328C110.621 125.32 111.189 124.288 111.765 123.232C112.341 122.16 112.989 121.12 113.709 120.112C113.741 119.936 113.829 119.76 113.973 119.584C114.117 119.392 114.277 119.264 114.453 119.2C114.629 119.136 114.813 119.208 115.005 119.416C115.197 119.624 115.325 119.864 115.389 120.136C115.661 121.752 115.893 123.368 116.085 124.984C116.293 126.6 116.493 128.216 116.685 129.832C116.717 130.136 116.661 130.392 116.517 130.6C116.373 130.792 116.213 130.888 116.037 130.888ZM126.846 124.048C126.91 124.208 126.846 124.368 126.654 124.528C126.462 124.672 126.158 124.768 125.742 124.816C125.022 124.912 124.286 125.016 123.534 125.128C122.782 125.224 122.014 125.328 121.23 125.44C121.198 126.256 121.198 127.072 121.23 127.888C121.598 127.888 122.038 127.856 122.55 127.792C123.078 127.712 123.614 127.616 124.158 127.504C124.702 127.392 125.222 127.28 125.718 127.168C126.23 127.04 126.662 126.936 127.014 126.856C127.19 126.808 127.374 126.776 127.566 126.76C127.758 126.728 127.926 126.728 128.07 126.76C128.23 126.776 128.358 126.832 128.454 126.928C128.55 127.024 128.598 127.16 128.598 127.336C128.598 127.384 128.542 127.456 128.43 127.552C128.318 127.648 128.174 127.752 127.998 127.864C127.838 127.96 127.662 128.056 127.47 128.152C127.294 128.232 127.134 128.296 126.99 128.344C125.998 128.664 125.022 128.944 124.062 129.184C123.102 129.408 122.166 129.528 121.254 129.544C120.726 129.56 120.326 129.424 120.054 129.136C119.782 128.832 119.638 128.4 119.622 127.84C119.59 127.056 119.59 126.264 119.622 125.464C119.35 125.304 119.214 125.08 119.214 124.792C119.246 124.488 119.39 124.28 119.646 124.168C119.678 123.704 119.702 123.24 119.718 122.776C119.734 122.296 119.758 121.824 119.79 121.36C119.614 121.328 119.454 121.24 119.31 121.096C119.182 120.952 119.118 120.792 119.118 120.616C119.118 120.472 119.15 120.344 119.214 120.232C119.278 120.104 119.398 120.008 119.574 119.944C119.862 119.88 120.214 119.808 120.63 119.728C121.046 119.648 121.47 119.576 121.902 119.512C122.35 119.448 122.774 119.392 123.174 119.344C123.59 119.296 123.942 119.264 124.23 119.248C124.566 119.216 124.886 119.248 125.19 119.344C125.51 119.44 125.806 119.624 126.078 119.896C126.142 120.12 126.094 120.288 125.934 120.4C125.79 120.512 125.598 120.584 125.358 120.616C125.118 120.648 124.83 120.688 124.494 120.736C124.158 120.768 123.806 120.808 123.438 120.856C123.086 120.904 122.726 120.952 122.358 121C122.006 121.032 121.67 121.072 121.35 121.12C121.35 121.152 121.35 121.192 121.35 121.24C121.366 121.272 121.374 121.304 121.374 121.336C121.342 121.752 121.318 122.168 121.302 122.584C121.286 123 121.27 123.416 121.254 123.832C121.926 123.72 122.614 123.624 123.318 123.544C124.022 123.448 124.582 123.384 124.998 123.352C125.334 123.32 125.662 123.36 125.982 123.472C126.302 123.584 126.59 123.776 126.846 124.048Z" fill="white"/>
<path d="M79 58C79 64.798 80.5275 71.5549 80.5275 78.34" stroke="white" stroke-width="5" stroke-linecap="round"/>
<path d="M99 55C99 62.8007 99.5541 70.5541 99.5541 78.34" stroke="white" stroke-width="5" stroke-linecap="round"/>
<path d="M60 86C62.0707 105.602 114.113 110.02 119.635 86" stroke="white" stroke-width="5" stroke-linecap="round"/>
</svg>
