<svg width="317" height="233" viewBox="0 0 317 233" fill="none" xmlns="http://www.w3.org/2000/svg">
<path fill-rule="evenodd" clip-rule="evenodd" d="M164.211 33.4201C197.272 34.1617 235.695 32.2569 249.11 62.4837C266.79 102.32 263.097 152.077 228.819 178.995C190.923 208.755 136.745 209.843 98.0865 181.081C60.6445 153.224 47.6459 100.985 66.7193 58.3923C81.8772 24.5434 127.132 32.5883 164.211 33.4201Z" fill="#FFAFAF"/>
<path d="M101.118 94.31C99.0576 94.21 97.0776 94.37 95.1776 94.79C93.2776 95.21 91.3976 95.78 89.5376 96.5C89.0576 96.68 88.6876 96.66 88.4276 96.44C88.1876 96.22 88.0676 96 88.0676 95.78C88.2076 95.4 88.4576 95.09 88.8176 94.85C92.9176 92.85 97.0176 92.11 101.118 92.63C101.318 92.69 101.478 92.84 101.598 93.08C101.738 93.3 101.788 93.49 101.748 93.65C101.708 93.85 101.648 94.02 101.568 94.16C101.488 94.28 101.338 94.33 101.118 94.31ZM96.8576 104.78C96.8576 105 96.7776 105.2 96.6176 105.38C96.4776 105.54 96.2976 105.64 96.0776 105.68C95.6776 105.74 95.4176 105.67 95.2976 105.47C95.1776 105.27 95.1076 105.04 95.0876 104.78C95.0676 103.38 95.0376 101.99 94.9976 100.61C94.9776 99.21 94.9176 97.81 94.8176 96.41C94.8176 96.33 94.8076 96.24 94.7876 96.14C94.7676 96.02 94.7676 95.91 94.7876 95.81C94.8076 95.69 94.8476 95.59 94.9076 95.51C94.9876 95.43 95.1076 95.37 95.2676 95.33C95.7276 95.25 96.0576 95.33 96.2576 95.57C96.4576 95.79 96.5576 96.01 96.5576 96.23C96.7176 97.67 96.8176 99.1 96.8576 100.52C96.8976 101.94 96.8976 103.36 96.8576 104.78ZM111.083 95.15C111.163 95.71 111.223 96.31 111.263 96.95C111.323 97.57 111.363 98.2 111.383 98.84C111.423 99.48 111.443 100.1 111.443 100.7C111.443 101.3 111.433 101.84 111.413 102.32C112.053 102.76 112.433 103.15 112.553 103.49C112.693 103.83 112.713 104.13 112.613 104.39C112.493 104.75 112.273 104.94 111.953 104.96C111.653 104.96 111.303 104.85 110.903 104.63C110.623 104.83 110.303 105.05 109.943 105.29C109.583 105.51 109.203 105.73 108.803 105.95C108.403 106.15 108.003 106.33 107.603 106.49C107.203 106.65 106.833 106.76 106.493 106.82C105.853 106.92 105.273 106.8 104.753 106.46C104.253 106.12 103.913 105.61 103.733 104.93C103.613 104.47 103.583 104 103.643 103.52C103.703 103.02 103.853 102.55 104.093 102.11C104.333 101.65 104.653 101.24 105.053 100.88C105.473 100.52 105.963 100.24 106.523 100.04C106.663 99.98 106.853 99.93 107.093 99.89C107.353 99.85 107.613 99.84 107.873 99.86C108.153 99.86 108.433 99.91 108.713 100.01C108.993 100.11 109.253 100.28 109.493 100.52C109.493 100.18 109.483 99.81 109.463 99.41C109.463 98.99 109.453 98.57 109.433 98.15C109.413 97.73 109.383 97.34 109.343 96.98C109.323 96.6 109.293 96.28 109.253 96.02C109.213 95.72 109.093 95.54 108.893 95.48C108.713 95.4 108.483 95.41 108.203 95.51C107.723 95.67 107.163 95.98 106.523 96.44C105.883 96.9 105.273 97.39 104.693 97.91C104.513 98.09 104.303 98.17 104.063 98.15C103.843 98.13 103.653 98.04 103.493 97.88C103.333 97.72 103.243 97.54 103.223 97.34C103.203 97.12 103.283 96.89 103.463 96.65C103.803 96.29 104.183 95.92 104.603 95.54C105.023 95.16 105.463 94.82 105.923 94.52C106.383 94.2 106.853 93.94 107.333 93.74C107.813 93.54 108.293 93.43 108.773 93.41C109.473 93.39 110.013 93.55 110.393 93.89C110.773 94.21 111.003 94.63 111.083 95.15ZM107.603 101.6C107.343 101.66 107.063 101.79 106.763 101.99C106.483 102.17 106.223 102.4 105.983 102.68C105.763 102.94 105.593 103.24 105.473 103.58C105.373 103.9 105.373 104.22 105.473 104.54C105.513 104.66 105.593 104.75 105.713 104.81C105.853 104.87 106.003 104.88 106.163 104.84C106.643 104.74 107.183 104.55 107.783 104.27C108.403 103.97 108.893 103.65 109.253 103.31C109.253 103.19 109.193 103.04 109.073 102.86C108.953 102.66 108.813 102.47 108.653 102.29C108.493 102.09 108.313 101.92 108.113 101.78C107.933 101.64 107.763 101.58 107.603 101.6ZM119.464 109.52C119.444 109.74 119.344 109.94 119.164 110.12C118.984 110.32 118.784 110.41 118.564 110.39C118.224 110.37 117.964 110.24 117.784 110C117.604 109.76 117.514 109.56 117.514 109.4C117.514 108.64 117.494 107.85 117.454 107.03C117.414 106.19 117.364 105.33 117.304 104.45C117.044 104.49 116.804 104.47 116.584 104.39C116.384 104.29 116.244 104.14 116.164 103.94C116.024 103.6 116.044 103.3 116.224 103.04C116.404 102.78 116.694 102.53 117.094 102.29C116.994 101.55 116.894 100.82 116.794 100.1C116.714 99.38 116.624 98.68 116.524 98C116.504 97.88 116.514 97.77 116.554 97.67C116.594 97.57 116.644 97.48 116.704 97.4C116.764 97.3 116.874 97.21 117.034 97.13C117.294 97.03 117.584 97.11 117.904 97.37C118.244 97.63 118.474 97.96 118.594 98.36C118.654 98.74 118.714 99.18 118.774 99.68C118.854 100.16 118.924 100.69 118.984 101.27C119.404 101.01 119.794 100.73 120.154 100.43C120.534 100.13 120.854 99.81 121.114 99.47C121.394 99.13 121.604 98.78 121.744 98.42C121.884 98.04 121.924 97.65 121.864 97.25C121.824 96.91 121.674 96.61 121.414 96.35C121.154 96.07 120.744 95.92 120.184 95.9C119.684 95.88 119.184 95.92 118.684 96.02C118.204 96.12 117.724 96.25 117.244 96.41C116.784 96.57 116.324 96.76 115.864 96.98C115.424 97.2 114.994 97.42 114.574 97.64C114.294 97.8 114.014 97.87 113.734 97.85C113.474 97.81 113.304 97.71 113.224 97.55C113.044 97.15 113.054 96.79 113.254 96.47C113.474 96.15 113.804 95.85 114.244 95.57C114.624 95.35 115.074 95.13 115.594 94.91C116.134 94.67 116.694 94.47 117.274 94.31C117.874 94.13 118.474 94.01 119.074 93.95C119.694 93.87 120.284 93.88 120.844 93.98C121.404 94.06 121.904 94.25 122.344 94.55C122.804 94.83 123.174 95.25 123.454 95.81C123.794 96.73 123.884 97.58 123.724 98.36C123.584 99.12 123.284 99.82 122.824 100.46C122.384 101.08 121.834 101.65 121.174 102.17C120.534 102.67 119.884 103.12 119.224 103.52C119.324 104.6 119.394 105.67 119.434 106.73C119.474 107.79 119.484 108.72 119.464 109.52ZM141.037 98.21C141.417 98.19 141.797 98.28 142.177 98.48C142.557 98.68 142.747 98.99 142.747 99.41C142.707 99.75 142.517 99.97 142.177 100.07C141.857 100.15 141.597 100.19 141.397 100.19C140.997 100.19 140.567 100.2 140.107 100.22C139.647 100.24 139.177 100.27 138.697 100.31C138.657 100.97 138.617 101.59 138.577 102.17C138.557 102.75 138.537 103.27 138.517 103.73C138.497 104.17 138.487 104.53 138.487 104.81C138.487 105.09 138.497 105.24 138.517 105.26C138.957 105.18 139.427 105.05 139.927 104.87C140.447 104.67 140.957 104.46 141.457 104.24C141.977 104 142.477 103.76 142.957 103.52C143.457 103.26 143.927 103.02 144.367 102.8C144.567 102.7 144.747 102.67 144.907 102.71C145.087 102.75 145.197 102.84 145.237 102.98C145.277 103.2 145.247 103.47 145.147 103.79C145.047 104.11 144.867 104.4 144.607 104.66C144.307 104.9 143.907 105.18 143.407 105.5C142.927 105.8 142.407 106.09 141.847 106.37C141.287 106.65 140.717 106.9 140.137 107.12C139.577 107.32 139.077 107.44 138.637 107.48C137.977 107.54 137.477 107.36 137.137 106.94C136.797 106.52 136.607 105.99 136.567 105.35C136.527 104.71 136.517 103.97 136.537 103.13C136.577 102.29 136.617 101.4 136.657 100.46C136.277 100.5 135.907 100.54 135.547 100.58C135.207 100.6 134.877 100.63 134.557 100.67C134.297 100.67 134.007 100.61 133.687 100.49C133.387 100.37 133.237 100.14 133.237 99.8C133.237 99.68 133.287 99.52 133.387 99.32C133.487 99.12 133.707 98.97 134.047 98.87C134.867 98.73 135.777 98.61 136.777 98.51C136.837 97.57 136.907 96.66 136.987 95.78C137.067 94.9 137.137 94.1 137.197 93.38C137.217 93.14 137.287 92.93 137.407 92.75C137.527 92.57 137.657 92.48 137.797 92.48C138.137 92.46 138.457 92.55 138.757 92.75C139.077 92.93 139.237 93.14 139.237 93.38C139.157 94.06 139.077 94.83 138.997 95.69C138.937 96.55 138.877 97.43 138.817 98.33C139.217 98.29 139.597 98.27 139.957 98.27C140.337 98.25 140.697 98.23 141.037 98.21ZM153.373 95.78C153.973 96 154.473 96.33 154.873 96.77C155.293 97.21 155.613 97.71 155.833 98.27C156.053 98.81 156.173 99.37 156.193 99.95C156.233 100.53 156.173 101.07 156.013 101.57C155.793 102.13 155.513 102.68 155.173 103.22C154.833 103.76 154.443 104.24 154.003 104.66C153.563 105.08 153.063 105.42 152.503 105.68C151.943 105.94 151.323 106.07 150.643 106.07C149.823 106.07 149.133 105.88 148.573 105.5C148.013 105.12 147.573 104.63 147.253 104.03C146.933 103.43 146.723 102.75 146.623 101.99C146.543 101.23 146.563 100.47 146.683 99.71C146.763 99.15 146.893 98.61 147.073 98.09C147.273 97.55 147.523 97.08 147.823 96.68C148.123 96.26 148.463 95.92 148.843 95.66C149.243 95.4 149.693 95.27 150.193 95.27C150.473 95.27 150.823 95.33 151.243 95.45C151.663 95.55 152.053 95.7 152.413 95.9C152.673 95.66 152.993 95.62 153.373 95.78ZM152.233 97.97C152.013 97.83 151.753 97.65 151.453 97.43C151.173 97.19 150.923 97.07 150.703 97.07C150.463 97.07 150.223 97.18 149.983 97.4C149.763 97.62 149.563 97.88 149.383 98.18C149.223 98.46 149.083 98.75 148.963 99.05C148.843 99.35 148.763 99.59 148.723 99.77C148.663 100.07 148.623 100.43 148.603 100.85C148.583 101.27 148.613 101.69 148.693 102.11C148.773 102.51 148.923 102.88 149.143 103.22C149.383 103.54 149.733 103.77 150.193 103.91C150.473 103.99 150.803 103.99 151.183 103.91C151.563 103.81 151.933 103.64 152.293 103.4C152.673 103.16 153.023 102.84 153.343 102.44C153.683 102.04 153.943 101.58 154.123 101.06C154.323 100.48 154.323 99.88 154.123 99.26C153.943 98.62 153.563 98.16 152.983 97.88C152.843 97.98 152.703 98.03 152.563 98.03C152.423 98.03 152.313 98.01 152.233 97.97ZM169.59 97.37C169.47 97.91 169.35 98.51 169.23 99.17C169.11 99.81 169.02 100.43 168.96 101.03C168.92 101.63 168.92 102.17 168.96 102.65C169.02 103.13 169.15 103.47 169.35 103.67C169.69 103.73 170.08 103.59 170.52 103.25C170.96 102.89 171.39 102.44 171.81 101.9C172.23 101.36 172.61 100.78 172.95 100.16C173.29 99.52 173.53 98.96 173.67 98.48C173.75 98.24 173.82 97.99 173.88 97.73C173.94 97.47 173.97 97.2 173.97 96.92C173.97 96.76 174.07 96.61 174.27 96.47C174.49 96.31 174.67 96.22 174.81 96.2C174.91 96.18 175.02 96.2 175.14 96.26C175.28 96.32 175.4 96.41 175.5 96.53C175.62 96.63 175.72 96.76 175.8 96.92C175.9 97.06 175.95 97.21 175.95 97.37C175.99 97.97 176.05 98.63 176.13 99.35C176.21 100.07 176.3 100.79 176.4 101.51C176.52 102.23 176.64 102.93 176.76 103.61C176.88 104.29 177 104.9 177.12 105.44C177.18 105.66 177.12 105.91 176.94 106.19C176.76 106.47 176.56 106.64 176.34 106.7C176.16 106.74 175.97 106.72 175.77 106.64C175.59 106.56 175.45 106.4 175.35 106.16C175.25 105.88 175.15 105.54 175.05 105.14C174.97 104.72 174.89 104.29 174.81 103.85C174.75 103.39 174.69 102.96 174.63 102.56C174.57 102.14 174.53 101.79 174.51 101.51C174.21 102.05 173.85 102.6 173.43 103.16C173.03 103.7 172.59 104.2 172.11 104.66C171.65 105.1 171.16 105.45 170.64 105.71C170.14 105.95 169.62 106.04 169.08 105.98C168.28 105.88 167.67 105.13 167.25 103.73C167.09 103.17 167.01 102.55 167.01 101.87C167.03 101.19 167.08 100.52 167.16 99.86C167.26 99.18 167.37 98.54 167.49 97.94C167.63 97.34 167.75 96.85 167.85 96.47C167.89 96.31 167.97 96.17 168.09 96.05C168.21 95.91 168.35 95.86 168.51 95.9C168.81 95.96 169.08 96.14 169.32 96.44C169.58 96.74 169.67 97.05 169.59 97.37ZM184.415 109.52C184.395 109.74 184.295 109.94 184.115 110.12C183.935 110.32 183.735 110.41 183.515 110.39C183.175 110.37 182.915 110.24 182.735 110C182.555 109.76 182.465 109.56 182.465 109.4C182.465 108.64 182.445 107.85 182.405 107.03C182.365 106.19 182.315 105.33 182.255 104.45C181.995 104.49 181.755 104.47 181.535 104.39C181.335 104.29 181.195 104.14 181.115 103.94C180.975 103.6 180.995 103.3 181.175 103.04C181.355 102.78 181.645 102.53 182.045 102.29C181.945 101.55 181.845 100.82 181.745 100.1C181.665 99.38 181.575 98.68 181.475 98C181.455 97.88 181.465 97.77 181.505 97.67C181.545 97.57 181.595 97.48 181.655 97.4C181.715 97.3 181.825 97.21 181.985 97.13C182.245 97.03 182.535 97.11 182.855 97.37C183.195 97.63 183.425 97.96 183.545 98.36C183.605 98.74 183.665 99.18 183.725 99.68C183.805 100.16 183.875 100.69 183.935 101.27C184.355 101.01 184.745 100.73 185.105 100.43C185.485 100.13 185.805 99.81 186.065 99.47C186.345 99.13 186.555 98.78 186.695 98.42C186.835 98.04 186.875 97.65 186.815 97.25C186.775 96.91 186.625 96.61 186.365 96.35C186.105 96.07 185.695 95.92 185.135 95.9C184.635 95.88 184.135 95.92 183.635 96.02C183.155 96.12 182.675 96.25 182.195 96.41C181.735 96.57 181.275 96.76 180.815 96.98C180.375 97.2 179.945 97.42 179.525 97.64C179.245 97.8 178.965 97.87 178.685 97.85C178.425 97.81 178.255 97.71 178.175 97.55C177.995 97.15 178.005 96.79 178.205 96.47C178.425 96.15 178.755 95.85 179.195 95.57C179.575 95.35 180.025 95.13 180.545 94.91C181.085 94.67 181.645 94.47 182.225 94.31C182.825 94.13 183.425 94.01 184.025 93.95C184.645 93.87 185.235 93.88 185.795 93.98C186.355 94.06 186.855 94.25 187.295 94.55C187.755 94.83 188.125 95.25 188.405 95.81C188.745 96.73 188.835 97.58 188.675 98.36C188.535 99.12 188.235 99.82 187.775 100.46C187.335 101.08 186.785 101.65 186.125 102.17C185.485 102.67 184.835 103.12 184.175 103.52C184.275 104.6 184.345 105.67 184.385 106.73C184.425 107.79 184.435 108.72 184.415 109.52ZM193.29 92.21C193.39 94.39 193.56 96.65 193.8 98.99C194.04 101.31 194.3 103.53 194.58 105.65C194.64 106.53 194.4 106.98 193.86 107C193.74 107 193.62 106.96 193.5 106.88C193.38 106.78 193.27 106.66 193.17 106.52C193.07 106.38 192.97 106.23 192.87 106.07C192.79 105.91 192.74 105.77 192.72 105.65C192.56 104.63 192.41 103.55 192.27 102.41C192.13 101.27 192 100.13 191.88 98.99C191.78 97.83 191.69 96.7 191.61 95.6C191.53 94.5 191.48 93.49 191.46 92.57C191.5 92.09 191.57 91.69 191.67 91.37C191.77 91.03 191.98 90.87 192.3 90.89C192.64 90.91 192.88 91.05 193.02 91.31C193.18 91.55 193.27 91.85 193.29 92.21ZM203.94 95.78C204.54 96 205.04 96.33 205.44 96.77C205.86 97.21 206.18 97.71 206.4 98.27C206.62 98.81 206.74 99.37 206.76 99.95C206.8 100.53 206.74 101.07 206.58 101.57C206.36 102.13 206.08 102.68 205.74 103.22C205.4 103.76 205.01 104.24 204.57 104.66C204.13 105.08 203.63 105.42 203.07 105.68C202.51 105.94 201.89 106.07 201.21 106.07C200.39 106.07 199.7 105.88 199.14 105.5C198.58 105.12 198.14 104.63 197.82 104.03C197.5 103.43 197.29 102.75 197.19 101.99C197.11 101.23 197.13 100.47 197.25 99.71C197.33 99.15 197.46 98.61 197.64 98.09C197.84 97.55 198.09 97.08 198.39 96.68C198.69 96.26 199.03 95.92 199.41 95.66C199.81 95.4 200.26 95.27 200.76 95.27C201.04 95.27 201.39 95.33 201.81 95.45C202.23 95.55 202.62 95.7 202.98 95.9C203.24 95.66 203.56 95.62 203.94 95.78ZM202.8 97.97C202.58 97.83 202.32 97.65 202.02 97.43C201.74 97.19 201.49 97.07 201.27 97.07C201.03 97.07 200.79 97.18 200.55 97.4C200.33 97.62 200.13 97.88 199.95 98.18C199.79 98.46 199.65 98.75 199.53 99.05C199.41 99.35 199.33 99.59 199.29 99.77C199.23 100.07 199.19 100.43 199.17 100.85C199.15 101.27 199.18 101.69 199.26 102.11C199.34 102.51 199.49 102.88 199.71 103.22C199.95 103.54 200.3 103.77 200.76 103.91C201.04 103.99 201.37 103.99 201.75 103.91C202.13 103.81 202.5 103.64 202.86 103.4C203.24 103.16 203.59 102.84 203.91 102.44C204.25 102.04 204.51 101.58 204.69 101.06C204.89 100.48 204.89 99.88 204.69 99.26C204.51 98.62 204.13 98.16 203.55 97.88C203.41 97.98 203.27 98.03 203.13 98.03C202.99 98.03 202.88 98.01 202.8 97.97ZM216.668 95.15C216.748 95.71 216.808 96.31 216.848 96.95C216.908 97.57 216.948 98.2 216.968 98.84C217.008 99.48 217.028 100.1 217.028 100.7C217.028 101.3 217.018 101.84 216.998 102.32C217.638 102.76 218.018 103.15 218.138 103.49C218.278 103.83 218.298 104.13 218.198 104.39C218.078 104.75 217.858 104.94 217.538 104.96C217.238 104.96 216.888 104.85 216.488 104.63C216.208 104.83 215.888 105.05 215.528 105.29C215.168 105.51 214.788 105.73 214.388 105.95C213.988 106.15 213.588 106.33 213.188 106.49C212.788 106.65 212.418 106.76 212.078 106.82C211.438 106.92 210.858 106.8 210.338 106.46C209.838 106.12 209.498 105.61 209.318 104.93C209.198 104.47 209.168 104 209.228 103.52C209.288 103.02 209.438 102.55 209.678 102.11C209.918 101.65 210.238 101.24 210.638 100.88C211.058 100.52 211.548 100.24 212.108 100.04C212.248 99.98 212.438 99.93 212.678 99.89C212.938 99.85 213.198 99.84 213.458 99.86C213.738 99.86 214.018 99.91 214.298 100.01C214.578 100.11 214.838 100.28 215.078 100.52C215.078 100.18 215.068 99.81 215.048 99.41C215.048 98.99 215.038 98.57 215.018 98.15C214.998 97.73 214.968 97.34 214.928 96.98C214.908 96.6 214.878 96.28 214.838 96.02C214.798 95.72 214.678 95.54 214.478 95.48C214.298 95.4 214.068 95.41 213.788 95.51C213.308 95.67 212.748 95.98 212.108 96.44C211.468 96.9 210.858 97.39 210.278 97.91C210.098 98.09 209.888 98.17 209.648 98.15C209.428 98.13 209.238 98.04 209.078 97.88C208.918 97.72 208.828 97.54 208.808 97.34C208.788 97.12 208.868 96.89 209.048 96.65C209.388 96.29 209.768 95.92 210.188 95.54C210.608 95.16 211.048 94.82 211.508 94.52C211.968 94.2 212.438 93.94 212.918 93.74C213.398 93.54 213.878 93.43 214.358 93.41C215.058 93.39 215.598 93.55 215.978 93.89C216.358 94.21 216.588 94.63 216.668 95.15ZM213.188 101.6C212.928 101.66 212.648 101.79 212.348 101.99C212.068 102.17 211.808 102.4 211.568 102.68C211.348 102.94 211.178 103.24 211.058 103.58C210.958 103.9 210.958 104.22 211.058 104.54C211.098 104.66 211.178 104.75 211.298 104.81C211.438 104.87 211.588 104.88 211.748 104.84C212.228 104.74 212.768 104.55 213.368 104.27C213.988 103.97 214.478 103.65 214.838 103.31C214.838 103.19 214.778 103.04 214.658 102.86C214.538 102.66 214.398 102.47 214.238 102.29C214.078 102.09 213.898 101.92 213.698 101.78C213.518 101.64 213.348 101.58 213.188 101.6ZM225.02 91.04C224.96 90.68 224.98 90.35 225.08 90.05C225.2 89.75 225.43 89.58 225.77 89.54C226.07 89.5 226.33 89.58 226.55 89.78C226.79 89.98 226.94 90.24 227 90.56C227.4 92.86 227.77 95.15 228.11 97.43C228.47 99.69 228.79 101.91 229.07 104.09C229.15 104.67 229.11 105.07 228.95 105.29C228.79 105.49 228.6 105.64 228.38 105.74C228.14 105.84 227.91 105.84 227.69 105.74C227.49 105.64 227.36 105.46 227.3 105.2L227.27 105.02L227.15 105.05C226.49 105.29 225.8 105.43 225.08 105.47C224.36 105.49 223.67 105.4 223.01 105.2C222.35 105 221.76 104.68 221.24 104.24C220.74 103.78 220.38 103.2 220.16 102.5C219.68 100.96 219.98 99.56 221.06 98.3C221.52 97.78 222.09 97.31 222.77 96.89C223.45 96.47 224.27 96.14 225.23 95.9L225.77 95.78L225.02 91.04ZM221.99 101.75C222.11 102.23 222.33 102.6 222.65 102.86C222.97 103.12 223.35 103.3 223.79 103.4C224.23 103.48 224.7 103.49 225.2 103.43C225.7 103.37 226.19 103.26 226.67 103.1L226.94 103.01L226.1 97.73L225.5 97.88C225.08 98 224.63 98.19 224.15 98.45C223.69 98.69 223.28 98.98 222.92 99.32C222.56 99.66 222.28 100.04 222.08 100.46C221.9 100.88 221.87 101.31 221.99 101.75ZM134.654 144.52C134.634 144.74 134.534 144.94 134.354 145.12C134.174 145.32 133.974 145.41 133.754 145.39C133.414 145.37 133.154 145.24 132.974 145C132.794 144.76 132.704 144.56 132.704 144.4C132.704 143.64 132.684 142.85 132.644 142.03C132.604 141.19 132.554 140.33 132.494 139.45C132.234 139.49 131.994 139.47 131.774 139.39C131.574 139.29 131.434 139.14 131.354 138.94C131.214 138.6 131.234 138.3 131.414 138.04C131.594 137.78 131.884 137.53 132.284 137.29C132.184 136.55 132.084 135.82 131.984 135.1C131.904 134.38 131.814 133.68 131.714 133C131.694 132.88 131.704 132.77 131.744 132.67C131.784 132.57 131.834 132.48 131.894 132.4C131.954 132.3 132.064 132.21 132.224 132.13C132.484 132.03 132.774 132.11 133.094 132.37C133.434 132.63 133.664 132.96 133.784 133.36C133.844 133.74 133.904 134.18 133.964 134.68C134.044 135.16 134.114 135.69 134.174 136.27C134.594 136.01 134.984 135.73 135.344 135.43C135.724 135.13 136.044 134.81 136.304 134.47C136.584 134.13 136.794 133.78 136.934 133.42C137.074 133.04 137.114 132.65 137.054 132.25C137.014 131.91 136.864 131.61 136.604 131.35C136.344 131.07 135.934 130.92 135.374 130.9C134.874 130.88 134.374 130.92 133.874 131.02C133.394 131.12 132.914 131.25 132.434 131.41C131.974 131.57 131.514 131.76 131.054 131.98C130.614 132.2 130.184 132.42 129.764 132.64C129.484 132.8 129.204 132.87 128.924 132.85C128.664 132.81 128.494 132.71 128.414 132.55C128.234 132.15 128.244 131.79 128.444 131.47C128.664 131.15 128.994 130.85 129.434 130.57C129.814 130.35 130.264 130.13 130.784 129.91C131.324 129.67 131.884 129.47 132.464 129.31C133.064 129.13 133.664 129.01 134.264 128.95C134.884 128.87 135.474 128.88 136.034 128.98C136.594 129.06 137.094 129.25 137.534 129.55C137.994 129.83 138.364 130.25 138.644 130.81C138.984 131.73 139.074 132.58 138.914 133.36C138.774 134.12 138.474 134.82 138.014 135.46C137.574 136.08 137.024 136.65 136.364 137.17C135.724 137.67 135.074 138.12 134.414 138.52C134.514 139.6 134.584 140.67 134.624 141.73C134.664 142.79 134.674 143.72 134.654 144.52ZM143.109 127.96C143.109 128.44 143.099 128.98 143.079 129.58C143.079 130.18 143.079 130.8 143.079 131.44C143.099 132.08 143.109 132.74 143.109 133.42C143.129 134.1 143.149 134.75 143.169 135.37C143.369 134.97 143.609 134.58 143.889 134.2C144.169 133.8 144.479 133.45 144.819 133.15C145.179 132.85 145.549 132.61 145.929 132.43C146.329 132.25 146.759 132.16 147.219 132.16C147.719 132.16 148.159 132.32 148.539 132.64C148.939 132.96 149.279 133.39 149.559 133.93C149.859 134.45 150.109 135.04 150.309 135.7C150.509 136.34 150.669 137 150.789 137.68C150.929 138.34 151.029 138.98 151.089 139.6C151.149 140.2 151.199 140.72 151.239 141.16C151.239 141.48 151.159 141.74 150.999 141.94C150.839 142.14 150.649 142.24 150.429 142.24C150.269 142.24 150.069 142.14 149.829 141.94C149.609 141.72 149.449 141.46 149.349 141.16C149.289 140.92 149.229 140.57 149.169 140.11C149.109 139.65 149.039 139.16 148.959 138.64C148.879 138.1 148.779 137.56 148.659 137.02C148.539 136.48 148.389 136 148.209 135.58C148.049 135.14 147.849 134.8 147.609 134.56C147.369 134.32 147.089 134.23 146.769 134.29C146.269 134.39 145.829 134.74 145.449 135.34C145.089 135.94 144.769 136.62 144.489 137.38C144.229 138.14 144.009 138.91 143.829 139.69C143.669 140.47 143.549 141.1 143.469 141.58C143.389 141.94 143.279 142.19 143.139 142.33C143.019 142.45 142.879 142.51 142.719 142.51C142.559 142.51 142.409 142.43 142.269 142.27C142.149 142.11 142.029 141.92 141.909 141.7C141.809 141.46 141.719 141.22 141.639 140.98C141.559 140.72 141.509 140.5 141.489 140.32C141.389 139.24 141.309 138.21 141.249 137.23C141.189 136.23 141.139 135.23 141.099 134.23C141.079 133.23 141.069 132.21 141.069 131.17C141.069 130.11 141.089 128.98 141.129 127.78C141.129 126.78 141.489 126.33 142.209 126.43C142.449 126.47 142.659 126.65 142.839 126.97C143.019 127.27 143.109 127.6 143.109 127.96ZM160.302 130.78C160.902 131 161.402 131.33 161.802 131.77C162.222 132.21 162.542 132.71 162.762 133.27C162.982 133.81 163.102 134.37 163.122 134.95C163.162 135.53 163.102 136.07 162.942 136.57C162.722 137.13 162.442 137.68 162.102 138.22C161.762 138.76 161.372 139.24 160.932 139.66C160.492 140.08 159.992 140.42 159.432 140.68C158.872 140.94 158.252 141.07 157.572 141.07C156.752 141.07 156.062 140.88 155.502 140.5C154.942 140.12 154.502 139.63 154.182 139.03C153.862 138.43 153.652 137.75 153.552 136.99C153.472 136.23 153.492 135.47 153.612 134.71C153.692 134.15 153.822 133.61 154.002 133.09C154.202 132.55 154.452 132.08 154.752 131.68C155.052 131.26 155.392 130.92 155.772 130.66C156.172 130.4 156.622 130.27 157.122 130.27C157.402 130.27 157.752 130.33 158.172 130.45C158.592 130.55 158.982 130.7 159.342 130.9C159.602 130.66 159.922 130.62 160.302 130.78ZM159.162 132.97C158.942 132.83 158.682 132.65 158.382 132.43C158.102 132.19 157.852 132.07 157.632 132.07C157.392 132.07 157.152 132.18 156.912 132.4C156.692 132.62 156.492 132.88 156.312 133.18C156.152 133.46 156.012 133.75 155.892 134.05C155.772 134.35 155.692 134.59 155.652 134.77C155.592 135.07 155.552 135.43 155.532 135.85C155.512 136.27 155.542 136.69 155.622 137.11C155.702 137.51 155.852 137.88 156.072 138.22C156.312 138.54 156.662 138.77 157.122 138.91C157.402 138.99 157.732 138.99 158.112 138.91C158.492 138.81 158.862 138.64 159.222 138.4C159.602 138.16 159.952 137.84 160.272 137.44C160.612 137.04 160.872 136.58 161.052 136.06C161.252 135.48 161.252 134.88 161.052 134.26C160.872 133.62 160.492 133.16 159.912 132.88C159.772 132.98 159.632 133.03 159.492 133.03C159.352 133.03 159.242 133.01 159.162 132.97ZM172.341 133.21C172.721 133.19 173.101 133.28 173.481 133.48C173.861 133.68 174.051 133.99 174.051 134.41C174.011 134.75 173.821 134.97 173.481 135.07C173.161 135.15 172.901 135.19 172.701 135.19C172.301 135.19 171.871 135.2 171.411 135.22C170.951 135.24 170.481 135.27 170.001 135.31C169.961 135.97 169.921 136.59 169.881 137.17C169.861 137.75 169.841 138.27 169.821 138.73C169.801 139.17 169.791 139.53 169.791 139.81C169.791 140.09 169.801 140.24 169.821 140.26C170.261 140.18 170.731 140.05 171.231 139.87C171.751 139.67 172.261 139.46 172.761 139.24C173.281 139 173.781 138.76 174.261 138.52C174.761 138.26 175.231 138.02 175.671 137.8C175.871 137.7 176.051 137.67 176.211 137.71C176.391 137.75 176.501 137.84 176.541 137.98C176.581 138.2 176.551 138.47 176.451 138.79C176.351 139.11 176.171 139.4 175.911 139.66C175.611 139.9 175.211 140.18 174.711 140.5C174.231 140.8 173.711 141.09 173.151 141.37C172.591 141.65 172.021 141.9 171.441 142.12C170.881 142.32 170.381 142.44 169.941 142.48C169.281 142.54 168.781 142.36 168.441 141.94C168.101 141.52 167.911 140.99 167.871 140.35C167.831 139.71 167.821 138.97 167.841 138.13C167.881 137.29 167.921 136.4 167.961 135.46C167.581 135.5 167.211 135.54 166.851 135.58C166.511 135.6 166.181 135.63 165.861 135.67C165.601 135.67 165.311 135.61 164.991 135.49C164.691 135.37 164.541 135.14 164.541 134.8C164.541 134.68 164.591 134.52 164.691 134.32C164.791 134.12 165.011 133.97 165.351 133.87C166.171 133.73 167.081 133.61 168.081 133.51C168.141 132.57 168.211 131.66 168.291 130.78C168.371 129.9 168.441 129.1 168.501 128.38C168.521 128.14 168.591 127.93 168.711 127.75C168.831 127.57 168.961 127.48 169.101 127.48C169.441 127.46 169.761 127.55 170.061 127.75C170.381 127.93 170.541 128.14 170.541 128.38C170.461 129.06 170.381 129.83 170.301 130.69C170.241 131.55 170.181 132.43 170.121 133.33C170.521 133.29 170.901 133.27 171.261 133.27C171.641 133.25 172.001 133.23 172.341 133.21ZM184.677 130.78C185.277 131 185.777 131.33 186.177 131.77C186.597 132.21 186.917 132.71 187.137 133.27C187.357 133.81 187.477 134.37 187.497 134.95C187.537 135.53 187.477 136.07 187.317 136.57C187.097 137.13 186.817 137.68 186.477 138.22C186.137 138.76 185.747 139.24 185.307 139.66C184.867 140.08 184.367 140.42 183.807 140.68C183.247 140.94 182.627 141.07 181.947 141.07C181.127 141.07 180.437 140.88 179.877 140.5C179.317 140.12 178.877 139.63 178.557 139.03C178.237 138.43 178.027 137.75 177.927 136.99C177.847 136.23 177.867 135.47 177.987 134.71C178.067 134.15 178.197 133.61 178.377 133.09C178.577 132.55 178.827 132.08 179.127 131.68C179.427 131.26 179.767 130.92 180.147 130.66C180.547 130.4 180.997 130.27 181.497 130.27C181.777 130.27 182.127 130.33 182.547 130.45C182.967 130.55 183.357 130.7 183.717 130.9C183.977 130.66 184.297 130.62 184.677 130.78ZM183.537 132.97C183.317 132.83 183.057 132.65 182.757 132.43C182.477 132.19 182.227 132.07 182.007 132.07C181.767 132.07 181.527 132.18 181.287 132.4C181.067 132.62 180.867 132.88 180.687 133.18C180.527 133.46 180.387 133.75 180.267 134.05C180.147 134.35 180.067 134.59 180.027 134.77C179.967 135.07 179.927 135.43 179.907 135.85C179.887 136.27 179.917 136.69 179.997 137.11C180.077 137.51 180.227 137.88 180.447 138.22C180.687 138.54 181.037 138.77 181.497 138.91C181.777 138.99 182.107 138.99 182.487 138.91C182.867 138.81 183.237 138.64 183.597 138.4C183.977 138.16 184.327 137.84 184.647 137.44C184.987 137.04 185.247 136.58 185.427 136.06C185.627 135.48 185.627 134.88 185.427 134.26C185.247 133.62 184.867 133.16 184.287 132.88C184.147 132.98 184.007 133.03 183.867 133.03C183.727 133.03 183.617 133.01 183.537 132.97Z" fill="white"/>
<rect x="1.5" y="1.5" width="314" height="230" rx="14.5" stroke="#FFAFAF" stroke-width="3" stroke-linecap="round" stroke-dasharray="6 19"/>
</svg>
