<svg width="48" height="48" viewBox="0 0 48 48" fill="none" xmlns="http://www.w3.org/2000/svg">
<path fill-rule="evenodd" clip-rule="evenodd" d="M23.9733 2.00072C33.6478 2.08859 40.2389 10.8038 43.0177 20.0711C45.5761 28.6032 43.5503 38.0503 36.3588 43.3062C29.1086 48.6049 19.267 48.0143 11.9978 42.7418C4.70952 37.4556 1.29437 28.3532 3.83345 19.7152C6.62099 10.2318 14.0892 1.91094 23.9733 2.00072Z" fill="#FFC691"/>
<path d="M18.5 14.5C18.5397 16.9639 18.9161 19.3612 18.7778 21.8333C18.7211 22.8457 18.75 25.8889 18.75 24.875" stroke="white" stroke-width="2" stroke-linecap="round"/>
<path d="M24 13.875C24.0339 16.7869 24.75 19.6429 24.75 22.5556C24.75 23.412 24.75 24.2685 24.75 25.125" stroke="white" stroke-width="2" stroke-linecap="round"/>
<path d="M15.5 32.3751C16.9051 32.1409 18.3715 32.2501 19.7917 32.2501C21.6016 32.2501 23.3734 31.9587 25.1736 31.8821C27.1508 31.7979 29.1456 31.8751 31.125 31.8751" stroke="white" stroke-width="2" stroke-linecap="round"/>
</svg>
